<svg xmlns="http://www.w3.org/2000/svg" viewBox="0 0 750 500"><g id="freepik--background-simple--inject-84"><path d="M668.46,353.43C631,410.46,601.62,431,468,395.31s-107.83,37.43-229,29.41S56.23,382,54.45,305.31c-1-43.87,24.82-68.47,55.63-90.34,21.83-15.5,46.15-29.64,65.18-48.28q1.56-1.51,3.06-3.08c7.56-7.86,15.52-16.8,24.14-26.18q3.31-3.62,6.78-7.31c15.15-16.14,32.37-33,52.92-47.55,5.27-3.72,10.77-7.29,16.5-10.65C306.87,55.43,340.91,44,383.31,44q3.6,0,7.27.11c7.69.24,15.65.84,23.9,1.85,28.52,3.49,55.7,11.55,80.75,22,2.44,1,4.87,2.07,7.27,3.13q4.54,2,9,4.13,7.47,3.54,14.65,7.32a479.35,479.35,0,0,1,72.79,47.55c5.59,4.4,10.77,8.65,15.49,12.68,11.55,9.82,20.42,18.24,26.13,23.89,4.84,4.81,7.41,7.62,7.41,7.62a252.42,252.42,0,0,1,23.57,31.63C704.27,258.65,699.77,305.72,668.46,353.43Z" style="fill:#2C7DA0"></path><path d="M668.46,353.43C631,410.46,601.62,431,468,395.31s-107.83,37.43-229,29.41S56.23,382,54.45,305.31c-1-43.87,24.82-68.47,55.63-90.34,21.83-15.5,46.15-29.64,65.18-48.28q1.56-1.51,3.06-3.08c7.56-7.86,15.52-16.8,24.14-26.18q3.31-3.62,6.78-7.31c15.15-16.14,32.37-33,52.92-47.55,5.27-3.72,10.77-7.29,16.5-10.65C306.87,55.43,340.91,44,383.31,44q3.6,0,7.27.11c7.69.24,15.65.84,23.9,1.85,28.52,3.49,55.7,11.55,80.75,22,2.44,1,4.87,2.07,7.27,3.13q4.54,2,9,4.13,7.47,3.54,14.65,7.32a479.35,479.35,0,0,1,72.79,47.55c5.59,4.4,10.77,8.65,15.49,12.68,11.55,9.82,20.42,18.24,26.13,23.89,4.84,4.81,7.41,7.62,7.41,7.62a252.42,252.42,0,0,1,23.57,31.63C704.27,258.65,699.77,305.72,668.46,353.43Z" style="fill:#fff;opacity:0.7000000000000001"></path></g><g id="freepik--water-2--inject-84"><path d="M691.69,300.28c-3.69,17.85-11.62,35.45-23.23,53.15C631,410.46,601.62,431,468,395.31s-107.83,37.43-229,29.41S56.23,382,54.45,305.31c-.37-16.07,2.86-29.55,8.62-41.26A192.08,192.08,0,0,0,125.78,257c55.55-15.67,85.81-13.1,118.23-10.69s78.35,18.52,116.1,16.39,89.74-12.11,119-6.41,34.18,18.51,91.88,12.1,78.12-16.86,105.41-12.82a138.41,138.41,0,0,1,16.21,3.32c.58,3.49,1,6.95,1.24,10.4A111.27,111.27,0,0,1,691.69,300.28Z" style="fill:#2C7DA0"></path></g><g id="freepik--Character--inject-84"><path d="M407.15,250.18s18.15-.43,26.37-10.37,14.69-26.36,22.9-21.61,15.13,5.19,17.72-3.46A136.54,136.54,0,0,0,478,194.86s-4.32,9.51,3.46,11.67,21.19-13.93,21.19-13.93-16.87,18.69-16.87,26,2.6,10.38,14.27,1.73,20.74-11.67,25.06-5.18,3.46,1.29-11.23,6.48-15.56,7.78-22.91,12.1-7.35-2.59-17.72-1.3-21.18,4.76-10.81,10.81a60.06,60.06,0,0,0,19.88,7.35S427.46,257.1,407.15,250.18Z" style="fill:#fff;opacity:0.7000000000000001"></path><ellipse cx="523.07" cy="196.55" rx="5.38" ry="2.02" style="fill:#fff"></ellipse><path d="M515.9,187.81c0,1-1.31,1.8-2.92,1.8s-2.91-.81-2.91-1.8S511.37,186,513,186,515.9,186.82,515.9,187.81Z" style="fill:#fff"></path><ellipse cx="527.33" cy="179.97" rx="2.02" ry="1.12" style="fill:#fff"></ellipse><path d="M517.24,233.32c0,.62-1.1,1.12-2.47,1.12s-2.46-.5-2.46-1.12,1.1-1.12,2.46-1.12S517.24,232.7,517.24,233.32Z" style="fill:#fff"></path><ellipse cx="449.09" cy="206.87" rx="3.59" ry="2.02" style="fill:#fff"></ellipse><path d="M466.58,212.92c0,1.24-1.41,2.24-3.14,2.24s-3.14-1-3.14-2.24,1.41-2.24,3.14-2.24S466.58,211.68,466.58,212.92Z" style="fill:#fff"></path><path d="M133.65,281.63s20.46-9.28,30.32-4.35,21.38,13.71,41.67,8.23,32.89-9.32,43.85-2.2,14.26,16.45,40.57,13.16,38.92-15.35,48.24-15.9l9.32-.55S278.55,256.45,261,258.64s-47.69,9.32-59.2,7.13-26.86-3.29-36.73-.55-15.35,1.65-21.93,3.29S133.65,281.63,133.65,281.63Z" style="fill:#fff;opacity:0.7000000000000001"></path><g style="opacity:0.7000000000000001"><path d="M262.65,303.32c0,2-4,3.56-9,3.56s-9-1.59-9-3.56,4.05-3.56,9-3.56S262.65,301.35,262.65,303.32Z" style="fill:#fff"></path><path d="M240.17,289.62c0,1.36-1.72,2.46-3.83,2.46s-3.84-1.1-3.84-2.46,1.72-2.47,3.84-2.47S240.17,288.25,240.17,289.62Z" style="fill:#fff"></path><ellipse cx="211.12" cy="293.18" rx="4.39" ry="1.64" style="fill:#fff"></ellipse><ellipse cx="226.19" cy="300.03" rx="3.56" ry="1.37" style="fill:#fff"></ellipse><ellipse cx="157.94" cy="284.41" rx="3.29" ry="1.1" style="fill:#fff"></ellipse><path d="M145.88,287.7c0,.91-1.47,1.64-3.29,1.64s-3.29-.73-3.29-1.64,1.48-1.65,3.29-1.65S145.88,286.79,145.88,287.7Z" style="fill:#fff"></path><ellipse cx="160.14" cy="294.28" rx="2.74" ry="1.1" style="fill:#fff"></ellipse><ellipse cx="327.88" cy="293.73" rx="5.48" ry="2.19" style="fill:#fff"></ellipse><ellipse cx="349.26" cy="295.1" rx="3.29" ry="1.92" style="fill:#fff"></ellipse></g><path d="M691.69,300.28c-7.15,0-21.27,3.92-29.41,9.35-9.86,6.57-30.15,4.93-40-7.68s-53.73-19.19-53.73-19.19c-27.74-7.75-50-2.44-57.89.16,7.46-3.14,26.64-11,50.77-10.57,28,.55,40,6,49.33,6s11-4.94,18.09-6,15.9,14.25,29.06,15.35,8.22-10.42,21.93-17c6.31-3,10.88-2.68,14-1.43A111.27,111.27,0,0,1,691.69,300.28Z" style="fill:#fff;opacity:0.7000000000000001"></path><g style="opacity:0.7000000000000001"><path d="M653.51,323.6c0,2.28-4.17,4.12-9.32,4.12s-9.32-1.84-9.32-4.12,4.18-4.11,9.32-4.11S653.51,321.33,653.51,323.6Z" style="fill:#fff"></path><ellipse cx="668.59" cy="315.93" rx="4.66" ry="2.47" style="fill:#fff"></ellipse><ellipse cx="669.41" cy="326.62" rx="3.29" ry="1.64" style="fill:#fff"></ellipse><ellipse cx="594.03" cy="296.74" rx="6.85" ry="3.56" style="fill:#fff"></ellipse><ellipse cx="656.8" cy="281.12" rx="4.93" ry="2.74" style="fill:#fff"></ellipse></g><path d="M559.9,259.5s22.92-17.38,29-20.28,28.45-14.49,30.29-15.28-1.32-3.16-8.43-4.48-15.54.79-18.18,1.85-16.86-2.11-19.23,1.05-1.84,10.8-2.89,13.17S554.89,244,547,246.07a67.12,67.12,0,0,0-15.54,6.85Z" style="fill:#fff;stroke:#263238;stroke-linecap:round;stroke-linejoin:round"></path><path d="M290.13,218.41s14-.53,19-5.27,12.65-11.86,21.34-15.81,22.92-3.16,22.92-3.16,12.12-3.69,19.23-3.69,21.6-.79,21.6-.79a61.55,61.55,0,0,1,21.08-1.32c11.59,1.32,33.72,3.69,38.46,4s17.12-5,19.76-5,12.12,2.11,13.17,2.11,16.33-2.9,14.75-1.06a8.61,8.61,0,0,1-2.89,2.38s7.64-.53,6.84,1.31-4.47,3.43-8.95,4.74-14.75,4-19.23,4.22a154.68,154.68,0,0,1-17.65-.79c-1.32-.26-28.19,5-37.94,6.32s-23.71-1.84-23.71-1.84-16.86,9.48-24.5,9.75-22.39,5-22.39,5,7.37,6.85,9.48,10.28,6.32,5.79,10,7.11,15.55,4,15.55,4,24.76-7.9,41.09-7.9,47.69,15.28,58.22,18.17,38.73-3.68,45.05-3.16,42.42,12.91,48.48,16.34,17.91,7.11,22.12,7.64a55.7,55.7,0,0,0,8.7.26s0-4.74,5.27-3.95,16.33,15.8,17.12,20.28.26,12.38-.79,14.49,0,2.9-3.42-.79-8.17-7.37-15-12.38-20-5.8-34.51-9.75S540.4,276.1,533,276.1s-11.07.26-11.07.26-9.22,5-14,7.64-10.27,2.38-17.65,5.27-25,7.64-48.47,9-41.89-1.58-49.27-4-18.18-6.32-22.13-7.64a37.56,37.56,0,0,0-9.74-1.32,323.48,323.48,0,0,1-38.47-1.05c-19.76-1.85-35.56-7.91-39-9.49a73.23,73.23,0,0,0-7.64-2.89,117.59,117.59,0,0,1-20.28,2.63c-10,.26-21.08,1.32-28.45,0a77.9,77.9,0,0,0-12.39-1.32s-15,0-28.45.53-42.15-.53-42.15-.53-7.9,8.43-10.27,8.43a49.3,49.3,0,0,0-8.7.79c-2.37.53-9,2.37-11.32,2.37s-1.85-1.58.26-2.37,11.59-4.74,11.59-4.74-17.65,1.06-21.34.27-.52-1.32,1.58-1.85,10-1.84,15.28-3.42,13.44-6.33,17.13-7.12,12.64-1.84,17.38-2.89,45.84-9.75,51.9-9.75a92.16,92.16,0,0,1,14.23,1.58s15.28-1.85,19.49-1.85a132,132,0,0,0,13.17-1.31s5.54-7.91,10-9,16.33-20.81,20.54-22.66S290.13,218.41,290.13,218.41Z" style="fill:#fff;stroke:#263238;stroke-linecap:round;stroke-linejoin:round"></path><path d="M247.45,222.22c1.48,2,.25,5.4-2.73,7.59s-6.59,2.34-8.06.34-.25-5.4,2.73-7.6S246,220.21,247.45,222.22Z" style="fill:#fff;stroke:#263238;stroke-linecap:round;stroke-linejoin:round"></path><path d="M244.18,224.43c.94,1.27.16,3.44-1.74,4.83s-4.2,1.49-5.14.22-.16-3.44,1.74-4.84S243.24,223.15,244.18,224.43Z" style="fill:#263238;stroke:#263238;stroke-linecap:round;stroke-linejoin:round"></path><path d="M281.44,245.81l-6.85-6.33s-5.8,7.64-8.69,8.17-6.06-2.11-11.07-5.53-5.53-5.27-5.53-5.27a29,29,0,0,1-5,0c-2.1-.27-.79-8.7-.79-8.7a14.12,14.12,0,0,0-2.63-3.42c-1.32-1-1.85-6.59-1.05-10.8s1.31-9.49,10.8-14.75,21.86-1.32,21.86-1.32,7.91,1.84,9.22,6.32.79,5.8.79,5.8l13.18,10" style="fill:#fff;stroke:#263238;stroke-linecap:round;stroke-linejoin:round"></path><polygon points="274.59 239.48 278.33 235.22 279.14 242.95 274.59 239.48" style="fill:#263238;stroke:#263238;stroke-linecap:round;stroke-linejoin:round"></polygon><path d="M275.87,231.09c-.58,1.38-1,2.33-1,2.33" style="fill:none;stroke:#263238;stroke-linecap:round;stroke-linejoin:round"></path><path d="M269.06,209.71s0-6.85,3.42-6.32,4.74,7.38,4.22,9.22a2.74,2.74,0,0,1-1.85,2.11s4.22,4.48,3.69,8.17a29.26,29.26,0,0,1-1.5,5.24" style="fill:none;stroke:#263238;stroke-linecap:round;stroke-linejoin:round"></path><path d="M254,236.58s3.43-.79,6.06-5" style="fill:none;stroke:#263238;stroke-linecap:round;stroke-linejoin:round"></path><path d="M282.15,205.89q-.16-.76-.45-1.71c-1.31-4.48-9.22-6.32-9.22-6.32s-12.38-4-21.86,1.32-10,10.53-10.8,14.75a24.24,24.24,0,0,0-.31,6,48.43,48.43,0,0,1,17.43-9.44A141.49,141.49,0,0,1,282.15,205.89Z" style="fill:#2C7DA0;stroke:#263238;stroke-linecap:round;stroke-linejoin:round"></path><path d="M240.75,224.12a10.14,10.14,0,0,1,3.35-2.84s1.29,1.29,2.45,2.32a7.76,7.76,0,0,0-3.87,3A3.56,3.56,0,0,1,240.75,224.12Z" style="fill:#fff;stroke:#263238;stroke-linecap:round;stroke-linejoin:round"></path><path d="M257.65,213.68c1.53,2.39-.11,6.17-3.67,8.45s-7.67,2.18-9.2-.21.11-6.17,3.67-8.45S256.12,211.29,257.65,213.68Z" style="fill:#fff;stroke:#263238;stroke-linecap:round;stroke-linejoin:round"></path><path d="M253.76,216c1,1.53-.07,3.94-2.34,5.38s-4.88,1.39-5.86-.13.07-3.93,2.34-5.38S252.79,214.43,253.76,216Z" style="fill:#263238;stroke:#263238;stroke-linecap:round;stroke-linejoin:round"></path><path d="M253.76,211.74s10.29-11,26.1-11l1.58,2.1s-8.6-1.17-23.79,10.82Z" style="fill:#fff;stroke:#263238;stroke-linecap:round;stroke-linejoin:round"></path><line x1="350.99" y1="219.46" x2="342.56" y2="221.31" style="fill:none;stroke:#263238;stroke-linecap:round;stroke-linejoin:round"></line><path d="M442.72,235.64c-5.81-1.65-11.24-2.74-15.6-2.74-16.33,0-41.09,7.9-41.09,7.9s6.85,13.7,6.32,23.71-14,21.34-17.65,23.45c-.05,0-.08.07-.13.1,5.05,1.77,12.51,4.44,18,6.22,6.68,2.14,22.41,4.72,42.72,4.22l.22-.27s-2.37-2.63-.52-12.12,3.68-10.8,3.68-10.8-9.22-9-4.74-24.5A34.65,34.65,0,0,1,442.72,235.64Z" style="fill:#263238;stroke:#263238;stroke-linecap:round;stroke-linejoin:round"></path><line x1="290.44" y1="246.92" x2="293.03" y2="246.6" style="fill:none;stroke:#263238;stroke-linecap:round;stroke-linejoin:round"></line><line x1="276.43" y1="248.7" x2="287.29" y2="247.32" style="fill:none;stroke:#263238;stroke-linecap:round;stroke-linejoin:round"></line><line x1="305.41" y1="235.79" x2="315.16" y2="219.46" style="fill:none;stroke:#263238;stroke-linecap:round;stroke-linejoin:round"></line><path d="M341.38,240c-.12.69-.25,1.32-.4,1.87" style="fill:none;stroke:#263238;stroke-linecap:round;stroke-linejoin:round"></path><path d="M342,217.09a172.92,172.92,0,0,1-.3,20.25" style="fill:none;stroke:#263238;stroke-linecap:round;stroke-linejoin:round"></path><path d="M309.63,253.18a43.45,43.45,0,0,0,18.7,6.59" style="fill:none;stroke:#263238;stroke-linecap:round;stroke-linejoin:round"></path><path d="M305.06,273.36a12.4,12.4,0,0,0,2.58-1.35" style="fill:none;stroke:#263238;stroke-linecap:round;stroke-linejoin:round"></path><path d="M266.69,262.67s8.43,8.16,23.18,11.59a38.57,38.57,0,0,0,10.11.31" style="fill:none;stroke:#263238;stroke-linecap:round;stroke-linejoin:round"></path><path d="M248.27,272.33l-2.66.35" style="fill:none;stroke:#263238;stroke-linecap:round;stroke-linejoin:round"></path><path d="M272,267.14A141.26,141.26,0,0,1,252,271.76" style="fill:none;stroke:#263238;stroke-linecap:round;stroke-linejoin:round"></path><path d="M221.64,254.5s-10,3.42-7.64,8.17" style="fill:none;stroke:#263238;stroke-linecap:round;stroke-linejoin:round"></path><path d="M441.35,275.57a236.88,236.88,0,0,0,34,2.38c16.6-.27,35.88-1.16,38.25-1.43s8.38-.16,8.38-.16" style="fill:none;stroke:#263238;stroke-linecap:round;stroke-linejoin:round"></path><path d="M353.36,194.17s6.2-.15,9.14,2.8" style="fill:none;stroke:#263238;stroke-linecap:round;stroke-linejoin:round"></path><path d="M391.11,201.22a8.42,8.42,0,0,1-1.64-1.8" style="fill:none;stroke:#263238;stroke-linecap:round;stroke-linejoin:round"></path><path d="M397.88,204.71a24.22,24.22,0,0,1-4.56-2" style="fill:none;stroke:#263238;stroke-linecap:round;stroke-linejoin:round"></path><polyline points="498.51 190.75 491 192.55 485.61 192.55" style="fill:none;stroke:#263238;stroke-linecap:round;stroke-linejoin:round"></polyline><path d="M505.36,192.06s-4.3,1.47-7,2.7-12,2.21-12,2.21" style="fill:none;stroke:#263238;stroke-linecap:round;stroke-linejoin:round"></path><path d="M380.33,272.11c.7,0,1.44,0,2.21-.1" style="fill:none;stroke:#263238;stroke-linecap:round;stroke-linejoin:round"></path><path d="M346.55,267.15s7.78,1.94,12.65,2.91a81.67,81.67,0,0,0,12.64,1,20.52,20.52,0,0,0,4.71.92" style="fill:none;stroke:#263238;stroke-linecap:round;stroke-linejoin:round"></path><path d="M383.89,256.85a12.72,12.72,0,0,1,1.08,2" style="fill:none;stroke:#263238;stroke-linecap:round;stroke-linejoin:round"></path><path d="M366,246.23s10.92,2.47,16.57,8.9" style="fill:none;stroke:#263238;stroke-linecap:round;stroke-linejoin:round"></path><path d="M507.6,284.12a17,17,0,0,1,3-1.17c-1.15.48-2,.85-2.57,1.05A2.29,2.29,0,0,1,507.6,284.12Z" style="fill:#fff;opacity:0.7000000000000001"></path></g><g id="freepik--water-1--inject-84"><path d="M55.15,246.88c-5.43.1-11.16.16-17.27.16" style="fill:none;stroke:#263238;stroke-linecap:round;stroke-linejoin:round"></path><path d="M651.48,249a206.43,206.43,0,0,0-28.83-.18c-78.94,5.32-64,4.45-153.75,4.45s-89.81-5.33-138.64-10.67-63.1,1.78-97.75.89-48.88-8-88-3.55c-31,3.52-52.53,5.93-81.84,6.77" style="fill:none;stroke:#263238;stroke-linecap:round;stroke-linejoin:round"></path><path d="M716.24,262a271.3,271.3,0,0,0-58.82-12.47" style="fill:none;stroke:#263238;stroke-linecap:round;stroke-linejoin:round"></path><path d="M559.84,269.42c3.47-.26,7.16-.61,11.1-1.05,57.69-6.41,78.12-16.86,105.41-12.82,33,4.9,38.46,15,38.46,15" style="fill:none;stroke:#263238;stroke-linecap:round;stroke-linejoin:round"></path><path d="M76.43,264.3A193.69,193.69,0,0,0,125.78,257c55.55-15.67,85.81-13.1,118.23-10.69s78.35,18.52,116.1,16.39,89.74-12.11,119-6.42c25.83,5.05,32.71,15.66,73.88,13.61" style="fill:none;stroke:#263238;stroke-linecap:round;stroke-linejoin:round"></path><path d="M28.91,258.4s16.75,5.78,43.26,5.93" style="fill:none;stroke:#263238;stroke-linecap:round;stroke-linejoin:round"></path></g></svg>
