<svg xmlns="http://www.w3.org/2000/svg" xmlns:xlink="http://www.w3.org/1999/xlink" viewBox="0 0 500 500"><defs><clipPath id="freepik--clip-path--inject-353"><path d="M171.72,156.62c-2.34-12-10.31-13.56-12.12-14.13-12.47-3.93-21-4.59-30.86-.27-11.55,5.08-13.87,5.26-17.43,18.44-2,7.21,1.93,31.49,4.27,42.06,1.87,8.41,1.4,30.2,5,33.69,6.68,6.47,16.15,5.54,25.31,3.92,7.93-1.41,21.17-3.29,24.18-10.76.43-1.07.39-5.59.24-12.11-.48-19.73.84-31.05.64-43.68l2.68-1.24S173.86,167.55,171.72,156.62Z" style="fill:#2C7DA0;stroke:#263238;stroke-miterlimit:10"></path></clipPath></defs><g id="freepik--background-simple--inject-353"><path d="M291.77,48.17c-44.3-.48-88.63,11.38-128.18,31.36S89.55,131,70.44,171s-21.55,88.63-2.16,128.47c7.27,14.93,18.25,29.1,33.77,35,19.85,7.54,41.85.08,63.06-.71,28.75-1.06,56.47,10.33,82,23.63s50.17,28.86,77.68,37.27,59.24,8.73,83.15-7.26c22.57-15.09,34.54-42.42,37.4-69.42s-2.2-54.13-7.23-80.81C432.83,209.3,407.33,49.41,291.77,48.17Z" style="fill:#2C7DA0"></path><g style="opacity:0.7000000000000001"><path d="M291.77,48.17c-44.3-.48-88.63,11.38-128.18,31.36S89.55,131,70.44,171s-21.55,88.63-2.16,128.47c7.27,14.93,18.25,29.1,33.77,35,19.85,7.54,41.85.08,63.06-.71,28.75-1.06,56.47,10.33,82,23.63s50.17,28.86,77.68,37.27,59.24,8.73,83.15-7.26c22.57-15.09,34.54-42.42,37.4-69.42s-2.2-54.13-7.23-80.81C432.83,209.3,407.33,49.41,291.77,48.17Z" style="fill:#fff"></path></g></g><g id="freepik--Shadow--inject-353"><ellipse cx="251.8" cy="436.78" rx="144" ry="13.78" style="fill:#2C7DA0"></ellipse><ellipse cx="251.8" cy="436.78" rx="144" ry="13.78" style="fill:#fff;opacity:0.5"></ellipse></g><g id="freepik--Note--inject-353"><rect x="164.95" y="89.61" width="192" height="255.21" style="fill:#fff"></rect><path d="M357,345.32H165a.5.5,0,0,1-.5-.5V89.61a.5.5,0,0,1,.5-.5H357a.5.5,0,0,1,.5.5V344.82A.5.5,0,0,1,357,345.32Zm-191.5-1h191V90.11h-191Z" style="fill:#263238"></path><rect x="185.98" y="221.11" width="146.14" height="6" style="fill:#263238"></rect><rect x="213.07" y="145.54" width="119.05" height="6" style="fill:#263238"></rect><rect x="185.98" y="183.33" width="146.14" height="6" style="fill:#263238"></rect><path d="M294.57,296.67q-2.79,3-5.7,6H186v-6Z" style="fill:#263238"></path><path d="M323.28,258.89c-1.28,2-2.59,4-3.95,6H186v-6Z" style="fill:#263238"></path><path d="M237.66,337.93s-8.54,4.15-32.46,6.39H165.45" style="fill:none;stroke:#263238;stroke-linecap:round;stroke-linejoin:round"></path><path d="M352.79,199h0a15.84,15.84,0,0,0,2.6-7.43c.3-3.34.52-7.23.59-9.6l.38-13.09V197Z" style="fill:#263238"></path><path d="M355.24,195.84c0,1.22-11.18,30.7-32,63-1.28,2-2.59,4-3.95,6a273.46,273.46,0,0,1-24.76,31.78q-2.79,3-5.7,6c-14.65,14.86-31.53,27.51-50.44,34.76,1.08-.55,17.55-8.86,21.14-34.76q.4-2.85.57-6c.48-8.76-.46-19.26-3.64-31.78q-.74-2.92-1.65-6c-4.62-15.61-12.56-34.11-25.21-56l-3.26-7.1,21.3,6c95.13,22.09,107.55-6,107.55-6S355.24,195.82,355.24,195.84Z" style="fill:#fff;stroke:#263238;stroke-linecap:round;stroke-linejoin:round"></path><path d="M273.39,284.83a44.17,44.17,0,0,1-.12,5.31" style="fill:#fff;stroke:#263238;stroke-linecap:round;stroke-linejoin:round"></path><path d="M250.51,216.74c13.82,17.9,20.79,48.15,22.61,62.5" style="fill:#fff;stroke:#263238;stroke-linecap:round;stroke-linejoin:round"></path><path d="M188.12,117.43a10.06,10.06,0,1,1,0-20.11,1.5,1.5,0,0,1,0,3,7.06,7.06,0,1,0,7,7.06,1.5,1.5,0,1,1,3,0A10.06,10.06,0,0,1,188.12,117.43Z" style="fill:#263238"></path><path d="M187.88,113.28c-9.19,0-9.69-19.86-9.7-23.84v-.12c0-4,.47-24,9.7-24s9.87,21.54,9.92,24l-8,.15a48.88,48.88,0,0,0-2-13.67,48.42,48.42,0,0,0-1.64,13.48v.12a47.45,47.45,0,0,0,1.7,13.54c.09-.29.18-.61.28-1l.63-2.17,5.58,1.63a2.19,2.19,0,0,1,1.49,2.72h0C194.22,110.19,191.53,113.28,187.88,113.28Z" style="fill:#bfbfbf;stroke:#263238;stroke-linecap:round;stroke-linejoin:round"></path><path d="M196.67,108.88a1.5,1.5,0,0,1-1.5-1.5,7.06,7.06,0,0,0-7-7.06,1.5,1.5,0,0,1,0-3,10.07,10.07,0,0,1,10,10.06A1.5,1.5,0,0,1,196.67,108.88Z" style="fill:#263238"></path><path d="M235.52,117.43a10.06,10.06,0,0,1,0-20.11,1.5,1.5,0,1,1,0,3,7.06,7.06,0,1,0,7.06,7.06,1.5,1.5,0,0,1,3,0A10.07,10.07,0,0,1,235.52,117.43Z" style="fill:#263238"></path><path d="M235.29,113.28c-9.19,0-9.7-19.86-9.7-23.84v-.12c0-4,.46-24,9.7-24s9.87,21.54,9.92,24l-8,.15a48.81,48.81,0,0,0-2-13.67,48.5,48.5,0,0,0-1.63,13.48v.12A47.89,47.89,0,0,0,235.28,103c.1-.29.19-.61.29-1l.63-2.17,5.58,1.63a2.19,2.19,0,0,1,1.49,2.72h0C241.63,110.19,238.94,113.28,235.29,113.28Z" style="fill:#bfbfbf;stroke:#263238;stroke-linecap:round;stroke-linejoin:round"></path><path d="M244.08,108.88a1.5,1.5,0,0,1-1.5-1.5,7.07,7.07,0,0,0-7.06-7.06,1.5,1.5,0,0,1,0-3,10.07,10.07,0,0,1,10.06,10.06A1.5,1.5,0,0,1,244.08,108.88Z" style="fill:#263238"></path><path d="M282.93,117.43a10.06,10.06,0,0,1,0-20.11,1.5,1.5,0,0,1,0,3,7.06,7.06,0,1,0,7.06,7.06,1.5,1.5,0,0,1,3,0A10.07,10.07,0,0,1,282.93,117.43Z" style="fill:#263238"></path><path d="M282.69,113.28c-9.19,0-9.69-19.86-9.7-23.84v-.12c0-4,.47-24,9.7-24s9.88,21.54,9.92,24l-8,.15a48.88,48.88,0,0,0-2-13.67A48.42,48.42,0,0,0,281,89.32v.12a47.45,47.45,0,0,0,1.7,13.54c.09-.29.19-.61.28-1l.64-2.17,5.57,1.63a2.19,2.19,0,0,1,1.49,2.72h0C289,110.19,286.35,113.28,282.69,113.28Z" style="fill:#bfbfbf;stroke:#263238;stroke-linecap:round;stroke-linejoin:round"></path><path d="M291.49,108.88a1.5,1.5,0,0,1-1.5-1.5,7.07,7.07,0,0,0-7.06-7.06,1.5,1.5,0,0,1,0-3A10.07,10.07,0,0,1,293,107.38,1.51,1.51,0,0,1,291.49,108.88Z" style="fill:#263238"></path><path d="M330.34,117.43a10.06,10.06,0,1,1,0-20.11,1.5,1.5,0,0,1,0,3,7.06,7.06,0,1,0,7.05,7.06,1.5,1.5,0,0,1,3,0A10.06,10.06,0,0,1,330.34,117.43Z" style="fill:#263238"></path><path d="M330.1,113.28c-9.19,0-9.69-19.86-9.7-23.84v-.12c0-4,.47-24,9.7-24S340,86.9,340,89.36l-8,.15a49.26,49.26,0,0,0-2-13.67,48,48,0,0,0-1.64,13.48v.12A47.89,47.89,0,0,0,330.09,103c.1-.29.19-.61.29-1l.63-2.17,5.58,1.63a2.19,2.19,0,0,1,1.49,2.72h0C336.44,110.19,333.75,113.28,330.1,113.28Z" style="fill:#bfbfbf;stroke:#263238;stroke-linecap:round;stroke-linejoin:round"></path><path d="M338.89,108.88a1.5,1.5,0,0,1-1.5-1.5,7.06,7.06,0,0,0-7.05-7.06,1.5,1.5,0,0,1,0-3,10.07,10.07,0,0,1,10.05,10.06A1.5,1.5,0,0,1,338.89,108.88Z" style="fill:#263238"></path></g><g id="freepik--Graphic--inject-353"><circle cx="345.96" cy="333.53" r="37.53" transform="translate(-56.63 595.93) rotate(-77.05)" style="fill:#2C7DA0;stroke:#263238;stroke-miterlimit:10"></circle><path d="M367.85,333.53a3.49,3.49,0,0,1-3.5,3.5H349.46v14.9a3.5,3.5,0,0,1-7,0V337H327.57a3.5,3.5,0,1,1,0-7h14.89V315.14a3.5,3.5,0,0,1,7,0V330h14.89A3.5,3.5,0,0,1,367.85,333.53Z" style="fill:#fff"></path></g><g id="freepik--Character--inject-353"><path d="M166,210.8s3.08,17.7,2.49,19.9a8.3,8.3,0,0,1-3,3.86l6.9,16.4V238.13s1.9-29.7,2.13-43a184.38,184.38,0,0,0-.77-19.78l-3.27.53S166.73,203.67,166,210.8Z" style="fill:#fff;stroke:#263238;stroke-linecap:round;stroke-linejoin:round"></path><path d="M151.58,425.92l-1.92-14.12-12.75-1,1.49,15.43A10.18,10.18,0,0,0,151.58,425.92Z" style="fill:#fff;stroke:#263238;stroke-linecap:round;stroke-linejoin:round"></path><path d="M137.57,424.44c-.42,3.48-.83,7.14.17,10.47s3.93,6.14,6.81,5.32c.66-.18,1.29-.55,2-.67,1.28-.22,2.54.46,3.74,1.05,7.28,3.59,26.26,2.05,27.76,1.26a2.73,2.73,0,0,0-.36-4.86c-8.71-4.13-8.15-3.09-22.53-11.24-2.58-1.46-4.11-.76-5.41.58a7.66,7.66,0,0,1-12.14-1.91Z" style="fill:#263238"></path><path d="M150.74,394c-6.51,8.09-14.66,18.45-14.66,18.45l-5.88-12.66s13.66-16.22,20.67-33.33c0,3.35.27,7,.36,9.09C151.47,381.87,150.84,387.71,150.74,394Z" style="fill:#263238"></path><path d="M136.92,428.27a2.35,2.35,0,0,1-.6,1.44c-1.12,1-2.36-.81-3.3-2a98.34,98.34,0,0,1-7.79-12.11l-.73-6.51-2.14.89-.27,0-.62-1.09c-4.74-8.28.92-9.89,6.95-9.62.69,0,2.13.18,4.45,4.63a28.27,28.27,0,0,1,1.67,3.19A40.11,40.11,0,0,1,136.92,428.27Z" style="fill:#263238"></path><path d="M174.15,257.87a102.13,102.13,0,0,1-.1-10.79,18.2,18.2,0,0,0-6.84-14.65s-5.24,7-20.21,7h-.75a71.16,71.16,0,0,1-19.64-3.26,72.23,72.23,0,0,1-7.92-3s.3,20,.93,38.59c.54,14.75,4.34,81,6.74,102.08,2,17.56,7.94,34.9,8.65,42.39.34,3.53,8.31,2.43,12.12,1.07,5-1.79,5.35-2.85,5.35-2.85.33-5.44-1.12-15-1-20.41,13.64-17,34.86-43.9,35.46-48.05C191.57,313.75,174.65,261.21,174.15,257.87Zm-13.05,83c-.35,2.18-4.88,13.6-10,26.07,0-5.52,2.44-11.27,3.16-20.18,1.37-17.14-2.11-36-1.62-49.77C155.41,308.83,161.74,336.78,161.1,340.83Z" style="fill:#263238"></path><path d="M182.51,351.06a20.49,20.49,0,0,1-7.48,4.05" style="fill:none;stroke:#bfbfbf;stroke-linecap:round;stroke-linejoin:round"></path><path d="M185.57,347.83a19.48,19.48,0,0,1-1.38,1.63" style="fill:none;stroke:#bfbfbf;stroke-linecap:round;stroke-linejoin:round"></path><path d="M155.73,245.52c1.37,7.29,1.59,17.14-1.4,23.92a16.38,16.38,0,0,1-2.65,3.16" style="fill:none;stroke:#bfbfbf;stroke-linecap:round;stroke-linejoin:round"></path><path d="M132.11,244.74c-.81,3.5-2.27,9.27-4.17,12.32a13.78,13.78,0,0,1-8.33,6.4" style="fill:none;stroke:#bfbfbf;stroke-linecap:round;stroke-linejoin:round"></path><path d="M150.57,252.12c1.05,11.82,1,23.29,2.13,43.16" style="fill:none;stroke:#bfbfbf;stroke-linecap:round;stroke-linejoin:round"></path><path d="M149.93,246c.11.94.22,1.87.32,2.79" style="fill:none;stroke:#fff;stroke-linecap:round;stroke-linejoin:round"></path><path d="M161.15,337.64a51.33,51.33,0,0,0,4.09,14.09" style="fill:none;stroke:#bfbfbf;stroke-linecap:round;stroke-linejoin:round"></path><path d="M162,342.22A58.07,58.07,0,0,0,163.13,363" style="fill:none;stroke:#bfbfbf;stroke-linecap:round;stroke-linejoin:round"></path><path d="M122.69,262.26c1.83,27.26,4.37,48,6.4,68.7" style="fill:none;stroke:#bfbfbf;stroke-linecap:round;stroke-linejoin:round"></path><path d="M129.16,338.15c0-.85,0-1.72,0-2.59" style="fill:none;stroke:#bfbfbf;stroke-linecap:round;stroke-linejoin:round"></path><path d="M140.86,418.12c-1.41-4.37-11.15-38-11.61-51.95-.31-9.25-.68-15.84-.21-24.78" style="fill:none;stroke:#bfbfbf;stroke-linecap:round;stroke-linejoin:round"></path><line x1="151.91" y1="363.79" x2="151.56" y2="393.9" style="fill:none;stroke:#bfbfbf;stroke-linecap:round;stroke-linejoin:round"></line><path d="M171.72,156.62c-2.34-12-10.31-13.56-12.12-14.13-12.47-3.93-21-4.59-30.86-.27-11.55,5.08-13.87,5.26-17.43,18.44-2,7.21,1.93,31.49,4.27,42.06,1.87,8.41,1.4,30.2,5,33.69,6.68,6.47,16.15,5.54,25.31,3.92,7.93-1.41,21.17-3.29,24.18-10.76.43-1.07.39-5.59.24-12.11-.48-19.73.84-31.05.64-43.68l2.68-1.24S173.86,167.55,171.72,156.62Z" style="fill:#2C7DA0"></path><g style="clip-path:url(#freepik--clip-path--inject-353)"><path d="M114,182.28c.35,4.08-1,8.46.77,12.13a5.76,5.76,0,0,0,5.43,3.4c1.42-.15,2.76-1,4.18-.84,1.82.19,3.07,1.86,4.14,3.35a32.8,32.8,0,0,0,8.45,8.84c3.43,2.25,7.79,3.38,11.72,2.2a38,38,0,0,1-3.5,4.83c2.18-.81,7-4.32,11.22-4.34l13.47-.09c.87-2.82-1.15-5.91-3.83-7.16s-5.78-1.09-8.71-.69-5.89,1-8.81.6a16.81,16.81,0,0,1-9.94-5.93,50.35,50.35,0,0,1-6.27-10c-.73,1.38-2.75,1.55-4.11.8a10.53,10.53,0,0,1-3.14-3.39c-2.67-3.77-7.78-10.05-12.49-11.07C111.8,176.93,113.81,180.06,114,182.28Z" style="opacity:0.2"></path><path d="M155.41,202.31c5.22-2,8.72-7.18,10.23-12.58.9-3.26,2.93-12.21.67-15-1.69,4.69-2.86,9.55-4.69,14.21-.94,2.38-1.94,4.73-3,7C158.08,197.05,156.51,201.88,155.41,202.31Z" style="opacity:0.2"></path><path d="M117.7,217.53c3.35,8.07,11.07,13.8,19.45,16.27s18.14,2.38,26.73.76c-11.07,6.27-25.75,6.88-37.6,2.25-2.13-.83-4.25.13-5.82-1.54-3.6-3.82-3.44-11.72-3-17l-2,.09" style="opacity:0.2"></path><path d="M139.73,154.4a3,3,0,0,0,1.6,1.2,2.21,2.21,0,0,0,2-.89,12.7,12.7,0,0,0,1.18-2,9,9,0,0,1,4.21-3.82A17.33,17.33,0,0,0,153,155l.62,0a13.09,13.09,0,0,0,.79-7.37,2.33,2.33,0,0,1-1.21,1.48,11.1,11.1,0,0,0-1.84-2.78,3.76,3.76,0,0,0-3-1.2,4.39,4.39,0,0,0-1.35.45c-2.78,1.35-4.74,4-6.21,6.67a65.72,65.72,0,0,0-6.45-4.18C136,150.21,137.92,152.28,139.73,154.4Z" style="opacity:0.2"></path></g><path d="M171.72,156.62c-2.34-12-10.31-13.56-12.12-14.13-12.47-3.93-21-4.59-30.86-.27-11.55,5.08-13.87,5.26-17.43,18.44-2,7.21,1.93,31.49,4.27,42.06,1.87,8.41,1.4,30.2,5,33.69,6.68,6.47,16.15,5.54,25.31,3.92,7.93-1.41,21.17-3.29,24.18-10.76.43-1.07.39-5.59.24-12.11-.48-19.73.84-31.05.64-43.68l2.68-1.24S173.86,167.55,171.72,156.62Z" style="fill:none;stroke:#263238;stroke-miterlimit:10"></path><g id="freepik--freepik--character-2--inject-97--inject-353"><path d="M151.24,139.83a7.34,7.34,0,0,0,6.88-4.81c1.44-4,2.11-16.74,2.11-19.06s-1.83-7-2.2-9.66-2-8.2-2-8.2l-4.85-4.68-6.67,2.82-9.44,1.25s-1.76,15.31-4.17,12.85-9.69.7-9.24,6.5,7.87,5.72,7.87,5.72,1.84,1.81,2.94,7.84a32.54,32.54,0,0,1,.07,11.35,11.08,11.08,0,0,0,10,4c6.39-.81,7-5.15,7-5.15S149.62,139.87,151.24,139.83Z" style="fill:#fff"></path><path d="M129.64,114.09c-1.42-2-6.52-5.24-7.76,1.54s5.53,6.35,9.08,7.19c2.66,4.43,8,11.87,12.5,14.2,2.79,1.45,6.28,3.13,9.57,2.75s4.6-2.35,5.24-5.46A87.12,87.12,0,0,0,160,121.64c.16-2.71.63-6.34-.47-8.91-1.58-3.71-1.24-8-2.45-11.79s-4.49-6.57-7.53-9" style="fill:none;stroke:#263238;stroke-linecap:round;stroke-linejoin:round"></path><path d="M141.83,111.61c2.08-1.29,3.89-1.85,5.64,0,.49,0,1.62-2,1.62-2a4,4,0,0,0-4.38-1.25C141.66,109.1,141.83,111.61,141.83,111.61Z" style="fill:#263238"></path><path d="M146.46,126.66c1.43,2.06,2.95,2.69,5.63,2.46" style="fill:none;stroke:#263238;stroke-linecap:round;stroke-linejoin:round"></path><path d="M145.43,114.77c.46,0,.91.69,1,1.64s-.23,1.75-.7,1.78-.91-.7-1-1.64S145,114.81,145.43,114.77Z" style="fill:#263238"></path><path d="M155.57,113.43c.48,0,.93.68,1,1.63s-.22,1.76-.7,1.8-.92-.7-1-1.64S155.1,113.48,155.57,113.43Z" style="fill:#263238"></path><path d="M154.45,110.51s2.3-1.12,3.22-.31c0,0,.66-2.29-1.08-2.82a1.9,1.9,0,0,0-2.4.85l.07,2.47Z" style="fill:#263238"></path><path d="M149.68,139.63c.06,0-.43,3.81-2,4.88a5.71,5.71,0,0,1-3.8,1.42c-3.23.28-9.62-1.41-11.31-4.18a22.24,22.24,0,0,0,.29-8.33,53.76,53.76,0,0,0-1.94-10.6S139.29,138.39,149.68,139.63Z" style="fill:none;stroke:#263238;stroke-linecap:round;stroke-linejoin:round"></path><path d="M133.34,138.88c-2.2.52-4,.64-4.48,2.15-.32,1,.41,1.88,1.19,2.71a46,46,0,0,0,11.08,8.45,31.33,31.33,0,0,1,6.55-7.15,35.17,35.17,0,0,1-13.25-5.55Z" style="fill:#fff;stroke:#263238;stroke-linecap:round;stroke-linejoin:round"></path><path d="M149.74,139.93a4.11,4.11,0,0,1,3.27,1.75c.94,1.07,1.7,5.46.74,8.25-2.14-2.48-3.46-6.23-6.55-5.26C149.62,143.91,149.74,139.93,149.74,139.93Z" style="fill:#fff;stroke:#263238;stroke-linecap:round;stroke-linejoin:round"></path><path d="M133,126s4.06,14.94,8.67,16.36a7.33,7.33,0,0,0,7.59-2.33C140.75,137.25,133,126,133,126Z" style="fill:#263238"></path><path d="M136.85,108.8c-2.81,1.71-4.75,6.83-2.73,9.51s-.06,4.27-1,5.18a37.61,37.61,0,0,1-1.87-4.41c-.61-1.78-.55-3.34-1.55-4.93-.55-.88-3.09-2.29-4.1-2.56-1.49-.4-3,1.21-3.48,2.68a9.14,9.14,0,0,0,.14,4.58c-2-2.15-2.16-2.75-2.36-5.65a39.29,39.29,0,0,0-.22-4.74c-.32-1.64-1.15-3.16-1.37-4.81-.38-2.91,1.17-5.68,2.67-8.2a25.79,25.79,0,0,1,5.07-6.72,21.14,21.14,0,0,1,6.34-3.42c5.12-1.93,10.66-3.15,16.07-2.33s10.68,4,13,8.9a7.79,7.79,0,0,1,.75,5.38,5.39,5.39,0,0,1-9.13,2.2,5,5,0,0,0,3.33-.32,3.17,3.17,0,0,0,1.77-2.72,2.61,2.61,0,0,0-3.16-2.4,2.44,2.44,0,0,0-1.17,3.7l-1.73-.87L151.93,98l-2-1.41-.15,1c-.92-.37-7.38,0-9.59.24a17.35,17.35,0,0,0-3.27.64c-1.2.36-1.54.48-1.76,1.74C134.54,103.84,133.77,106.77,136.85,108.8Z" style="fill:#263238"></path><path d="M137.62,90.9a1.66,1.66,0,0,0,.22,2.62" style="fill:none;stroke:#bfbfbf;stroke-linecap:round;stroke-linejoin:round"></path><path d="M139.65,91.34a1.12,1.12,0,0,0,0,1.26" style="fill:none;stroke:#bfbfbf;stroke-linecap:round;stroke-linejoin:round"></path><path d="M141.74,91.33c-.11.41-.23.83-.35,1.24" style="fill:none;stroke:#bfbfbf;stroke-linecap:round;stroke-linejoin:round"></path><path d="M147,90.31a2.52,2.52,0,0,0-.9,2.68" style="fill:none;stroke:#bfbfbf;stroke-linecap:round;stroke-linejoin:round"></path><path d="M148.38,93.19a2.61,2.61,0,0,1,2.06-2.82" style="fill:none;stroke:#bfbfbf;stroke-linecap:round;stroke-linejoin:round"></path><path d="M150.29,93.4a5.38,5.38,0,0,1,4.8-3.05" style="fill:none;stroke:#bfbfbf;stroke-linecap:round;stroke-linejoin:round"></path><path d="M151.94,94.28a4.41,4.41,0,0,1,7-.83" style="fill:none;stroke:#bfbfbf;stroke-linecap:round;stroke-linejoin:round"></path><path d="M132.14,92.81a1.63,1.63,0,0,0,.72,2.41" style="fill:none;stroke:#bfbfbf;stroke-linecap:round;stroke-linejoin:round"></path><path d="M135.13,89.81a4.56,4.56,0,0,0,1.17,6" style="fill:none;stroke:#bfbfbf;stroke-linecap:round;stroke-linejoin:round"></path><path d="M129.58,94.5a1.14,1.14,0,0,0,1,1.49" style="fill:none;stroke:#bfbfbf;stroke-linecap:round;stroke-linejoin:round"></path><path d="M127.3,95.92a.9.9,0,0,0,.58,1.08" style="fill:none;stroke:#bfbfbf;stroke-linecap:round;stroke-linejoin:round"></path><path d="M125.28,97.34a.46.46,0,0,0,.34.61" style="fill:none;stroke:#bfbfbf;stroke-linecap:round;stroke-linejoin:round"></path></g><path d="M166.88,171.59c.49,17.19-1.57,35.17-22,44.68" style="fill:none;stroke:#263238;stroke-linecap:round;stroke-linejoin:round"></path><path d="M136.51,224.11a70.49,70.49,0,0,0,27.35,1.94" style="fill:none;stroke:#263238;stroke-linecap:round;stroke-linejoin:round"></path><path d="M129.46,221.78c1.17.45,2.35.88,3.54,1.27" style="fill:none;stroke:#263238;stroke-linecap:round;stroke-linejoin:round"></path><path d="M237.3,198.8A2.65,2.65,0,0,0,234,196c0,.1-.22.13-.2.22a5.77,5.77,0,0,1,1.76,2.3C236.14,198.56,236.72,198.78,237.3,198.8Z" style="fill:none;stroke:#263238;stroke-linecap:round;stroke-linejoin:round"></path><path d="M236.24,200.57a19.56,19.56,0,0,0-2.75-5.19c-3.67-2.82-2.07-3.73-9.18-5,0,.08-13.74,3.55-21.22,7,0,0-49.19-5.82-49.19-6.29l-7.6-10-21.39,3.33s11.41,18.53,20,23.28c0,0,41-1,54.3-1.07,7.23,0,11.29,3.68,18.4-4.27,0,0,3.88,3.83,6.19,2.73,1.52-.42-3.42-4.58-5.11-5.94.54.31,8.14,5.56,12.37,5.71a.91.91,0,0,0,.53-1.68s-10.52-5.9-10-6.65c0,0,5.83,2.1,6.76,3.39,3.89,5.34,6.52,3.47,6.89,3.15.76-.66-.3-1.26-.3-1.88C234.86,201.2,236.42,201.65,236.24,200.57Z" style="fill:#fff;stroke:#263238;stroke-linecap:round;stroke-linejoin:round"></path><path d="M225.19,193.93c2.08.82,5,2.12,6.39,3.87,2.7,3.4,3.28,3.4,3.28,3.4" style="fill:none;stroke:#263238;stroke-linecap:round;stroke-linejoin:round"></path><path d="M116.24,149.2s-6.62,6-4.75,21.86c1,8.08,10.69,21.5,10.69,21.5l26.37-8.37s-6.23-14.08-12.83-23.59" style="fill:none;stroke:#263238;stroke-miterlimit:10"></path><path d="M140,160.31a35.48,35.48,0,0,1,2.89,12.47" style="fill:none;stroke:#263238;stroke-linecap:round;stroke-linejoin:round"></path><path d="M154.86,109.92c0,.06-2.56,4-1.76,5.1,3.18,4.18,3.62,9.12,2.23,9.35-1.84.29-3.21-1.19-4-1.73" style="fill:none;stroke:#263238;stroke-linecap:round;stroke-linejoin:round"></path><path d="M114.34,186.86l5.22,6.54,29-9.21L145,176.88S113.8,186.86,114.34,186.86Z" style="fill:#fff;stroke:#263238;stroke-linecap:round;stroke-linejoin:round"></path><path d="M149.09,145.16c0-.17,3.56,19.07,3.56,19.07l-2.37.55" style="fill:none;stroke:#263238;stroke-linecap:round;stroke-linejoin:round"></path><polygon points="171 170.63 174.81 169.22 175.05 175.16 170.93 176.69 171 170.63" style="fill:#fff;stroke:#263238;stroke-linecap:round;stroke-linejoin:round"></polygon><path d="M168.9,160.3A126,126,0,0,1,171,176.52" style="fill:#fff;stroke:#263238;stroke-linecap:round;stroke-linejoin:round"></path><path d="M167.68,153.77c.22,1.26.44,2.46.67,3.65" style="fill:#fff;stroke:#263238;stroke-linecap:round;stroke-linejoin:round"></path></g></svg>