<svg xmlns="http://www.w3.org/2000/svg" viewBox="0 0 500 500"><g id="freepik--background-simple--inject-294"><path d="M335.42,32.19l-1.71,1.28c-14.34,10.79-21.87,28.46-19,46a46.89,46.89,0,0,0,1.6,6.67A50.51,50.51,0,0,0,351,118.88c9.49,2.49,20.12,2.39,28,8.13,10.29,7.47,12,21.73,12.87,34.33s2.63,26.85,12.95,34.28c6.47,4.65,15.08,5.47,23,4.26,20.95-3.23,38.32-19.79,45.82-39.39s6.15-41.67,0-61.69c-8.63-28-27.19-53.69-53.3-67.61S360.52,16.46,335.42,32.19Z" style="fill:#f5f5f5"></path><path d="M139.71,479l1.68-1c14.17-8.6,22.72-24.15,21.68-40.55a43,43,0,0,0-.86-6.27,46.68,46.68,0,0,0-28.9-33.26c-8.49-3.16-18.27-4-25-10-8.77-7.81-9-21.07-8.68-32.73s0-24.92-8.75-32.69c-5.52-4.87-13.36-6.41-20.75-6-19.55,1-37,14.66-45.72,32s-9.47,37.73-5.65,56.69c5.36,26.57,20.06,51.83,42.78,67S115.19,491.12,139.71,479Z" style="fill:#f5f5f5"></path><circle cx="420.36" cy="423.1" r="45.21" style="fill:#f5f5f5"></circle><circle cx="83.45" cy="88.24" r="41.34" transform="translate(-22.29 147.97) rotate(-76.06)" style="fill:#f5f5f5"></circle></g><g id="freepik--Texts--inject-294"><path d="M274.1,64c-47-3.18-83.93,7.68-108.8,19l15.88,34.57c18.37-7.8,44.81-16.74,79.19-17.25a155.69,155.69,0,0,1,72.19,16.39l19.82-30.18C333.46,75.8,307.69,66.27,274.1,64Z" style="fill:#001526"></path><path d="M208,96.69l-8.35,2.52-.39,4.31-5.7,1.72,2.75-22.39,5.5-1.66L216.5,98.3l-5.81,1.75Zm-2.88-3.63-4.45-5.55L200,94.6Z" style="fill:#fff"></path><path d="M235.83,88.78c.69,3.5-1.8,6.12-7.23,7.19l-10.93,2.16-4-20.23L224,75.85c5.32-1,8.35.6,9,3.73a4.88,4.88,0,0,1-1.85,4.93A5.22,5.22,0,0,1,235.83,88.78Zm-15.68-7.87.77,3.9,3.94-.77c1.9-.38,2.76-1.24,2.5-2.54s-1.37-1.74-3.27-1.36Zm9.77,8.37c-.28-1.38-1.45-1.84-3.41-1.45l-4.8.94.81,4.11,4.8-.95C229.28,91.54,230.19,90.67,229.92,89.28Z" style="fill:#fff"></path><path d="M237.49,83.74c-.49-6.17,4-11.07,10.59-11.59s11.78,3.63,12.27,9.8-4,11.08-10.6,11.59S238,89.91,237.49,83.74Zm17-1.33a5.53,5.53,0,0,0-6-5.44c-3.12.24-5.37,2.76-5.1,6.31a5.58,5.58,0,1,0,11.11-.87Z" style="fill:#fff"></path><path d="M277.28,89.32l-8.7-.63-1.91,3.89-5.93-.43L271.3,72.22l5.73.42,7.64,21.23-6.06-.43Zm-1.4-4.41-2.17-6.78-3.12,6.39Z" style="fill:#fff"></path><path d="M295.62,90.44l-3.13-.57-1,5.39-5.74-1.05,3.71-20.29,9.28,1.7c5.54,1,8.49,4.52,7.64,9.15a6.84,6.84,0,0,1-5.14,5.68l3.21,7.18-6.15-1.12Zm1.95-10.36-3.19-.59-1.08,6,3.19.58c2.37.43,3.76-.45,4.1-2.31S300,80.51,297.57,80.08Z" style="fill:#fff"></path><path d="M312.51,78.37l9.36,2.77c6.55,1.94,9.92,7.08,8.12,13.15s-7.41,8.57-14,6.63l-9.35-2.77Zm4.6,18c3.37,1,6.22-.35,7.23-3.77s-.66-6.09-4-7.08l-3.53-1.05-3.21,10.85Z" style="fill:#fff"></path><path d="M221.23,45.9l-1.51,14.51-4.12.87-4.35-7.71-1,8.84-4.11.87L198.9,50.64l4-.84,4.57,8.09,1-9.28,3.53-.75L216.58,56l1-9.35Z" style="fill:#263238"></path><path d="M235.92,54.88l.43,3-11,1.58-2-13.74,10.78-1.55.43,3-6.93,1,.33,2.32,6.1-.88.42,2.91-6.11.87.36,2.52Z" style="fill:#263238"></path><path d="M237.11,43.85,241,43.5,242,54.22l6.6-.58.27,3.1-10.5.93Z" style="fill:#263238"></path><path d="M249.12,49.72c-.06-4.22,3.13-7.26,7.53-7.32a7.34,7.34,0,0,1,6,2.54l-2.46,2.29a4.11,4.11,0,0,0-3.3-1.58,3.72,3.72,0,0,0-3.81,4A3.72,3.72,0,0,0,257,53.58a4.12,4.12,0,0,0,3.25-1.67l2.53,2.22a7.32,7.32,0,0,1-5.93,2.7C252.45,56.89,249.17,53.94,249.12,49.72Z" style="fill:#263238"></path><path d="M263.82,49.62c.37-4.15,3.9-6.9,8.32-6.51s7.41,3.72,7,7.87-3.89,6.9-8.32,6.51S263.45,53.77,263.82,49.62Zm11.41,1a3.75,3.75,0,1,0-4.08,3.62A3.71,3.71,0,0,0,275.23,50.63Z" style="fill:#263238"></path><path d="M292.76,60.15l1.15-7.26-4.49,5.33-1.72-.28-2.56-6.29L284,58.71l-3.58-.59,2.24-13.68,3.19.52,3.52,8.69,6-7.13,3.18.52-2.2,13.7Z" style="fill:#263238"></path><path d="M310.34,60.89l-.69,3L298.8,61.32l3.14-13.52,10.6,2.46-.68,3L305,51.64l-.53,2.27,6,1.4-.67,2.86-6-1.4-.58,2.47Z" style="fill:#263238"></path></g><g id="freepik--Character--inject-294"><path d="M155.71,409.79c10.76,8.81,21.66,17.61,33.76,24.55a107.76,107.76,0,0,0,41.59,13.94c15.38,1.74,31.15.1,46.1-3.79a203.87,203.87,0,0,0,20.83-7c6.71-2.56,13.38-5.19,20-8,14-6,28.18-13,39.5-23.45,3.08-2.83-1.52-7.41-4.58-4.58-9.58,8.82-21.49,14.94-33.27,20.27-6.24,2.82-12.59,5.38-19,7.85s-13,5.1-19.66,7.13a126.94,126.94,0,0,1-44,5.63A97.9,97.9,0,0,1,196.89,431c-13.29-7-25-16.34-36.6-25.82a3.34,3.34,0,0,0-4.58,0,3.27,3.27,0,0,0,0,4.59Z" style="fill:#ae7461"></path><path d="M176.54,418a14.17,14.17,0,0,0-2.58,2.12,14.46,14.46,0,0,0-1.57,2.94c-.06,0-.1-.4,0-1a5.71,5.71,0,0,1,3.1-3.79C176.12,418,176.52,417.92,176.54,418Z" style="fill:#6f4439"></path><path d="M172,414.48a14.12,14.12,0,0,0-2.57,2.13,13.63,13.63,0,0,0-1.57,2.94c-.07,0-.11-.41,0-1a5.65,5.65,0,0,1,3.1-3.79C171.53,414.46,171.93,414.42,172,414.48Z" style="fill:#6f4439"></path><path d="M180.63,420.79a14.17,14.17,0,0,0-2.58,2.12,14.39,14.39,0,0,0-1.57,2.95c-.07,0-.11-.41,0-1a5.61,5.61,0,0,1,1.12-2.25,5.45,5.45,0,0,1,2-1.54C180.2,420.76,180.61,420.73,180.63,420.79Z" style="fill:#6f4439"></path><path d="M184.71,423.59a14.12,14.12,0,0,0-2.57,2.13,13.89,13.89,0,0,0-1.57,2.94c-.07,0-.11-.41,0-1a5.48,5.48,0,0,1,1.12-2.25,5.56,5.56,0,0,1,2-1.54C184.29,423.57,184.69,423.53,184.71,423.59Z" style="fill:#6f4439"></path><path d="M188.8,426.4a8.59,8.59,0,0,0-4.14,5.06c-.07,0-.11-.4,0-1a5.45,5.45,0,0,1,1.12-2.24,5.6,5.6,0,0,1,2-1.55C188.38,426.37,188.78,426.33,188.8,426.4Z" style="fill:#6f4439"></path><path d="M193,428.82a14.16,14.16,0,0,0-2.46,2.26,13.81,13.81,0,0,0-1.41,3c-.07,0-.13-.41,0-1a5.68,5.68,0,0,1,2.9-4C192.53,428.82,192.93,428.76,193,428.82Z" style="fill:#6f4439"></path><path d="M197.52,431.3a13.91,13.91,0,0,0-2.24,2.47,13.51,13.51,0,0,0-1.12,3.15c-.07,0-.17-.39-.13-1a5.72,5.72,0,0,1,.78-2.39,5.61,5.61,0,0,1,1.74-1.81C197.1,431.33,197.49,431.24,197.52,431.3Z" style="fill:#6f4439"></path><path d="M201.65,433.39a15.07,15.07,0,0,0-1.81,2.8,14.28,14.28,0,0,0-.61,3.29c-.07,0-.23-.36-.28-1a5.56,5.56,0,0,1,1.81-4.54C201.24,433.5,201.62,433.34,201.65,433.39Z" style="fill:#6f4439"></path><path d="M206.16,435.22a8.68,8.68,0,0,0-2,6.24c-.06,0-.25-.34-.35-1A5.68,5.68,0,0,1,204,438a5.48,5.48,0,0,1,1.27-2.16C205.76,435.36,206.12,435.17,206.16,435.22Z" style="fill:#6f4439"></path><path d="M211.36,437.22a14.09,14.09,0,0,0-1.62,2.92,14.28,14.28,0,0,0-.38,3.32c-.06,0-.25-.34-.35-1a5.5,5.5,0,0,1,.21-2.5,5.73,5.73,0,0,1,1.28-2.17C211,437.35,211.32,437.17,211.36,437.22Z" style="fill:#6f4439"></path><path d="M217.06,439a13.8,13.8,0,0,0-1.61,2.92,14.18,14.18,0,0,0-.38,3.31c-.07,0-.25-.34-.36-1a5.68,5.68,0,0,1,.22-2.5,5.52,5.52,0,0,1,1.28-2.16C216.66,439.17,217,439,217.06,439Z" style="fill:#6f4439"></path><path d="M222.66,440.34a14.09,14.09,0,0,0-1.62,2.92,14.24,14.24,0,0,0-.38,3.32c-.06,0-.25-.34-.35-1a5.49,5.49,0,0,1,.21-2.5,5.73,5.73,0,0,1,1.28-2.17C222.25,440.47,222.61,440.29,222.66,440.34Z" style="fill:#6f4439"></path><path d="M227.54,441.12a13.71,13.71,0,0,0-1.37,3,14.2,14.2,0,0,0-.11,3.34c-.06,0-.28-.32-.43-.95a5.68,5.68,0,0,1,1.1-4.77C227.15,441.28,227.49,441.07,227.54,441.12Z" style="fill:#6f4439"></path><path d="M232.71,442a8.58,8.58,0,0,0-.22,6.55c-.06,0-.33-.26-.61-.85a5.66,5.66,0,0,1,.17-4.89C232.36,442.24,232.66,442,232.71,442Z" style="fill:#6f4439"></path><path d="M238.15,442.41a8.58,8.58,0,0,0-.22,6.55c-.06,0-.34-.26-.61-.85a5.64,5.64,0,0,1-.47-2.46,5.38,5.38,0,0,1,.64-2.43C237.8,442.65,238.09,442.37,238.15,442.41Z" style="fill:#6f4439"></path><path d="M244.48,442.42a13.38,13.38,0,0,0-.46,3.3,13.24,13.24,0,0,0,.85,3.23c-.06,0-.36-.22-.69-.78a5.69,5.69,0,0,1-.7-2.41,5.52,5.52,0,0,1,.41-2.48C244.15,442.69,244.42,442.38,244.48,442.42Z" style="fill:#6f4439"></path><path d="M250.26,442.23a8.5,8.5,0,0,0,.39,6.54c-.06,0-.36-.23-.69-.79a5.6,5.6,0,0,1-.7-2.41,5.5,5.5,0,0,1,.41-2.47C249.93,442.5,250.2,442.2,250.26,442.23Z" style="fill:#6f4439"></path><path d="M255.93,441.78a8.67,8.67,0,0,0,.91,6.48c0,.05-.37-.2-.74-.73a5.68,5.68,0,0,1-.68-4.85C255.63,442.07,255.87,441.75,255.93,441.78Z" style="fill:#6f4439"></path><path d="M261.62,441.07a8.67,8.67,0,0,0,.91,6.48c0,.05-.37-.2-.74-.73a5.68,5.68,0,0,1-.68-4.85C261.32,441.36,261.56,441,261.62,441.07Z" style="fill:#6f4439"></path><path d="M267.85,440.13a8.54,8.54,0,0,0,1.26,6.42c-.05.05-.38-.18-.78-.69a5.42,5.42,0,0,1-1-2.29,5.53,5.53,0,0,1,.08-2.51C267.56,440.44,267.79,440.1,267.85,440.13Z" style="fill:#6f4439"></path><path d="M273.55,438.57a14.22,14.22,0,0,0,0,3.33,14,14,0,0,0,1.26,3.09c0,.05-.38-.18-.78-.69a5.61,5.61,0,0,1-1-2.29,5.53,5.53,0,0,1,.08-2.51C273.26,438.87,273.49,438.54,273.55,438.57Z" style="fill:#6f4439"></path><path d="M279.05,437.13a13.51,13.51,0,0,0,.28,3.33,14.74,14.74,0,0,0,1.52,3c0,.05-.4-.15-.84-.62a5.67,5.67,0,0,1-1.35-4.71C278.79,437.47,279,437.11,279.05,437.13Z" style="fill:#6f4439"></path><path d="M284.41,435.48a14.07,14.07,0,0,0,.28,3.32,13.34,13.34,0,0,0,1.53,3c-.05.05-.4-.14-.84-.62a5.66,5.66,0,0,1-1.35-4.7C284.15,435.81,284.35,435.46,284.41,435.48Z" style="fill:#6f4439"></path><path d="M289.78,433.66a13.53,13.53,0,0,0,.28,3.33,14.17,14.17,0,0,0,1.52,3c0,.05-.4-.14-.84-.61a5.67,5.67,0,0,1-1.35-4.71C289.52,434,289.71,433.64,289.78,433.66Z" style="fill:#6f4439"></path><path d="M295,431.76a14.11,14.11,0,0,0,.28,3.33,13.93,13.93,0,0,0,1.53,3c-.05.05-.4-.15-.84-.62a5.67,5.67,0,0,1-1.35-4.71C294.72,432.1,294.92,431.74,295,431.76Z" style="fill:#6f4439"></path><path d="M300.51,429.53a13.79,13.79,0,0,0,.27,3.33,15.07,15.07,0,0,0,1.53,3c0,.05-.4-.15-.84-.62a5.67,5.67,0,0,1-1.35-4.71C300.24,429.87,300.44,429.51,300.51,429.53Z" style="fill:#6f4439"></path><path d="M306.38,427.3a14,14,0,0,0,.51,3.3,13.72,13.72,0,0,0,1.74,2.85c0,.06-.41-.11-.88-.55a5.63,5.63,0,0,1-1.37-2.11,5.56,5.56,0,0,1-.32-2.49C306.14,427.65,306.31,427.29,306.38,427.3Z" style="fill:#6f4439"></path><path d="M312.84,424.51a14.38,14.38,0,0,0,.52,3.3,13.72,13.72,0,0,0,1.74,2.85s-.41-.11-.88-.56a5.39,5.39,0,0,1-1.37-2.1,5.58,5.58,0,0,1-.32-2.49C312.61,424.86,312.78,424.5,312.84,424.51Z" style="fill:#6f4439"></path><path d="M319.22,421.9a8.63,8.63,0,0,0,2.25,6.15c0,.05-.4-.11-.88-.56a5.49,5.49,0,0,1-1.36-2.1,5.58,5.58,0,0,1-.32-2.49C319,422.25,319.16,421.89,319.22,421.9Z" style="fill:#6f4439"></path><path d="M325.6,418.83a14.4,14.4,0,0,0,.52,3.29,14.74,14.74,0,0,0,1.73,2.86s-.4-.12-.88-.56a5.69,5.69,0,0,1-1.68-4.6C325.37,419.18,325.54,418.81,325.6,418.83Z" style="fill:#6f4439"></path><path d="M331.29,416.1a8.63,8.63,0,0,0,2.25,6.15c0,.06-.4-.11-.88-.55a5.69,5.69,0,0,1-1.68-4.6C331.06,416.45,331.23,416.09,331.29,416.1Z" style="fill:#6f4439"></path><path d="M337,413a14.45,14.45,0,0,0,.52,3.3,14.06,14.06,0,0,0,1.74,2.85c0,.05-.41-.12-.88-.56a5.43,5.43,0,0,1-1.37-2.11,5.55,5.55,0,0,1-.32-2.49C336.75,413.38,336.92,413,337,413Z" style="fill:#6f4439"></path><path d="M121.27,174.45c-9.4,12.18-18.78,24.5-26.06,38.09a119.09,119.09,0,0,0-14.11,46.4c-1.43,17.05.88,34.43,5.65,50.82a221.11,221.11,0,0,0,8.42,22.81c3,7.32,6.15,14.61,9.48,21.8,7.1,15.31,15.28,30.74,27.16,42.92,3.23,3.31,8.14-1.91,4.92-5.21-10-10.31-17.19-23.27-23.45-36.13-3.31-6.8-6.34-13.74-9.27-20.71S98,321,95.51,313.74a140.43,140.43,0,0,1-7.61-48.46,108.31,108.31,0,0,1,11.2-44.65c7.29-14.9,17.28-28.18,27.38-41.26a3.69,3.69,0,0,0-.14-5.06c-1.3-1.23-3.88-1.39-5.07.14Z" style="fill:#ae7461"></path><path d="M112.87,197.73a14,14,0,0,0-2.41-2.8,14,14,0,0,0-3.32-1.62c0-.06.44-.12,1.14,0a6.27,6.27,0,0,1,2.51,1.17,6.34,6.34,0,0,1,1.77,2.13C112.87,197.27,112.93,197.71,112.87,197.73Z" style="fill:#6f4439"></path><path d="M116.59,192.56a13.05,13.05,0,0,0-2.41-2.8,13.9,13.9,0,0,0-3.32-1.63c0-.06.45-.11,1.15,0a6.3,6.3,0,0,1,4.27,3.29C116.59,192.1,116.66,192.54,116.59,192.56Z" style="fill:#6f4439"></path><path d="M109.9,202.34a14,14,0,0,0-2.41-2.8,14,14,0,0,0-3.32-1.62c0-.07.44-.12,1.14,0a6.14,6.14,0,0,1,2.51,1.17,6.23,6.23,0,0,1,1.77,2.13C109.9,201.88,110,202.32,109.9,202.34Z" style="fill:#6f4439"></path><path d="M106.93,206.94a14,14,0,0,0-2.41-2.8,14,14,0,0,0-3.32-1.62c0-.06.44-.11,1.14,0a6.41,6.41,0,0,1,2.51,1.17,6.23,6.23,0,0,1,1.77,2.13C106.93,206.48,107,206.92,106.93,206.94Z" style="fill:#6f4439"></path><path d="M104,211.55a14,14,0,0,0-2.41-2.8,14,14,0,0,0-3.32-1.62c0-.07.44-.12,1.14,0a6.14,6.14,0,0,1,2.51,1.17,6.23,6.23,0,0,1,1.77,2.13C104,211.09,104,211.53,104,211.55Z" style="fill:#6f4439"></path><path d="M101.41,216.22a14.08,14.08,0,0,0-2.56-2.67,13.91,13.91,0,0,0-3.4-1.44c0-.07.44-.14,1.14,0a6.22,6.22,0,0,1,2.57,1,6.32,6.32,0,0,1,1.88,2C101.38,215.76,101.47,216.19,101.41,216.22Z" style="fill:#6f4439"></path><path d="M98.82,221.34a13.68,13.68,0,0,0-2.8-2.42,13.3,13.3,0,0,0-3.52-1.12c0-.07.43-.18,1.14-.15a6.31,6.31,0,0,1,4.71,2.64C98.75,220.88,98.88,221.31,98.82,221.34Z" style="fill:#6f4439"></path><path d="M96.63,226A14.18,14.18,0,0,0,93.49,224a13.43,13.43,0,0,0-3.66-.54c0-.07.39-.25,1.1-.33A6.32,6.32,0,0,1,96,225C96.49,225.53,96.68,225.93,96.63,226Z" style="fill:#6f4439"></path><path d="M94.75,231a13.85,13.85,0,0,0-3.27-1.72A13.88,13.88,0,0,0,87.8,229c0-.06.37-.27,1.07-.4a6.35,6.35,0,0,1,5.19,1.5C94.58,230.58,94.8,231,94.75,231Z" style="fill:#6f4439"></path><path d="M92.71,236.82a13.68,13.68,0,0,0-3.27-1.72,13.94,13.94,0,0,0-3.69-.29c0-.06.37-.27,1.08-.4a6.13,6.13,0,0,1,2.76.17A6,6,0,0,1,92,235.91C92.54,236.39,92.76,236.77,92.71,236.82Z" style="fill:#6f4439"></path><path d="M90.88,243.18a14.11,14.11,0,0,0-3.27-1.72,13.94,13.94,0,0,0-3.69-.29c0-.06.38-.27,1.08-.4a6.32,6.32,0,0,1,5.18,1.5C90.71,242.75,90.93,243.14,90.88,243.18Z" style="fill:#6f4439"></path><path d="M89.62,249.4a14.11,14.11,0,0,0-3.27-1.72,13.94,13.94,0,0,0-3.69-.29c0-.06.37-.27,1.07-.4a6.33,6.33,0,0,1,5.19,1.5C89.45,249,89.67,249.36,89.62,249.4Z" style="fill:#6f4439"></path><path d="M88.91,254.82a14.22,14.22,0,0,0-3.4-1.45,14.28,14.28,0,0,0-3.7,0c0-.06.35-.3,1-.49A6.31,6.31,0,0,1,88.14,254C88.7,254.41,89,254.77,88.91,254.82Z" style="fill:#6f4439"></path><path d="M88.1,260.57a13.57,13.57,0,0,0-3.62-.77,13.56,13.56,0,0,0-3.62.73c0-.06.28-.37.92-.68a6.1,6.1,0,0,1,2.7-.59,6.29,6.29,0,0,1,2.7.62C87.82,260.2,88.13,260.51,88.1,260.57Z" style="fill:#6f4439"></path><path d="M87.81,266.59a13.55,13.55,0,0,0-3.61-.77,14.17,14.17,0,0,0-3.63.73c0-.05.29-.36.93-.68a6.33,6.33,0,0,1,5.4,0C87.53,266.22,87.85,266.53,87.81,266.59Z" style="fill:#6f4439"></path><path d="M88,273.58a13.6,13.6,0,0,0-3.67-.42,13.54,13.54,0,0,0-3.54,1.06c0-.05.25-.39.85-.76a6.22,6.22,0,0,1,2.64-.85A6.31,6.31,0,0,1,87,273C87.69,273.24,88,273.52,88,273.58Z" style="fill:#6f4439"></path><path d="M88.39,280a13.91,13.91,0,0,0-3.67-.42,14,14,0,0,0-3.54,1.06c0-.05.25-.39.86-.76a6,6,0,0,1,2.63-.84,6.2,6.2,0,0,1,2.75.36C88.08,279.62,88.42,279.9,88.39,280Z" style="fill:#6f4439"></path><path d="M89.08,286.22a14.32,14.32,0,0,0-3.7-.13,14.12,14.12,0,0,0-3.44,1.34s.22-.4.79-.82a6.16,6.16,0,0,1,2.56-1.05,6.27,6.27,0,0,1,2.77.14C88.74,285.91,89.1,286.16,89.08,286.22Z" style="fill:#6f4439"></path><path d="M90,292.49a13.29,13.29,0,0,0-3.69-.13,13.84,13.84,0,0,0-3.45,1.34c0-.05.22-.41.8-.83a6.29,6.29,0,0,1,2.56-1.05A6.21,6.21,0,0,1,89,292C89.7,292.17,90.07,292.43,90,292.49Z" style="fill:#6f4439"></path><path d="M91.28,299.34a13.67,13.67,0,0,0-3.7.07,14.23,14.23,0,0,0-3.37,1.52s.2-.42.75-.87a6.2,6.2,0,0,1,2.5-1.18,6.27,6.27,0,0,1,2.77,0C90.92,299,91.3,299.28,91.28,299.34Z" style="fill:#6f4439"></path><path d="M93.18,305.59a14.06,14.06,0,0,0-3.69.07,13.59,13.59,0,0,0-3.37,1.53c-.05-.05.19-.42.75-.87a6.27,6.27,0,0,1,5.26-1.19C92.83,305.3,93.21,305.53,93.18,305.59Z" style="fill:#6f4439"></path><path d="M94.94,311.62a13.78,13.78,0,0,0-3.68.38A14.05,14.05,0,0,0,88,313.81c-.05,0,.16-.43.67-.93a6.33,6.33,0,0,1,5.14-1.63C94.56,311.35,95,311.55,94.94,311.62Z" style="fill:#6f4439"></path><path d="M96.94,317.49a14.05,14.05,0,0,0-3.68.39A13.38,13.38,0,0,0,90,319.69c-.05,0,.15-.44.67-.93a6.16,6.16,0,0,1,2.39-1.4,6.23,6.23,0,0,1,2.75-.24C96.56,317.23,97,317.43,96.94,317.49Z" style="fill:#6f4439"></path><path d="M99.11,323.36a14.51,14.51,0,0,0-3.67.39,13.58,13.58,0,0,0-3.23,1.81s.16-.44.67-.93A6.3,6.3,0,0,1,98,323C98.73,323.1,99.13,323.3,99.11,323.36Z" style="fill:#6f4439"></path><path d="M101.37,329.06a13.72,13.72,0,0,0-3.67.38,14,14,0,0,0-3.23,1.81s.16-.43.67-.93a6.18,6.18,0,0,1,2.39-1.39,6.3,6.3,0,0,1,2.76-.25C101,328.79,101.39,329,101.37,329.06Z" style="fill:#6f4439"></path><path d="M104,335.09a14,14,0,0,0-3.67.39,14.18,14.18,0,0,0-3.23,1.8s.16-.43.67-.93a6.34,6.34,0,0,1,5.15-1.63C103.63,334.83,104,335,104,335.09Z" style="fill:#6f4439"></path><path d="M106.66,341.51a13.78,13.78,0,0,0-3.64.65,13.92,13.92,0,0,0-3.08,2c-.06,0,.12-.44.6-1a6.22,6.22,0,0,1,2.28-1.56,6.15,6.15,0,0,1,2.73-.43C106.26,341.27,106.67,341.44,106.66,341.51Z" style="fill:#6f4439"></path><path d="M110,348.57a13.78,13.78,0,0,0-3.64.65,13.63,13.63,0,0,0-3.08,2c-.06,0,.12-.44.6-1a6.24,6.24,0,0,1,5-2C109.55,348.33,110,348.5,110,348.57Z" style="fill:#6f4439"></path><path d="M113,355.54a13.54,13.54,0,0,0-3.63.64,14,14,0,0,0-3.09,2s.13-.45.6-1a6.37,6.37,0,0,1,5-2C112.64,355.3,113.05,355.47,113,355.54Z" style="fill:#6f4439"></path><path d="M116.63,362.49a13.84,13.84,0,0,0-3.64.65,13.92,13.92,0,0,0-3.08,2c-.06,0,.13-.44.6-1a6.24,6.24,0,0,1,5-2C116.24,362.25,116.65,362.42,116.63,362.49Z" style="fill:#6f4439"></path><path d="M119.82,368.69a14.35,14.35,0,0,0-3.64.65,13.92,13.92,0,0,0-3.08,2c-.06,0,.13-.44.6-1a6.33,6.33,0,0,1,5-2C119.43,368.46,119.84,368.63,119.82,368.69Z" style="fill:#6f4439"></path><path d="M123.4,374.88a14.29,14.29,0,0,0-3.64.65,13.1,13.1,0,0,0-3.08,2c-.06,0,.12-.45.6-1a6.33,6.33,0,0,1,5-2C123,374.65,123.41,374.82,123.4,374.88Z" style="fill:#6f4439"></path><path d="M363.38,157.66c-11.5-10.22-23.15-20.41-36.21-28.62a119.13,119.13,0,0,0-45.32-17.25c-16.92-2.59-34.41-1.48-51.09,2.15a222.54,222.54,0,0,0-23.33,6.84c-7.52,2.52-15,5.13-22.41,8-15.76,6-31.7,13.14-44.67,24.16-3.53,3,1.34,8.24,4.85,5.26,11-9.32,24.4-15.56,37.66-20.92,7-2.84,14.14-5.39,21.3-7.83s14.57-5.07,22-7a140.32,140.32,0,0,1,48.87-4.27,108.39,108.39,0,0,1,43.77,14.24c14.37,8.29,26.94,19.16,39.29,30.14a3.69,3.69,0,0,0,5.06.2c1.31-1.21,1.65-3.77.2-5.06Z" style="fill:#ae7461"></path><path d="M340.73,147.68a13.93,13.93,0,0,0,3-2.22,14,14,0,0,0,1.85-3.2c.06,0,.08.45-.1,1.14a6.11,6.11,0,0,1-1.34,2.42,6.27,6.27,0,0,1-2.24,1.62C341.19,147.71,340.75,147.74,340.73,147.68Z" style="fill:#6f4439"></path><path d="M345.64,151.75a13.54,13.54,0,0,0,3-2.21,14.22,14.22,0,0,0,1.85-3.2c.06,0,.08.45-.1,1.14A6.45,6.45,0,0,1,349,149.9a6.33,6.33,0,0,1-2.25,1.62C346.1,151.78,345.66,151.81,345.64,151.75Z" style="fill:#6f4439"></path><path d="M336.34,144.4a14,14,0,0,0,3-2.21,13.93,13.93,0,0,0,1.85-3.21c.06,0,.08.46-.1,1.14a6.41,6.41,0,0,1-1.34,2.43,6.29,6.29,0,0,1-2.25,1.61C336.8,144.43,336.36,144.46,336.34,144.4Z" style="fill:#6f4439"></path><path d="M332,141.12a13.81,13.81,0,0,0,3-2.21,14.22,14.22,0,0,0,1.85-3.2c.06,0,.08.45-.1,1.14a6.45,6.45,0,0,1-1.34,2.42,6.33,6.33,0,0,1-2.25,1.62C332.41,141.15,332,141.18,332,141.12Z" style="fill:#6f4439"></path><path d="M327.56,137.84a13.81,13.81,0,0,0,3-2.21,13.72,13.72,0,0,0,1.84-3.2c.07,0,.09.45-.1,1.14a6.27,6.27,0,0,1-1.33,2.42,6.21,6.21,0,0,1-2.25,1.62C328,137.87,327.58,137.91,327.56,137.84Z" style="fill:#6f4439"></path><path d="M323.08,135a14.06,14.06,0,0,0,2.83-2.37,13.7,13.7,0,0,0,1.67-3.3c.07,0,.11.45,0,1.15a6.36,6.36,0,0,1-1.21,2.49,6.21,6.21,0,0,1-2.16,1.73C323.54,135,323.1,135,323.08,135Z" style="fill:#6f4439"></path><path d="M318.15,132a13.6,13.6,0,0,0,2.6-2.62,13.55,13.55,0,0,0,1.36-3.43c.07,0,.15.43.07,1.14a6.31,6.31,0,0,1-3,4.52C318.61,132,318.17,132.1,318.15,132Z" style="fill:#6f4439"></path><path d="M313.67,129.54a13.67,13.67,0,0,0,2.16-3,13.92,13.92,0,0,0,.79-3.61c.06,0,.22.41.25,1.12a6.35,6.35,0,0,1-2.2,4.93C314.12,129.43,313.71,129.6,313.67,129.54Z" style="fill:#6f4439"></path><path d="M308.78,127.32a13.89,13.89,0,0,0,1.94-3.14,14.52,14.52,0,0,0,.54-3.66c.06,0,.24.39.32,1.1a6.3,6.3,0,0,1-.35,2.74,6.17,6.17,0,0,1-1.5,2.33C309.22,127.18,308.81,127.38,308.78,127.32Z" style="fill:#6f4439"></path><path d="M303.12,124.89a14,14,0,0,0,1.94-3.15,13.43,13.43,0,0,0,.54-3.66c.07,0,.25.39.33,1.1a6.2,6.2,0,0,1-.36,2.75,6,6,0,0,1-1.49,2.32C303.56,124.75,303.16,124.94,303.12,124.89Z" style="fill:#6f4439"></path><path d="M296.9,122.63a14,14,0,0,0,1.94-3.15,13.9,13.9,0,0,0,.54-3.65c.06,0,.25.39.33,1.09a6.2,6.2,0,0,1-.36,2.75,6.37,6.37,0,0,1-1.49,2.33C297.34,122.49,296.94,122.68,296.9,122.63Z" style="fill:#6f4439"></path><path d="M290.78,120.94a13.77,13.77,0,0,0,1.94-3.14,14,14,0,0,0,.54-3.66c.06,0,.25.39.33,1.1a6.36,6.36,0,0,1-1.85,5.07C291.22,120.8,290.82,121,290.78,120.94Z" style="fill:#6f4439"></path><path d="M285.42,119.86a13.49,13.49,0,0,0,1.68-3.29,14.11,14.11,0,0,0,.24-3.69c.06,0,.27.37.41,1.07a6.18,6.18,0,0,1-.13,2.76,6.3,6.3,0,0,1-1.29,2.45C285.85,119.69,285.47,119.91,285.42,119.86Z" style="fill:#6f4439"></path><path d="M279.75,118.66a14,14,0,0,0,1-3.56,13.94,13.94,0,0,0-.48-3.66c.06,0,.34.31.61,1a6.19,6.19,0,0,1,.41,2.73,6.1,6.1,0,0,1-.81,2.65C280.13,118.4,279.8,118.7,279.75,118.66Z" style="fill:#6f4439"></path><path d="M273.76,118a13.72,13.72,0,0,0,1-3.55,14,14,0,0,0-.48-3.67c.06,0,.34.31.61,1a6.12,6.12,0,0,1,.41,2.74,6.29,6.29,0,0,1-.8,2.65C274.14,117.71,273.81,118,273.76,118Z" style="fill:#6f4439"></path><path d="M266.77,117.68a14.29,14.29,0,0,0,.67-3.63,14.4,14.4,0,0,0-.81-3.61c.05,0,.37.28.7.91A6.35,6.35,0,0,1,268,114a6.18,6.18,0,0,1-.56,2.71C267.13,117.39,266.82,117.71,266.77,117.68Z" style="fill:#6f4439"></path><path d="M260.38,117.63a14.31,14.31,0,0,0,.67-3.64,13.67,13.67,0,0,0-.82-3.6c.06,0,.37.27.7.91a6,6,0,0,1,.66,2.68,6.16,6.16,0,0,1-.55,2.71C260.73,117.34,260.43,117.66,260.38,117.63Z" style="fill:#6f4439"></path><path d="M254.08,117.88a13.57,13.57,0,0,0,.38-3.68,13.43,13.43,0,0,0-1.1-3.52c0-.05.39.24.77.84a6.27,6.27,0,0,1,.54,5.38C254.42,117.56,254.14,117.91,254.08,117.88Z" style="fill:#6f4439"></path><path d="M247.77,118.41a14,14,0,0,0,.38-3.67,13.88,13.88,0,0,0-1.1-3.53s.39.24.77.85a6.15,6.15,0,0,1,.87,2.62,6.27,6.27,0,0,1-.33,2.75C248.1,118.09,247.83,118.44,247.77,118.41Z" style="fill:#6f4439"></path><path d="M240.85,119.17a13.91,13.91,0,0,0,.18-3.69,13.71,13.71,0,0,0-1.29-3.46s.4.22.82.81a6.21,6.21,0,0,1,1,2.57,6.27,6.27,0,0,1-.19,2.76C241.16,118.84,240.91,119.2,240.85,119.17Z" style="fill:#6f4439"></path><path d="M234.48,120.65a14,14,0,0,0,.18-3.69,13.69,13.69,0,0,0-1.29-3.47s.4.23.82.81a6.29,6.29,0,0,1,.82,5.33C234.8,120.31,234.54,120.68,234.48,120.65Z" style="fill:#6f4439"></path><path d="M228.35,122a14,14,0,0,0-.14-3.7,13.57,13.57,0,0,0-1.58-3.34s.42.19.88.74a6.28,6.28,0,0,1,1.28,5.24C228.63,121.63,228.41,122,228.35,122Z" style="fill:#6f4439"></path><path d="M222.35,123.58a14,14,0,0,0-.14-3.7,13.57,13.57,0,0,0-1.58-3.34c.05,0,.42.19.88.74a6.3,6.3,0,0,1,1.28,5.24C222.63,123.22,222.41,123.6,222.35,123.58Z" style="fill:#6f4439"></path><path d="M216.34,125.35a14.24,14.24,0,0,0-.13-3.7,13.81,13.81,0,0,0-1.59-3.34s.43.19.89.74a6.17,6.17,0,0,1,1.22,2.48,6.33,6.33,0,0,1,.06,2.76C216.63,125,216.4,125.37,216.34,125.35Z" style="fill:#6f4439"></path><path d="M210.51,127.21a13.93,13.93,0,0,0-.14-3.69,13.57,13.57,0,0,0-1.58-3.34c.05-.05.42.19.88.73a6.31,6.31,0,0,1,1.28,5.25C210.79,126.85,210.57,127.23,210.51,127.21Z" style="fill:#6f4439"></path><path d="M204.3,129.43a13.21,13.21,0,0,0-.13-3.69,14,14,0,0,0-1.58-3.34c0-.05.42.19.88.73a6.31,6.31,0,0,1,1.28,5.25C204.59,129.07,204.37,129.45,204.3,129.43Z" style="fill:#6f4439"></path><path d="M197.72,131.63a13.76,13.76,0,0,0-.4-3.67,14.49,14.49,0,0,0-1.81-3.22s.43.16.93.67a6.18,6.18,0,0,1,1.4,2.38,6.3,6.3,0,0,1,.25,2.76C198,131.25,197.78,131.65,197.72,131.63Z" style="fill:#6f4439"></path><path d="M190.45,134.43a13.76,13.76,0,0,0-.4-3.67,13.78,13.78,0,0,0-1.81-3.22c0-.05.43.16.93.67a6.32,6.32,0,0,1,1.65,5.14C190.71,134.05,190.52,134.45,190.45,134.43Z" style="fill:#6f4439"></path><path d="M183.29,137a13.76,13.76,0,0,0-.4-3.67,14.21,14.21,0,0,0-1.81-3.22s.43.16.93.67a6.32,6.32,0,0,1,1.65,5.14C183.55,136.65,183.35,137.05,183.29,137Z" style="fill:#6f4439"></path><path d="M176.11,140.15a13.82,13.82,0,0,0-.4-3.68,13.87,13.87,0,0,0-1.82-3.22c0-.05.44.16.93.67a6.31,6.31,0,0,1,1.66,5.14C176.37,139.76,176.17,140.16,176.11,140.15Z" style="fill:#6f4439"></path><path d="M169.7,142.9a13.76,13.76,0,0,0-.4-3.67,14.49,14.49,0,0,0-1.81-3.22s.43.16.93.67a6.32,6.32,0,0,1,1.65,5.14C170,142.52,169.76,142.92,169.7,142.9Z" style="fill:#6f4439"></path><path d="M163.28,146.05a13.82,13.82,0,0,0-.4-3.68,13.87,13.87,0,0,0-1.82-3.22c0-.05.44.16.93.67a6.31,6.31,0,0,1,1.66,5.14C163.54,145.67,163.34,146.07,163.28,146.05Z" style="fill:#6f4439"></path><path d="M378.4,382.9c10.54-10.36,21.05-20.85,29.56-32.63,9-12.52,15.38-26.27,18.11-40.93,2.85-15.29,1.94-31.12-1.56-46.23A182.79,182.79,0,0,0,417.85,242c-2.48-6.81-5-13.6-7.84-20.31-5.95-14.28-13-28.73-24-40.52-3-3.19-8.41,1.19-5.42,4.38,9.35,10,15.54,22.14,20.83,34.15,2.8,6.36,5.3,12.81,7.71,19.3s5,13.21,6.86,20a113.28,113.28,0,0,1,3.74,44.23,91.52,91.52,0,0,1-15,39.54c-8.61,13-19.83,24.28-31.15,35.41-1.32,1.3-1.68,3.2-.27,4.58,1.22,1.19,3.82,1.51,5.15.2Z" style="fill:#ae7461"></path><path d="M388.83,362.46a11.57,11.57,0,0,0,2.29,2.71,17.07,17.07,0,0,0,3.17,1.65,4.79,4.79,0,0,1-3.51-1.22,5.7,5.7,0,0,1-1.69-2.07C388.81,362.9,388.77,362.47,388.83,362.46Z" style="fill:#6f4439"></path><path d="M384.63,366.88a11.53,11.53,0,0,0,2.28,2.72,17.83,17.83,0,0,0,3.17,1.65,4.89,4.89,0,0,1-3.5-1.22,5.75,5.75,0,0,1-1.69-2.07C384.6,367.33,384.57,366.9,384.63,366.88Z" style="fill:#6f4439"></path><path d="M392.22,358.5a11.84,11.84,0,0,0,2.28,2.72,18.62,18.62,0,0,0,3.17,1.65,4.87,4.87,0,0,1-3.5-1.23,5.59,5.59,0,0,1-1.69-2.07C392.2,359,392.16,358.51,392.22,358.5Z" style="fill:#6f4439"></path><path d="M395.61,354.54a11.84,11.84,0,0,0,2.28,2.72,18.22,18.22,0,0,0,3.17,1.65,4.89,4.89,0,0,1-3.5-1.22,5.75,5.75,0,0,1-1.69-2.07C395.59,355,395.55,354.56,395.61,354.54Z" style="fill:#6f4439"></path><path d="M399,350.58a11.84,11.84,0,0,0,2.28,2.72,18.22,18.22,0,0,0,3.17,1.65,4.89,4.89,0,0,1-3.5-1.22,5.67,5.67,0,0,1-1.69-2.07C399,351,398.94,350.6,399,350.58Z" style="fill:#6f4439"></path><path d="M402,346.54a12.44,12.44,0,0,0,2.45,2.6,18.91,18.91,0,0,0,3.26,1.5,4.93,4.93,0,0,1-3.58-1.05,5.71,5.71,0,0,1-1.8-2C402,347,401.91,346.56,402,346.54Z" style="fill:#6f4439"></path><path d="M405,342.09a12.28,12.28,0,0,0,2.7,2.38,18.46,18.46,0,0,0,3.42,1.23,5,5,0,0,1-3.69-.75,5.91,5.91,0,0,1-2-1.83C405.07,342.54,405,342.12,405,342.09Z" style="fill:#6f4439"></path><path d="M407.62,338.05a13.07,13.07,0,0,0,3.09,2,18.87,18.87,0,0,0,3.6.74,5.1,5.1,0,0,1-3.8-.23,6.14,6.14,0,0,1-2.28-1.51C407.74,338.49,407.56,338.09,407.62,338.05Z" style="fill:#6f4439"></path><path d="M409.94,333.63a14.08,14.08,0,0,0,3.23,1.76,18.24,18.24,0,0,0,3.66.51,5.13,5.13,0,0,1-3.83,0,6.32,6.32,0,0,1-2.38-1.36C410.1,334.06,409.89,333.67,409.94,333.63Z" style="fill:#6f4439"></path><path d="M412.49,328.53a14.08,14.08,0,0,0,3.23,1.76,18.24,18.24,0,0,0,3.66.51,5.13,5.13,0,0,1-3.83,0,6.46,6.46,0,0,1-2.38-1.36C412.65,329,412.44,328.57,412.49,328.53Z" style="fill:#6f4439"></path><path d="M414.86,322.91a14.36,14.36,0,0,0,3.23,1.76,18.32,18.32,0,0,0,3.66.51,5.1,5.1,0,0,1-3.82,0,6.43,6.43,0,0,1-2.39-1.36C415,323.34,414.81,323,414.86,322.91Z" style="fill:#6f4439"></path><path d="M416.65,317.38a14.29,14.29,0,0,0,3.24,1.76,18.18,18.18,0,0,0,3.65.51,5.1,5.1,0,0,1-3.82,0,6.51,6.51,0,0,1-2.39-1.36C416.81,317.81,416.6,317.42,416.65,317.38Z" style="fill:#6f4439"></path><path d="M417.82,312.54a14.69,14.69,0,0,0,3.37,1.51,18.73,18.73,0,0,0,3.71.25,5.2,5.2,0,0,1-3.83.28,6.4,6.4,0,0,1-2.5-1.18C418,313,417.77,312.58,417.82,312.54Z" style="fill:#6f4439"></path><path d="M419.11,307.41a16.46,16.46,0,0,0,3.62.9,17.89,17.89,0,0,0,3.72-.39,5.11,5.11,0,0,1-3.75.93A5.05,5.05,0,0,1,419.11,307.41Z" style="fill:#6f4439"></path><path d="M419.89,302a15.88,15.88,0,0,0,3.63.91,17.85,17.85,0,0,0,3.71-.39,5.22,5.22,0,0,1-3.75.93A5,5,0,0,1,419.89,302Z" style="fill:#6f4439"></path><path d="M420.27,295.67a16.93,16.93,0,0,0,3.69.6,17.43,17.43,0,0,0,3.68-.7,6.3,6.3,0,0,1-7.37.1Z" style="fill:#6f4439"></path><path d="M420.4,289.89a17.67,17.67,0,0,0,3.69.6,17.43,17.43,0,0,0,3.68-.7,6.3,6.3,0,0,1-7.37.1Z" style="fill:#6f4439"></path><path d="M420.22,284.19a17.73,17.73,0,0,0,3.73.34,16.28,16.28,0,0,0,3.61-1,5,5,0,0,1-3.57,1.5A5.16,5.16,0,0,1,420.22,284.19Z" style="fill:#6f4439"></path><path d="M419.76,278.48a17.31,17.31,0,0,0,3.72.33,17,17,0,0,0,3.62-.95,6.28,6.28,0,0,1-7.34.62Z" style="fill:#6f4439"></path><path d="M419.07,272.22a18.6,18.6,0,0,0,3.73.15,16.12,16.12,0,0,0,3.56-1.13,5,5,0,0,1-3.49,1.67A5.16,5.16,0,0,1,419.07,272.22Z" style="fill:#6f4439"></path><path d="M417.65,266.45a18.6,18.6,0,0,0,3.73.15,17.1,17.1,0,0,0,3.56-1.12,5,5,0,0,1-3.49,1.66A5.16,5.16,0,0,1,417.65,266.45Z" style="fill:#6f4439"></path><path d="M416.36,260.89a17.31,17.31,0,0,0,3.73-.12,15.42,15.42,0,0,0,3.45-1.4c0,.05-.22.41-.8.83a6.53,6.53,0,0,1-2.54,1.1A5.15,5.15,0,0,1,416.36,260.89Z" style="fill:#6f4439"></path><path d="M414.81,255.46a18.56,18.56,0,0,0,3.73-.13,15.68,15.68,0,0,0,3.45-1.39c.05.05-.22.41-.79.83a6.58,6.58,0,0,1-2.55,1.1A5.22,5.22,0,0,1,414.81,255.46Z" style="fill:#6f4439"></path><path d="M413.09,250a18.46,18.46,0,0,0,3.72-.13,16,16,0,0,0,3.45-1.39c.05,0-.21.4-.79.83a6.67,6.67,0,0,1-2.55,1.09A5.15,5.15,0,0,1,413.09,250Z" style="fill:#6f4439"></path><path d="M411.26,244.73a17.31,17.31,0,0,0,3.73-.12,15.42,15.42,0,0,0,3.45-1.4c.05,0-.22.41-.79.83a6.65,6.65,0,0,1-2.55,1.1A5.17,5.17,0,0,1,411.26,244.73Z" style="fill:#6f4439"></path><path d="M409.08,239.11a17.31,17.31,0,0,0,3.73-.12,15.42,15.42,0,0,0,3.45-1.4s-.22.41-.8.83a6.53,6.53,0,0,1-2.54,1.1A5.15,5.15,0,0,1,409.08,239.11Z" style="fill:#6f4439"></path><path d="M406.92,233.15a18.55,18.55,0,0,0,3.7-.36,14.55,14.55,0,0,0,3.34-1.62c.05.05-.19.43-.73.89a6.47,6.47,0,0,1-2.47,1.25A5.19,5.19,0,0,1,406.92,233.15Z" style="fill:#6f4439"></path><path d="M404.16,226.56a18.55,18.55,0,0,0,3.7-.36,15.27,15.27,0,0,0,3.34-1.61c.05,0-.18.42-.73.88a6.64,6.64,0,0,1-2.46,1.26A5.13,5.13,0,0,1,404.16,226.56Z" style="fill:#6f4439"></path><path d="M401.61,220.07a18.6,18.6,0,0,0,3.7-.36,15.27,15.27,0,0,0,3.34-1.61s-.19.42-.74.88a6.64,6.64,0,0,1-2.46,1.26A5.16,5.16,0,0,1,401.61,220.07Z" style="fill:#6f4439"></path><path d="M398.53,213.56a18.6,18.6,0,0,0,3.7-.36,14.55,14.55,0,0,0,3.34-1.62s-.19.43-.74.89a6.49,6.49,0,0,1-2.46,1.25A5.19,5.19,0,0,1,398.53,213.56Z" style="fill:#6f4439"></path><path d="M395.8,207.75a18.55,18.55,0,0,0,3.7-.36,15.27,15.27,0,0,0,3.34-1.61c.05,0-.19.42-.73.88a6.61,6.61,0,0,1-2.47,1.26A5.1,5.1,0,0,1,395.8,207.75Z" style="fill:#6f4439"></path><path d="M392.68,201.93a18.55,18.55,0,0,0,3.7-.36,14.55,14.55,0,0,0,3.34-1.62c0,.05-.19.43-.73.89a6.47,6.47,0,0,1-2.47,1.25A5.19,5.19,0,0,1,392.68,201.93Z" style="fill:#6f4439"></path><path d="M230.69,122.42A156.78,156.78,0,1,0,408.36,255.07,156.78,156.78,0,0,0,230.69,122.42ZM265,358.76a82,82,0,1,1,69.41-92.95A82,82,0,0,1,265,358.76Z" style="fill:#e0e0e0"></path><path d="M118,173.66l9.83,8.48s38.65,26.29,51.4,58c8.8-15,23.84-29.18,37.2-36.37,0,0-22.79-41.21-53.35-55.19l-7.92-9.14S117.71,171.84,118,173.66Z" style="fill:#001526"></path><path d="M156.71,418.11l7.8-10.38s23.62-40.34,54.38-55.2c-15.59-7.76-30.72-21.81-38.8-34.66,0,0-39.58,25.53-51.46,57l-10.54,11.22S148,418.11,156.71,418.11Z" style="fill:#001526"></path><path d="M348.67,418.24l-7.86-10.34S317,367.69,286.14,353c15.55-7.83,30.61-22,38.63-34.85,0,0,39.7,25.32,51.75,56.68l9.64,10.73S350.47,418.62,348.67,418.24Z" style="fill:#001526"></path><path d="M394.8,186.47l-10.65,7.43s-38.61,22.21-54.53,52.45c-7.22-15.85-23.25-31.47-35.81-40,0,0,26.88-38.66,58.7-49.45l8.82-8.28S395.24,184.68,394.8,186.47Z" style="fill:#001526"></path><path d="M252.2,434.92A157.33,157.33,0,0,1,230,121.9c85.84-12.45,165.81,47.26,178.26,133.1a157.32,157.32,0,0,1-133.1,178.26A159.59,159.59,0,0,1,252.2,434.92Zm.44-313.61A156.27,156.27,0,0,0,97.89,300a156.26,156.26,0,1,0,309.29-44.86C395.91,177.45,329,121.31,252.64,121.31Z" style="fill:#263238"></path><g style="opacity:0.30000000000000004"><path d="M271.19,408.56A156.79,156.79,0,0,1,95.74,287.93q.41,6,1.29,12.16a156.78,156.78,0,1,0,310.32-45q-.89-6.09-2.22-12A156.8,156.8,0,0,1,271.19,408.56Z"></path></g><path d="M253.15,360.14a82.64,82.64,0,1,1,11.9-.87A82.67,82.67,0,0,1,253.15,360.14Zm.22-164.08a83.47,83.47,0,0,0-11.87.86,81.5,81.5,0,1,0,92.36,69h0a81.54,81.54,0,0,0-80.49-69.82Z" style="fill:#263238"></path><path d="M207.37,209.07c-2.87-8.47-5.7-17-7.07-25.85s-1.21-18.07,1.8-26.49c.46-1.28,4.38-9.85,5.73-9.73,1,.08-1.42,8.06-.92,8.89,4.75,7.94,6.14,17.53,5.51,26.76a120.92,120.92,0,0,1-5,26.42" style="fill:#263238"></path><path d="M208.3,255.71l-2.23-80.39c-1-22.41,11.21-41.67,33.63-42.06l2.08.09a40.1,40.1,0,0,1,38.42,38.49c.76,19.43,1.36,40.9.8,51.29-1.16,21.49-22.8,24-22.8,24s-.19,22.33-.18,28.65L242.74,292l.88-4.91Z" style="fill:#ffbf9d"></path><path d="M258.2,246.72s-13.59.23-27.66-9.44c0,0,6.07,16.45,27.61,15.4Z" style="fill:#ff9a6c"></path><path d="M269.25,190.5a3.08,3.08,0,0,1-3.09,3,2.94,2.94,0,0,1-3.05-2.9,3.08,3.08,0,0,1,3.08-3A3,3,0,0,1,269.25,190.5Z" style="fill:#263238"></path><path d="M275.24,180.79c-.4.38-2.66-1.43-6-1.56s-5.8,1.42-6.14,1c-.17-.18.25-.89,1.34-1.62a8.46,8.46,0,0,1,4.93-1.3,8.08,8.08,0,0,1,4.72,1.75C275.12,179.88,275.43,180.62,275.24,180.79Z" style="fill:#263238"></path><path d="M240.2,190a3.08,3.08,0,0,1-3.09,3,2.94,2.94,0,0,1-3.05-2.9,3.08,3.08,0,0,1,3.08-3A3,3,0,0,1,240.2,190Z" style="fill:#263238"></path><path d="M242.81,180.22c-.4.38-2.66-1.44-6-1.56s-5.8,1.42-6.14,1c-.17-.19.25-.89,1.34-1.62a8.49,8.49,0,0,1,4.93-1.3,8.21,8.21,0,0,1,4.73,1.74C242.69,179.31,243,180.05,242.81,180.22Z" style="fill:#263238"></path><path d="M253.62,206.1c0-.19,2.06-.46,5.4-.75.85,0,1.66-.18,1.82-.75a4.26,4.26,0,0,0-.46-2.53l-2.23-6.53c-3.09-9.29-5.28-16.92-4.91-17s3.18,7.32,6.27,16.61c.74,2.29,1.45,4.47,2.13,6.56a4.9,4.9,0,0,1,.3,3.33,2.13,2.13,0,0,1-1.44,1.18,6,6,0,0,1-1.44.14C255.7,206.36,253.62,206.29,253.62,206.1Z" style="fill:#263238"></path><path d="M244.31,169.92c-.49.83-3.66-.19-7.56-.44s-7.18.23-7.54-.66c-.15-.42.54-1.15,1.94-1.78a13.13,13.13,0,0,1,11.5.84C244,168.7,244.52,169.53,244.31,169.92Z" style="fill:#263238"></path><path d="M275.79,171.08c-.71.73-3.38-.12-6.62-.24s-6,.35-6.6-.46c-.26-.39.19-1.13,1.4-1.81a10.48,10.48,0,0,1,5.42-1.08,10.22,10.22,0,0,1,5.23,1.64C275.75,169.94,276.1,170.72,275.79,171.08Z" style="fill:#263238"></path><path d="M207.17,191c-.36-.18-14.59-5-14.73,9.74s14.67,11.82,14.7,11.4S207.17,191,207.17,191Z" style="fill:#ffbf9d"></path><path d="M202.69,206.48c-.06,0-.25.18-.69.37a2.54,2.54,0,0,1-1.92,0c-1.55-.58-2.83-3.06-2.88-5.72a8.43,8.43,0,0,1,.75-3.66,3,3,0,0,1,2-2,1.31,1.31,0,0,1,1.51.71c.19.42.09.71.17.74s.32-.25.21-.86a1.64,1.64,0,0,0-.57-.92,1.88,1.88,0,0,0-1.42-.39,3.59,3.59,0,0,0-2.7,2.25,8.88,8.88,0,0,0-.93,4.1c.07,3,1.56,5.76,3.69,6.39a2.73,2.73,0,0,0,2.34-.36C202.66,206.84,202.74,206.51,202.69,206.48Z" style="fill:#ff9a6c"></path><path d="M270.69,147.09c2.38-1.32-4.76-9-10.62-11.7-8.84-4-22.36-6.5-30.52-4.19-9.82,2.78-18,7.67-22.93,16.6s-6.79,19.36-6.51,29.57c.08,3.11.41,6.36,2.07,9,2,3.26,6,5.31,5.82,9.8a6.17,6.17,0,0,0,1.53,4.5c2.69,2.87,6,.17,7.5-2.52,3.24-5.77,3.61-12.65,3.9-19.26.2-4.7.39-9.49-.93-14-.72-2.46-1.87-4.78-2.45-7.27s-.51-5.31,1-7.35a9.51,9.51,0,0,1,1.2-1.21A15.36,15.36,0,0,1,235,146.16c8.29,2.94,22.45,7.33,26.15,4.52,5.32-4.05,6.59-6.69,6.59-6.69Z" style="fill:#263238"></path><path d="M243.23,208.15c.51,0,.53,3.35,3.44,5.73s6.5,2,6.53,2.47c.05.22-.8.66-2.32.71a8.39,8.39,0,0,1-5.45-1.87,7.27,7.27,0,0,1-2.66-4.81C242.63,209,243,208.13,243.23,208.15Z" style="fill:#263238"></path><path d="M277.15,145.17s-8-15.46-17.65-19.48a46.07,46.07,0,0,0-35.62.46C213.4,130.66,210.09,147,210.09,147Z" style="fill:#f5f5f5"></path><path d="M279.28,161.8l6.5-28.07H193.35l6.73,28.07C229.78,159.75,257.34,159,279.28,161.8Z" style="fill:#f5f5f5"></path><path d="M243.88,150.2a5.68,5.68,0,0,0,1.89,3.47,6.78,6.78,0,0,0,2.1,1.27,6.86,6.86,0,0,0,.77.24,1.68,1.68,0,0,1,.6.29l1.2.93,1.19-.93a1.72,1.72,0,0,1,.61-.29,6.86,6.86,0,0,0,.77-.24,6.78,6.78,0,0,0,2.1-1.27,6,6,0,0,0,1.41-1.89,5.31,5.31,0,0,0,.47-1.58l1,.2-1.13-3.63-2.32,3,1.05.2a4.48,4.48,0,0,1-1.5,2.84l0,0c-.91.81-2.63.32-2.66-.75l-.23-9,2.73-.18V142l-2.24-.15a2.3,2.3,0,1,0-2.5,0l-2.25.15v.87l2.74.18-.23,9c0,1.07-1.75,1.56-2.66.75l0,0a4.46,4.46,0,0,1-1.49-2.84l1-.2-2.32-3-1.13,3.63Zm7.85-10.35a1.25,1.25,0,1,1-1.25-1.25A1.25,1.25,0,0,1,251.73,139.85Z" style="fill:#455a64"></path><path d="M201.41,161.8c-1.72,2.22-1.85,4.69-3.12,5.88a34.52,34.52,0,0,0-3.84,3.5c-1.07,1.37-1.6,3.4-.61,4.83a4.62,4.62,0,0,0,3.47,1.64,11.43,11.43,0,0,0,7.66-2.08c-2,1.27-1.67,4.61.23,6s4.65,1.07,6.67-.14a18.06,18.06,0,0,0,4.91-5Z" style="fill:#263238"></path><path d="M219.94,170s0,.14,0,.41a9.71,9.71,0,0,1-.22,1.13,15.86,15.86,0,0,1-1.62,3.95,16.21,16.21,0,0,1-4.19,4.76,10.64,10.64,0,0,1-3.33,1.79,5.73,5.73,0,0,1-4.09-.12,5.08,5.08,0,0,1-2.67-6l.39.28a10.25,10.25,0,0,1-5,1.81,7.36,7.36,0,0,1-4.12-.69,3.19,3.19,0,0,1-1.68-2.14,2.59,2.59,0,0,1-.07-.72c0-.17,0-.25,0-.25s.05.34.21.93a3.11,3.11,0,0,0,1.66,1.9,7.15,7.15,0,0,0,3.94.54,10,10,0,0,0,4.75-1.79l.63-.46-.24.74a4.62,4.62,0,0,0,2.42,5.32,5.24,5.24,0,0,0,3.7.1,10.33,10.33,0,0,0,3.19-1.68,16.3,16.3,0,0,0,4.16-4.56A20.94,20.94,0,0,0,219.94,170Z" style="fill:#455a64"></path><g style="opacity:0.30000000000000004"><path d="M193.35,133.73l6.73,28.07,18.44-1.1c-1.15-3.72-6-20-3-27Z"></path></g><path d="M337,196.37l21.77,16.09s-16.12,15.93-16.93,16.08-12.26-12.86-12.26-12.86Z" style="fill:#ffbf9d"></path><path d="M337,196.37s-19.8-12.52-21.26-12.92c-2-.54-7.56-.1-7.56-.1l-33.4-6.69s-3.52,2.86,4.32,7.14l27.48,12.27s-3.94-.77-5.25,1.89,1.52,4.85,4.19,6.16,8.17,3.3,8.17,3.3.29,6.29,8.34,10.52,11.28-4.25,11.28-4.25" style="fill:#ffbf9d"></path><path d="M333.35,213.69s-.29.61-1,1.65a8.26,8.26,0,0,1-4.21,3.3c-2.28.71-5.24-.22-8-2.19a16.22,16.22,0,0,1-3.85-3.67,11.38,11.38,0,0,1-2.23-5.38l0-.25-.22-.08c-1.57-.58-3.2-1.2-4.87-1.89a28.14,28.14,0,0,1-5-2.42,7.3,7.3,0,0,1-2-1.89,2.54,2.54,0,0,1-.33-2.47c.62-1.77,2.95-2.22,4.87-1.89l3.58.62-3.31-1.48-25.28-11.32-2.19-1h0a15.8,15.8,0,0,1-3.81-2.77,4,4,0,0,1-1-1.85,1.92,1.92,0,0,1,.57-1.72l-.4.1,33.42,6.61h.11a37.74,37.74,0,0,1,7,0A10.66,10.66,0,0,1,318,185l2.65,1.55,8.76,5.28,5.59,3.38,1.48.86a2,2,0,0,0,.53.26,2.72,2.72,0,0,0-.46-.36l-1.42-1-5.48-3.56c-2.39-1.52-5.29-3.37-8.68-5.45l-2.63-1.59-1.41-.8a4.61,4.61,0,0,0-1.63-.65,37.75,37.75,0,0,0-7.14,0h.11l-33.39-6.78-.23-.05-.16.15a2.83,2.83,0,0,0-.92,2.61,4.79,4.79,0,0,0,1.24,2.34,16.39,16.39,0,0,0,4.07,3h0l2.19,1,25.31,11.26.27-.86a7.33,7.33,0,0,0-3.36.19,3.83,3.83,0,0,0-2.5,2.27,3.45,3.45,0,0,0,.44,3.27,8.2,8.2,0,0,0,2.26,2.11,29.66,29.66,0,0,0,5.14,2.46c1.69.67,3.33,1.28,4.92,1.85l-.24-.34c.62,4.53,3.67,7.61,6.48,9.51s6,2.93,8.42,2.09a8.26,8.26,0,0,0,4.26-3.57,10.27,10.27,0,0,0,.67-1.3C333.33,213.86,333.37,213.7,333.35,213.69Z" style="fill:#ff9a6c"></path><path d="M278.93,183.49a11.32,11.32,0,0,0,2.24.67c1.45.37,3.57.85,6.18,1.43s5.74,1.25,9.16,2.11a34,34,0,0,1,5.19,1.66,8.26,8.26,0,0,1,2.16,1.73c.7.7,1.39,1.42,2.09,2.16,5.59,6,11.12,11,15,14.65l4.6,4.35a11,11,0,0,0,1.76,1.54,11.11,11.11,0,0,0-1.49-1.8c-1-1.12-2.5-2.69-4.39-4.59-3.77-3.82-9.21-8.84-14.77-14.81-.71-.75-1.41-1.48-2.13-2.18a9,9,0,0,0-2.41-1.91,31.83,31.83,0,0,0-5.4-1.66c-3.46-.83-6.6-1.42-9.23-1.92l-6.25-1.13A10.75,10.75,0,0,0,278.93,183.49Z" style="fill:#ff9a6c"></path><path d="M313.27,200c-.22-.09-1,1.71-.68,4.08s1.73,3.82,1.91,3.67-.63-1.73-.95-3.82S313.56,200.09,313.27,200Z" style="fill:#ff9a6c"></path><path d="M313.26,200c.14-.22-1.23-1.33-3.06-2.46s-3.43-1.87-3.57-1.64,1.23,1.33,3.06,2.46S313.12,200.24,313.26,200Z" style="fill:#ff9a6c"></path><path d="M279.28,161.8l-.37,0-1.12-.1c-1-.09-2.48-.27-4.38-.42-3.81-.35-9.39-.74-16.41-.93s-15.5-.2-25.09.08-20.3.85-31.81,1.65l-.22,0,0-.21-6.75-28.07-.08-.33h6.87l85.91.09H286l-.05.22c-2.08,8.8-3.74,15.82-4.89,20.66-.57,2.38-1,4.23-1.31,5.5-.15.6-.27,1.07-.35,1.4s-.13.47-.13.47,0-.18.1-.51.18-.82.32-1.44c.28-1.29.7-3.15,1.24-5.55,1.09-4.83,2.68-11.83,4.67-20.61l.17.22-85.91.09h-6.52l.26-.33,6.72,28.07-.27-.2c11.52-.78,22.24-1.32,31.84-1.57s18.08-.21,25.11,0,12.61.68,16.42,1.09c1.91.17,3.34.38,4.33.5l1.13.15Z" style="fill:#263238"></path><path d="M269.57,133.78c-.05,0-.56-.66-1.59-1.8a28.13,28.13,0,0,0-5-4.22,30.12,30.12,0,0,0-8.75-3.93,44.73,44.73,0,0,0-11.7-1.51,43.25,43.25,0,0,0-11.68,1.55,33.7,33.7,0,0,0-8.8,3.88,26.23,26.23,0,0,0-4.92,4.23L216,133.29a2.36,2.36,0,0,1-.44.44,3,3,0,0,1,.36-.51c.25-.32.62-.8,1.13-1.38a24.59,24.59,0,0,1,4.87-4.41,32.82,32.82,0,0,1,8.87-4,42.65,42.65,0,0,1,11.82-1.61,43.91,43.91,0,0,1,11.83,1.57,29.52,29.52,0,0,1,8.84,4.1,25.65,25.65,0,0,1,4.88,4.39c.5.6.87,1.07,1.1,1.41A3,3,0,0,1,269.57,133.78Z" style="fill:#263238"></path><g style="opacity:0.30000000000000004"><path d="M286.14,353c-25.46,8-49,16.25-74.79,21.6l-34.87,40.15c14.59,1,29.25-1.94,43-6.82s26.83-11.63,39.82-18.36c5.51-2.85,11.74-6.76,12.1-12.95.13-2.2-.55-4.46.06-6.58.76-2.69,3.38-4.41,6-5.45s5.39-1.69,7.64-3.35S287.43,355.46,286.14,353Z"></path></g><path d="M262.42,374.51l-16.26-39.83-58,15.38s-.21-27.05.31-29c1.85-7.11,5.92-15.45,7.3-26s6.41-37.31,6.41-37.31-30.61-8.06-50.85,14.85c-7.57,8.56-11.13,18.36-10.34,29.76.53,7.8.78,23.93,1.47,34.31,1.22,18.3,1,59.19,10.72,70s35.69,5.54,44.81,1.95l58.76-24.29C264.23,381.24,262.42,374.51,262.42,374.51Z" style="fill:#f5f5f5"></path><path d="M188.19,350.06c0,.11-1.62.69-4.07,2.05a32.84,32.84,0,0,0-4.1,2.7,35.82,35.82,0,0,0-4.42,4.08,36.66,36.66,0,0,0-3.6,4.81,33.64,33.64,0,0,0-2.27,4.36c-1.11,2.58-1.51,4.29-1.62,4.26a4.57,4.57,0,0,1,.21-1.22,11.8,11.8,0,0,1,.37-1.39c.18-.54.35-1.16.63-1.81a30,30,0,0,1,2.19-4.5,34,34,0,0,1,3.63-4.92,33.33,33.33,0,0,1,4.53-4.12,29.21,29.21,0,0,1,4.24-2.64c.63-.35,1.23-.58,1.74-.81a13.24,13.24,0,0,1,1.35-.52A4.81,4.81,0,0,1,188.19,350.06Z" style="fill:#263238"></path><g style="opacity:0.30000000000000004"><path d="M186.15,350a31.78,31.78,0,0,0-24.77,23.36c-.39,1.65-.43,3.79,1.06,4.58a2.86,2.86,0,0,0,3.35-.94,9.55,9.55,0,0,0,1.56-3.39,40.91,40.91,0,0,1,20.84-23.83Z"></path></g><path d="M206.46,254.62s32.27,17.21,46.07,12.34,19.21-3.46,19.21-3.46L310.15,285l7.52,42.71c-30.05,40.18-79.79,25.85-129.48,22.31,0,0-22.08-30.88-22.08-33.32s15.1-59.86,15.1-59.86Z" style="fill:#f5f5f5"></path><g style="opacity:0.30000000000000004"><path d="M321.49,322.65l-3.12,4.68c12.77,5.62,28.43,3,42.32,4.35,5.91.58,11.85,1.78,17.72.95s11.87-4.29,13.56-10C369.54,322.9,343.92,322.41,321.49,322.65Z"></path></g><path d="M359.61,208.25,366,215l11.52,16.49s17.89,26.39,24.11,37.55c10.88,19.51,11,31.1,6.14,40.85s-14.87,16-36.38,16.8-55.19-4.72-55.19-4.72l.83,4.85c-3.68-1-55.34-64-55.34-64l13,.95c5.08-.86,33.8,1.53,40.14,4.28l44.57,11.81-28.48-48.72Z" style="fill:#f5f5f5"></path><rect x="278.11" y="295.46" width="22.09" height="4.74" style="fill:#455a64"></rect><path d="M290.76,321.64c-.11,0-.07-.78-.9-1.38a1.77,1.77,0,0,0-1.62-.19,1.69,1.69,0,0,0-1.07,1.57,1.67,1.67,0,0,0,1.07,1.56,1.74,1.74,0,0,0,1.62-.18c.83-.6.79-1.41.9-1.38s.1.18.06.51a2,2,0,0,1-.7,1.22,2.15,2.15,0,0,1-2.07.37,2.22,2.22,0,0,1,0-4.2,2.15,2.15,0,0,1,2.07.37,2,2,0,0,1,.7,1.22C290.86,321.46,290.8,321.64,290.76,321.64Z" style="fill:#263238"></path><polygon points="283.87 308.72 284.07 317.3 286.72 321.64 290.88 321.64 293.63 316.89 293.57 308.72 283.87 308.72" style="fill:#455a64"></polygon><path d="M293.78,310H283.72a1.75,1.75,0,0,1-1.75-1.75h0a1.75,1.75,0,0,1,1.75-1.75h10.06a1.75,1.75,0,0,1,1.75,1.75h0A1.75,1.75,0,0,1,293.78,310Z" style="fill:#263238"></path><polygon points="284.03 315.56 293.58 310.31 293.58 313.26 284.79 318.48 284.07 317.3 284.03 315.56" style="fill:#fff"></polygon><polygon points="289.85 323.55 290.98 323.21 291.68 324.16 292.85 324.26 293.16 325.4 294.22 325.91 294.1 327.09 294.9 327.95 294.37 329 294.8 330.1 293.93 330.88 293.94 332.06 292.83 332.48 292.42 333.58 291.24 333.57 290.45 334.45 289.36 334.01 288.3 334.54 287.44 333.74 286.27 333.86 285.75 332.8 284.62 332.49 284.52 331.31 283.57 330.61 283.9 329.48 283.28 328.48 284 327.55 283.77 326.39 284.78 325.78 284.98 324.62 286.14 324.41 286.76 323.41 287.91 323.63 288.85 322.92 289.85 323.55" style="fill:#001526"></polygon><path d="M292.74,328.71c-.06,0-.07-.33-.23-.86a3.71,3.71,0,0,0-1.35-1.87,3.38,3.38,0,1,0,0,5.45,3.73,3.73,0,0,0,1.35-1.86c.16-.54.17-.87.23-.86a1.67,1.67,0,0,1,0,.92,3.64,3.64,0,0,1-1.31,2.15,3.84,3.84,0,0,1-3.68.62,3.92,3.92,0,0,1,0-7.39,3.87,3.87,0,0,1,3.68.62,3.66,3.66,0,0,1,1.31,2.16A1.71,1.71,0,0,1,292.74,328.71Z" style="fill:#263238"></path><path d="M248.07,337.73s18.09-8.09,26.69-7.41c11.6.93,25.75,13.32,25.75,13.32-4.79,4.93-17.23,11.4-29.59,13.26l-.8-.51L260.55,369Z" style="fill:#ffbf9d"></path><path d="M307.63,285.81a10.25,10.25,0,0,1,.52,1.59c.3,1,.73,2.54,1.22,4.4,1,3.73,2.29,8.9,3.61,14.63s2.42,10.95,3.14,14.74c.36,1.9.63,3.43.81,4.5a11,11,0,0,1,.21,1.66,9.91,9.91,0,0,1-.42-1.62c-.25-1.15-.58-2.65-1-4.46-.82-3.77-2-9-3.29-14.7S309.9,295.74,309,291.9c-.42-1.81-.78-3.3-1.05-4.45A9.91,9.91,0,0,1,307.63,285.81Z" style="fill:#263238"></path><path d="M262.42,374.51a1.07,1.07,0,0,1-.09-.19l-.24-.56c-.22-.53-.52-1.26-.9-2.2-.79-2-1.91-4.77-3.33-8.32C255,356.07,251,345.93,246.3,334l.29.15-29.53,8.21-28.8,8-.32.09v-.34c.23-13.08.37-24.17.41-32,0-3.91,0-7,0-9.13,0-1.05-.06-1.86-.07-2.41l-.07-.62c0-.14,0-.21,0-.21s0,.06.05.2.07.34.11.62c0,.55.12,1.36.15,2.42.09,2.12.13,5.21.15,9.13,0,7.83,0,18.93-.21,32l-.32-.24,28.8-8,29.54-8.17.22-.06.08.21c4.65,12,8.59,22.15,11.37,29.35,1.37,3.56,2.45,6.39,3.2,8.36.36.95.63,1.7.83,2.23l.21.58C262.41,374.44,262.43,374.5,262.42,374.51Z" style="fill:#263238"></path><path d="M160.69,273.43a1.85,1.85,0,0,1,.39-.16,7.65,7.65,0,0,1,1.15-.34,13.07,13.07,0,0,1,4.41-.27,17.75,17.75,0,0,1,6.27,1.89,22.24,22.24,0,0,1,6.36,4.88,40.77,40.77,0,0,1,7.16,12.6c.67,1.73,1.15,3.15,1.48,4.14a8,8,0,0,1,.44,1.55,10.5,10.5,0,0,1-.64-1.48l-1.63-4.07a43.3,43.3,0,0,0-7.21-12.37,22.51,22.51,0,0,0-6.19-4.81A18.33,18.33,0,0,0,166.6,273,17.86,17.86,0,0,0,160.69,273.43Z" style="fill:#263238"></path><path d="M276.9,263.55a15.77,15.77,0,0,1,2.59-.21c1.7,0,4.23,0,7.5.24s7.3.56,12,1.13c2.35.29,4.86.63,7.53,1.09a47.31,47.31,0,0,1,8.37,2h0l44.57,11.76-.24.32c-8.61-14.69-18.21-31.09-28.52-48.7l-.11-.2.18-.14L359.45,208l.19-.15.17.18,6.39,6.72h0v0c2.14,3.06,4.44,6.34,6.74,9.65l5.07,7.26,4.88,7.28q4.81,7.25,9.42,14.37c3,4.76,6,9.45,8.78,14.2a102.11,102.11,0,0,1,7,14.56,43.82,43.82,0,0,1,3,15.21,28.71,28.71,0,0,1-4,14.21A25.51,25.51,0,0,1,397,321.2a42.58,42.58,0,0,1-12.54,4.25,106.85,106.85,0,0,1-23.7,1.35c-7.26-.28-13.83-.86-19.63-1.47C329.5,324.1,321,322.78,316.22,322l.07-.06c.26,1.62.45,2.83.57,3.65s.17,1.2.17,1.2-.08-.39-.22-1.19-.35-2-.63-3.65l0-.08.08,0c4.79.72,13.3,2,24.88,3.17,5.79.58,12.36,1.14,19.62,1.39a106.07,106.07,0,0,0,23.6-1.41,42.31,42.31,0,0,0,12.41-4.22,25.24,25.24,0,0,0,9.94-9.5,28,28,0,0,0,3.9-14,43.26,43.26,0,0,0-3-15,102,102,0,0,0-7-14.47c-2.73-4.73-5.74-9.42-8.78-14.17s-6.21-9.54-9.42-14.36q-2.43-3.62-4.88-7.27t-5.06-7.27l-6.74-9.64,0,0-6.38-6.72.36,0-28.71,22.82.06-.34,28.45,48.75.27.47-.52-.14-44.55-11.88h0a48,48,0,0,0-8.29-2.05c-2.66-.47-5.17-.82-7.51-1.12-4.69-.6-8.71-1-12-1.21s-5.79-.32-7.49-.32c-.85,0-1.5,0-1.93.08Z" style="fill:#263238"></path><path d="M256.78,384.26s-.23.12-.68.31l-2,.86-7.75,3.26-28.53,11.89-19.72,8.19a67.86,67.86,0,0,1-11.5,3.13A76,76,0,0,1,174,413.27a40.11,40.11,0,0,1-13.17-1.67,19.14,19.14,0,0,1-6.11-3.2,15.44,15.44,0,0,1-4.29-5.56,56.09,56.09,0,0,1-4.09-13.76c-.88-4.78-1.48-9.67-2-14.63-.79-8.35-1.19-16.56-1.53-24.54-.18-4-.34-7.92-.56-11.79s-.44-7.67-.58-11.41c-.3-7.47-.47-14.66-.8-21.5-.08-1.71-.2-3.39-.25-5.07a42.76,42.76,0,0,1,.2-5,37.29,37.29,0,0,1,2.11-9.24,42.54,42.54,0,0,1,9.06-14.4,44.27,44.27,0,0,1,5.56-5.09,43.76,43.76,0,0,1,5.67-3.76,49.94,49.94,0,0,1,17.91-5.85l-.06.06v-.08h.05l3.9-.32c.84-.07,1.25-.08,1.25-.08s-.4.06-1.25.15l-3.89.38.06-.05V257h0a50.86,50.86,0,0,0-17.78,6,46.79,46.79,0,0,0-11.1,8.84,42.27,42.27,0,0,0-8.93,14.29,37.19,37.19,0,0,0-2.05,9.15,41.72,41.72,0,0,0-.2,4.9c.06,1.65.18,3.34.27,5.06.34,6.84.52,14,.83,21.5.15,3.74.34,7.54.6,11.4s.38,7.81.56,11.79c.35,8,.76,16.18,1.54,24.52.48,5,1.07,9.83,2,14.58a56,56,0,0,0,4,13.63,15,15,0,0,0,4.15,5.38,18.55,18.55,0,0,0,5.95,3.12,39.94,39.94,0,0,0,13,1.66,76.67,76.67,0,0,0,12.49-1.33,69.79,69.79,0,0,0,11.42-3.09l19.73-8.13,28.6-11.72,7.79-3.17,2-.81Z" style="fill:#263238"></path><g style="opacity:0.30000000000000004"><path d="M255.53,291.32a37.27,37.27,0,0,0,17.25-22.74c-4.93,8.84-12.42,17-22.26,19.35-8.37,2-17.32-.45-24.71-4.87s-13.5-10.66-19.51-16.82L198.72,264A47,47,0,0,0,234,294.93a36.51,36.51,0,0,0,5.56,32.18,4.08,4.08,0,0,0,6.74,1.07,32.06,32.06,0,0,0,13.31-22.45,11.38,11.38,0,0,0,5.34.87c1.79-.3,3.53-1.8,3.43-3.62a5.33,5.33,0,0,0-1.92-3.26A52.83,52.83,0,0,0,255.53,291.32Z"></path></g><path d="M261.57,292a10.88,10.88,0,0,0-4.56-1.85,6.84,6.84,0,0,0,.05-.79c0-.2,0-.41,0-.61,8.09-6.16,17.12-16.26,19.87-25.16-2.62-5-18.86-9.84-18.86-9.84-1.57,8.94-3.46,19.59-7.06,28.55a6.38,6.38,0,0,0-1.08-.09,7.14,7.14,0,0,0-4.14,1.32,203.68,203.68,0,0,1-38-37.49c-.9-1.16-1.92-2.41-3.36-2.65s-3,.73-4.26,1.68l-12.84,9.64a172.09,172.09,0,0,0,20.5,21.5c6.71,5.6,13.85,10.9,22,14a39,39,0,0,0,13.78,2.6,7.39,7.39,0,0,0,.85,1.22c-3.86,3-6.21,8-6.67,13-.62,6.58,1.39,13.1,3.37,19.4a35.79,35.79,0,0,0,14.46-17.68,19.51,19.51,0,0,0,1.41-7.16,11.19,11.19,0,0,0,1.21.47c3.72,1.21,7.74.9,11.64.58A21.2,21.2,0,0,0,261.57,292Z" style="fill:#455a64"></path><path d="M244.7,294.36s-.1-.05-.25-.19a4.89,4.89,0,0,1-.61-.67,5.86,5.86,0,0,1-1.09-3.11,8.76,8.76,0,0,1,1.24-4.73,7.39,7.39,0,0,1,4.88-3.42,6.73,6.73,0,0,1,3.16.09,6.37,6.37,0,0,1,2.56,1.44A7.81,7.81,0,0,1,257,288a7.23,7.23,0,0,1-.08,3.29,5.4,5.4,0,0,1-.27.85c-.08.19-.12.29-.14.28a8.45,8.45,0,0,1,.2-1.17,7.85,7.85,0,0,0-.09-3.17,7.51,7.51,0,0,0-2.34-4,6,6,0,0,0-2.37-1.31,6.34,6.34,0,0,0-2.91-.07,7,7,0,0,0-4.56,3.14,8.49,8.49,0,0,0-1.28,4.47,6,6,0,0,0,.88,3C244.43,294,244.74,294.32,244.7,294.36Z" style="fill:#263238"></path><path d="M256.88,304.08c-.1,0,.11-1.51-.05-3.92a17,17,0,0,0-2.84-8.77,3.25,3.25,0,0,0-.85-.94,1.31,1.31,0,0,0-1.07-.13,21.76,21.76,0,0,0-2.36.75A17.55,17.55,0,0,0,246,293c-2,1.36-3,2.53-3,2.46a3.21,3.21,0,0,1,.65-.84,14.5,14.5,0,0,1,2.16-1.94,17.33,17.33,0,0,1,3.77-2.08,21.63,21.63,0,0,1,2.43-.8,1.81,1.81,0,0,1,1.49.2,3.84,3.84,0,0,1,1,1.07,14.08,14.08,0,0,1,2.2,4.81,19.73,19.73,0,0,1,.46,7.15A4,4,0,0,1,256.88,304.08Z" style="fill:#263238"></path><path d="M246.67,309.28a11.66,11.66,0,0,1,0-3,29.85,29.85,0,0,1,1.56-7.08,29.16,29.16,0,0,1,3.22-6.49,11.78,11.78,0,0,1,1.85-2.35,28.49,28.49,0,0,1-1.53,2.56,36.67,36.67,0,0,0-3,6.46,37.92,37.92,0,0,0-1.69,6.94A27.85,27.85,0,0,1,246.67,309.28Z" style="fill:#263238"></path><path d="M264.42,298.85a29.24,29.24,0,0,0-4.14-4.1,28.68,28.68,0,0,0-5.18-2.69,12.41,12.41,0,0,1,9.32,6.79Z" style="fill:#263238"></path><path d="M260.6,269.2c.14.09-1.78,3.22-3.54,7.37s-2.68,7.7-2.84,7.66a8.74,8.74,0,0,1,.45-2.37,41.29,41.29,0,0,1,4.54-10.69A9.09,9.09,0,0,1,260.6,269.2Z" style="fill:#263238"></path><path d="M266.31,274.24a55.61,55.61,0,0,1-5.52,5.56,57.33,57.33,0,0,1-5.9,5.16,55.61,55.61,0,0,1,5.52-5.56A57.33,57.33,0,0,1,266.31,274.24Z" style="fill:#263238"></path><path d="M229.38,279c.09-.13,3.1,1.85,7,3.94s7.22,3.52,7.16,3.67a9,9,0,0,1-2.25-.75,55.33,55.33,0,0,1-10.06-5.4A9.15,9.15,0,0,1,229.38,279Z" style="fill:#263238"></path><path d="M232.48,286.14a14.33,14.33,0,0,1,5,.62,14.06,14.06,0,0,1,4.72,1.87c-.06.14-2.17-.67-4.85-1.35S232.47,286.3,232.48,286.14Z" style="fill:#263238"></path></g></svg>
