<svg width="12" height="14" viewBox="0 0 12 14" fill="none" xmlns="http://www.w3.org/2000/svg">
<g clip-path="url(#clip0_64_5296)">
<path d="M3.92373 2.04718L0.540559 7.40045C0.276672 7.81858 0.114639 8.31568 0.0724205 8.83665C0.0302018 9.35762 0.109447 9.88212 0.301371 10.352C0.493295 10.8219 0.790402 11.2188 1.15976 11.4987C1.52912 11.7787 1.9563 11.9307 2.39395 11.938L9.02743 12.0421C9.4655 12.0498 9.897 11.912 10.2739 11.644C10.6508 11.376 10.9583 10.9884 11.1622 10.5242C11.3661 10.0601 11.4583 9.5377 11.4287 9.01514C11.3991 8.49258 11.2487 7.99038 10.9944 7.56445L7.7474 2.10717C7.53178 1.74505 7.24777 1.4489 6.91837 1.24267C6.58896 1.03644 6.22342 0.925932 5.85133 0.920095C5.47924 0.914258 5.11106 1.01325 4.77659 1.20907C4.44213 1.40488 4.15077 1.69201 3.9261 2.04722L3.92373 2.04718Z" fill="#001526"/>
</g>
<defs>
<clipPath id="clip0_64_5296">
<rect width="13.6021" height="11.3771" fill="white" transform="matrix(0.012597 -0.999921 0.999877 0.0156858 0 13.6011)"/>
</clipPath>
</defs>
</svg>
