<svg width="12" height="15" viewBox="0 0 12 15" fill="none" xmlns="http://www.w3.org/2000/svg">
<g clip-path="url(#clip0_64_5297)">
<path d="M7.66585 12.0345L11.0019 6.64451C11.2621 6.22352 11.4198 5.72467 11.4574 5.20326C11.4951 4.68185 11.4112 4.15825 11.2152 3.69048C11.0192 3.22272 10.7186 2.82908 10.3468 2.55318C9.97499 2.27728 9.54649 2.12991 9.1088 2.12739L2.47473 2.09579C2.03661 2.09289 1.60633 2.23542 1.2318 2.5075C0.857276 2.77958 0.553186 3.17055 0.353382 3.63688C0.153578 4.10321 0.0659012 4.62662 0.100108 5.14883C0.134316 5.67104 0.289067 6.17157 0.547135 6.59471L3.84183 12.0163C4.06063 12.376 4.34722 12.669 4.67842 12.8717C5.00961 13.0743 5.37611 13.1808 5.74823 13.1826C6.12035 13.1843 6.48765 13.0813 6.82038 12.8819C7.15312 12.6824 7.44194 12.3921 7.66348 12.0345L7.66585 12.0345Z" fill="#001526"/>
</g>
<defs>
<clipPath id="clip0_64_5297">
<rect width="13.6023" height="11.3769" fill="white" transform="matrix(-0.00382514 0.999993 -0.999989 -0.00476325 11.488 0.438477)"/>
</clipPath>
</defs>
</svg>
