<svg width="15" height="15" viewBox="0 0 15 15" fill="none" xmlns="http://www.w3.org/2000/svg">
<g clip-path="url(#clip0_64_4820)">
<path d="M11.5625 1.25H11.25V0.9375C11.25 0.68886 11.1512 0.450403 10.9754 0.274587C10.7996 0.098772 10.5611 0 10.3125 0V0C10.0639 0 9.8254 0.098772 9.64959 0.274587C9.47377 0.450403 9.375 0.68886 9.375 0.9375V1.25H5.625V0.9375C5.625 0.68886 5.52623 0.450403 5.35041 0.274587C5.1746 0.098772 4.93614 0 4.6875 0V0C4.43886 0 4.2004 0.098772 4.02459 0.274587C3.84877 0.450403 3.75 0.68886 3.75 0.9375V1.25H3.4375C2.52582 1.25 1.65148 1.61216 1.00682 2.25682C0.362164 2.90148 0 3.77582 0 4.6875L0 11.5625C0 12.4742 0.362164 13.3485 1.00682 13.9932C1.65148 14.6378 2.52582 15 3.4375 15H11.5625C12.4742 15 13.3485 14.6378 13.9932 13.9932C14.6378 13.3485 15 12.4742 15 11.5625V4.6875C15 3.77582 14.6378 2.90148 13.9932 2.25682C13.3485 1.61216 12.4742 1.25 11.5625 1.25ZM11.5625 13.125H3.4375C3.0231 13.125 2.62567 12.9604 2.33265 12.6674C2.03962 12.3743 1.875 11.9769 1.875 11.5625V6.25H13.125V11.5625C13.125 11.9769 12.9604 12.3743 12.6674 12.6674C12.3743 12.9604 11.9769 13.125 11.5625 13.125Z" fill="white"/>
</g>
<defs>
<clipPath id="clip0_64_4820">
<rect width="15" height="15" fill="white"/>
</clipPath>
</defs>
</svg>
