<svg width="18" height="18" viewBox="0 0 18 18" fill="none" xmlns="http://www.w3.org/2000/svg">
<g clip-path="url(#clip0_64_5483)">
<path d="M13.6966 1.48072H13.3265V1.11054C13.3265 0.816005 13.2095 0.533535 13.0012 0.325269C12.7929 0.117003 12.5105 0 12.2159 0V0C11.9214 0 11.6389 0.117003 11.4307 0.325269C11.2224 0.533535 11.1054 0.816005 11.1054 1.11054V1.48072H6.66323V1.11054C6.66323 0.816005 6.54623 0.533535 6.33796 0.325269C6.12969 0.117003 5.84722 0 5.55269 0V0C5.25816 0 4.97569 0.117003 4.76742 0.325269C4.55916 0.533535 4.44215 0.816005 4.44215 1.11054V1.48072H4.07197C2.99202 1.48072 1.9563 1.90973 1.19265 2.67337C0.42901 3.43701 0 4.47274 0 5.55269L0 13.6966C0 14.7766 0.42901 15.8123 1.19265 16.576C1.9563 17.3396 2.99202 17.7686 4.07197 17.7686H13.6966C14.7766 17.7686 15.8123 17.3396 16.576 16.576C17.3396 15.8123 17.7686 14.7766 17.7686 13.6966V5.55269C17.7686 4.47274 17.3396 3.43701 16.576 2.67337C15.8123 1.90973 14.7766 1.48072 13.6966 1.48072V1.48072ZM13.6966 15.5475H4.07197C3.58109 15.5475 3.1103 15.3525 2.76319 15.0054C2.41608 14.6583 2.22108 14.1875 2.22108 13.6966V7.40359H15.5475V13.6966C15.5475 14.1875 15.3525 14.6583 15.0054 15.0054C14.6583 15.3525 14.1875 15.5475 13.6966 15.5475Z" fill="#001526"/>
</g>
<defs>
<clipPath id="clip0_64_5483">
<rect width="17.7686" height="17.7686" fill="white"/>
</clipPath>
</defs>
</svg>
