<?xml version="1.0" encoding="UTF-8"?>
<svg version="1.1" xmlns="http://www.w3.org/2000/svg" width="1080" height="1080">
<path d="M0 0 C356.4 0 712.8 0 1080 0 C1080 356.4 1080 712.8 1080 1080 C723.6 1080 367.2 1080 0 1080 C0 723.6 0 367.2 0 0 Z " fill="#FEFEFE" transform="translate(0,0)"/>
<path d="M0 0 C2.46800047 1.15173355 4.04783565 2.04783565 6 4 C6.4021875 5.175625 6.4021875 5.175625 6.8125 6.375 C8.27084093 9.598701 10.22380836 10.88132743 13 13 C13 13.66 13 14.32 13 15 C13.99 15.33 14.98 15.66 16 16 C17.5 17.55859375 17.5 17.55859375 19 19.4375 C20.96428932 21.88774632 22.32070868 23.21380578 25 25 C23.4722133 28.43752007 21.49818944 31.18953688 19 34 C18.34 34 17.68 34 17 34 C16.71125 34.5775 16.4225 35.155 16.125 35.75 C15 38 15 38 13.953125 39.65625 C11.53687586 45.59784624 12.16892292 54.47581237 13.6171875 60.6171875 C16.19030061 66.46931201 21.39305369 70.19652684 27 73 C27 73.66 27 74.32 27 75 C36.74333536 75.53797557 43.73879699 75.79233774 52 70 C52.99 69.67 53.98 69.34 55 69 C56.11450651 66.68101445 56.11450651 66.68101445 57 64 C57.36480469 63.25621094 57.72960937 62.51242188 58.10546875 61.74609375 C62.06672868 53.29445254 60.86336687 45.8955514 59 37 C58.34 37 57.68 37 57 37 C57 36.34 57 35.68 57 35 C58.11375 34.97421875 59.2275 34.9484375 60.375 34.921875 C71.36118568 34.5548613 83.23743423 33.88128288 93.2578125 28.87109375 C95 28 95 28 98 28 C97.34580901 33.06998019 95.1453591 37.41990777 93 42 C92.34 42 91.68 42 91 42 C90.87044922 43.00160156 90.87044922 43.00160156 90.73828125 44.0234375 C89.78563377 47.86427018 88.020158 51.14824267 86.1875 54.625 C82.93743676 60.9336049 80.17969553 67.23147178 78 74 C77.34 74 76.68 74 76 74 C75.938125 74.969375 75.87625 75.93875 75.8125 76.9375 C75.14374201 81.88225603 72.57409304 85.81116224 70 90 C65.22342962 90.1210791 60.98211795 89.73307746 56.3125 88.75 C47.21742352 86.91237299 38.04203333 85.68310823 28.84887695 84.44628906 C19.08263322 83.10485056 19.08263322 83.10485056 14.765625 81.8984375 C10.1859895 80.80578588 5.93980996 80.65781766 1.25 80.6875 C0.36602539 80.69023926 -0.51794922 80.69297852 -1.42871094 80.69580078 C-7.24953593 80.78858418 -12.40672573 81.52282547 -18 83.19921875 C-21.72685306 84.19401677 -25.42648651 84.71595096 -29.25 85.1875 C-30.53390625 85.34605469 -31.8178125 85.50460937 -33.140625 85.66796875 C-37.13316472 86.01145648 -40.99606156 86.05783467 -45 86 C-45 86.66 -45 87.32 -45 88 C-47.52019972 88.33885038 -50.04098516 88.67120335 -52.5625 89 C-53.26697266 89.09539062 -53.97144531 89.19078125 -54.69726562 89.2890625 C-59.17367855 89.86666417 -63.48661238 90.09489383 -68 90 C-71.01101234 83.6718541 -74.0108439 77.33849952 -77 71 C-77.75990234 69.38931641 -77.75990234 69.38931641 -78.53515625 67.74609375 C-81.26764352 61.85059872 -83.59770922 55.8681407 -85.7890625 49.75 C-86.94690653 47.12057355 -87.92909493 45.8988077 -90 44 C-90.69437747 42.00945124 -91.35610218 40.00744615 -92 38 C-93.02004216 35.88508632 -94.09415829 33.80808147 -95.1953125 31.734375 C-96 30 -96 30 -96 28 C-94.58194169 28.28482368 -93.16559621 28.57818144 -91.75 28.875 C-90.96109375 29.03742188 -90.1721875 29.19984375 -89.359375 29.3671875 C-87 30 -87 30 -84.99609375 31.00390625 C-76.28811046 35.34937737 -64.5469753 34.57469512 -55 35 C-55 35.99 -55 36.98 -55 38 C-55.66 38 -56.32 38 -57 38 C-58.73680257 47.38158112 -59.89637042 56.89665642 -54.41796875 65.16796875 C-50.70798727 69.9613057 -47.04153345 73.5939704 -41 75 C-34.00276794 75.61683588 -27.69825057 75.06100018 -21 73 C-21 72.34 -21 71.68 -21 71 C-19.35 70.67 -17.7 70.34 -16 70 C-15.9175 69.319375 -15.835 68.63875 -15.75 67.9375 C-15 65 -15 65 -12.9375 62.1875 C-10.56555073 58.2975032 -10.62150163 54.3074368 -10.625 49.875 C-10.62363037 49.18172607 -10.62226074 48.48845215 -10.62084961 47.77416992 C-10.70526865 43.80456707 -11.03820321 40.48910166 -13 37 C-14.485 36.505 -14.485 36.505 -16 36 C-18.6875 33.5625 -18.6875 33.5625 -21 31 C-21 30.34 -21 29.68 -21 29 C-22.32 28.67 -23.64 28.34 -25 28 C-25 27.34 -25 26.68 -25 26 C-23.68 25.67 -22.36 25.34 -21 25 C-21 24.34 -21 23.68 -21 23 C-16.61538462 20 -16.61538462 20 -14 20 C-13.79375 19.319375 -13.5875 18.63875 -13.375 17.9375 C-11.03271837 12.9335347 -7.58498832 9.05665888 -3 6 C-2.27617533 3.94074861 -2.27617533 3.94074861 -2 2 C-1.34 2 -0.68 2 0 2 C0 1.34 0 0.68 0 0 Z " fill="#CFA83B" transform="translate(541,190)"/>
<path d="M0 0 C0.9075 0.66 1.815 1.32 2.75 2 C5.75027337 4.66690966 5.95166112 6.40543177 6.2734375 10.36328125 C6.58151133 22.34261368 6.58151133 22.34261368 3.875 25.8125 C-1.24346239 29.70698226 -6.1262087 30.57927957 -12.4609375 30.4453125 C-16.94552809 29.6587843 -19.96611508 27.30693456 -23 24 C-25.90428409 18.4334555 -25.69090287 12.41816005 -24 6.5 C-23.67 5.675 -23.34 4.85 -23 4 C-22.34 4 -21.68 4 -21 4 C-20.814375 3.071875 -20.814375 3.071875 -20.625 2.125 C-20 0 -20 0 -18 -2 C-11.6168982 -3.87738288 -5.4221241 -4.10322905 0 0 Z " fill="#D5B969" transform="translate(589,878)"/>
<path d="M0 0 C0 0.99 0 1.98 0 3 C0.5775 3.0825 1.155 3.165 1.75 3.25 C4.72576056 4.24192019 6.03998366 5.56687627 8 8 C9.89697527 13.84900709 9.75134792 20.49730416 7 26 C1.53947368 31 1.53947368 31 -2 31 C-2 31.66 -2 32.32 -2 33 C-7.61 33 -13.22 33 -19 33 C-19 22.11 -19 11.22 -19 0 C-12.97127109 -2.0095763 -6.15025498 -1.29479052 0 0 Z " fill="#DDC580" transform="translate(738,875)"/>
<path d="M0 0 C14.31578947 0 14.31578947 0 20 2 C22.67927341 6.01891012 22.15601248 8.24161923 22 13 C21.01 13.495 21.01 13.495 20 14 C20 14.66 20 15.32 20 16 C20.99 16.33 21.98 16.66 23 17 C24.26237731 19.52475462 24.09856404 21.31200466 24.0625 24.125 C24.05347656 25.03507813 24.04445313 25.94515625 24.03515625 26.8828125 C24.02355469 27.58148437 24.01195312 28.28015625 24 29 C21.35261084 30.4606285 20.10551666 31 17 31 C17 31.66 17 32.32 17 33 C11.39 33 5.78 33 0 33 C0 22.11 0 11.22 0 0 Z " fill="#D8BA68" transform="translate(516,875)"/>
<path d="M0 0 C15.83333333 0 15.83333333 0 20.4375 4.25 C22.32447669 7.57107898 22.6271067 9.23735977 22 13 C20.125 15.875 20.125 15.875 18 18 C17.34 18 16.68 18 16 18 C16.680625 19.3303125 16.680625 19.3303125 17.375 20.6875 C18.72004299 23.42931841 19.91038715 26.15024331 21 29 C21.66 29 22.32 29 23 29 C23 30.32 23 31.64 23 33 C21.02 33 19.04 33 17 33 C16.731875 32.236875 16.46375 31.47375 16.1875 30.6875 C15.0249027 28.05635874 14.02708537 26.94262348 12 25 C11.566875 23.948125 11.566875 23.948125 11.125 22.875 C10.75375 22.25625 10.3825 21.6375 10 21 C8.35 20.67 6.7 20.34 5 20 C5 23.96 5 27.92 5 32 C3.35 32 1.7 32 0 32 C0 21.44 0 10.88 0 0 Z " fill="#CFB25D" transform="translate(672,875)"/>
<path d="M0 0 C1.98 0 3.96 0 6 0 C14 14.13836478 14 14.13836478 14 21 C14.66 21 15.32 21 16 21 C16.66 24.63 17.32 28.26 18 32 C16.35 31.67 14.7 31.34 13 31 C12.67 29.02 12.34 27.04 12 25 C9.72879236 25.00600055 7.45766714 25.05599796 5.1875 25.125 C3.29064453 25.15980469 3.29064453 25.15980469 1.35546875 25.1953125 C-2.26656283 25.6510183 -2.26656283 25.6510183 -3.88671875 28.9921875 C-4.25410156 29.98476563 -4.62148438 30.97734375 -5 32 C-6 33 -6 33 -8.5625 33.0625 C-9.366875 33.041875 -10.17125 33.02125 -11 33 C-11.48675048 28.13249516 -10.38271767 25.35133136 -8.14453125 21.19921875 C-4.65013623 14.48473275 -2.2939888 7.19478305 0 0 Z " fill="#E2C36B" transform="translate(473,875)"/>
<path d="M0 0 C1.4540625 0.0309375 1.4540625 0.0309375 2.9375 0.0625 C6.41764383 6.52562425 8.71098596 13.08059178 10.9375 20.0625 C11.76053262 22.45104572 12.58709114 24.83819385 13.421875 27.22265625 C13.9375 29.0625 13.9375 29.0625 13.9375 32.0625 C12.6175 32.0625 11.2975 32.0625 9.9375 32.0625 C7.9375 29.0625 7.9375 29.0625 7.9375 25.0625 C3.3175 25.0625 -1.3025 25.0625 -6.0625 25.0625 C-6.3925 26.3825 -6.7225 27.7025 -7.0625 29.0625 C-7.7225 29.0625 -8.3825 29.0625 -9.0625 29.0625 C-9.0625 30.0525 -9.0625 31.0425 -9.0625 32.0625 C-10.7125 32.0625 -12.3625 32.0625 -14.0625 32.0625 C-13.92142253 30.60369891 -13.77447585 29.14546449 -13.625 27.6875 C-13.54378906 26.87539063 -13.46257813 26.06328125 -13.37890625 25.2265625 C-13.0625 23.0625 -13.0625 23.0625 -12.0625 21.0625 C-11.4025 21.0625 -10.7425 21.0625 -10.0625 21.0625 C-10.000625 19.99 -9.93875 18.9175 -9.875 17.8125 C-9.16457113 11.90639727 -6.86881197 0.14017984 0 0 Z " fill="#D0AE51" transform="translate(632.0625,874.9375)"/>
<path d="M0 0 C7.26 0 14.52 0 22 0 C22 1.65 22 3.3 22 5 C16.72 5 11.44 5 6 5 C6 7.64 6 10.28 6 13 C10.62 13 15.24 13 20 13 C20 14.65 20 16.3 20 18 C15.71 18 11.42 18 7 18 C7 20.97 7 23.94 7 27 C11.95 27 16.9 27 22 27 C22.33 28.65 22.66 30.3 23 32 C21.37799485 33.62200515 19.57976969 33.1299075 17.34375 33.1328125 C15.93416016 33.13474609 15.93416016 33.13474609 14.49609375 33.13671875 C13.50738281 33.13285156 12.51867187 33.12898437 11.5 33.125 C10.51128906 33.12886719 9.52257812 33.13273438 8.50390625 33.13671875 C7.56417969 33.13542969 6.62445313 33.13414062 5.65625 33.1328125 C4.78806641 33.13168457 3.91988281 33.13055664 3.02539062 33.12939453 C1 33 1 33 0 32 C-0.0883967 29.6243148 -0.11530305 27.27791326 -0.09765625 24.90234375 C-0.0962413 24.19348526 -0.09482635 23.48462677 -0.09336853 22.75428772 C-0.08775443 20.48198288 -0.07519963 18.20977525 -0.0625 15.9375 C-0.05748681 14.40039204 -0.05292359 12.86328255 -0.04882812 11.32617188 C-0.0386297 7.55071333 -0.01905732 3.77546596 0 0 Z " fill="#D3B45D" transform="translate(419,875)"/>
<path d="M0 0 C1.56427734 0.03673828 1.56427734 0.03673828 3.16015625 0.07421875 C5.9375 0.3125 5.9375 0.3125 8.9375 1.3125 C8.9375 2.9625 8.9375 4.6125 8.9375 6.3125 C4.9775 6.3125 1.0175 6.3125 -3.0625 6.3125 C-3.0625 8.2925 -3.0625 10.2725 -3.0625 12.3125 C-2.29164063 12.65023437 -1.52078125 12.98796875 -0.7265625 13.3359375 C0.27632812 13.78195312 1.27921875 14.22796875 2.3125 14.6875 C3.31023438 15.12835937 4.30796875 15.56921875 5.3359375 16.0234375 C7.9375 17.3125 7.9375 17.3125 9.9375 19.3125 C10.2734375 21.5546875 10.2734375 21.5546875 10.3125 24.1875 C10.34085938 25.05117188 10.36921875 25.91484375 10.3984375 26.8046875 C9.77055699 30.22078315 8.77058296 31.32156125 5.9375 33.3125 C2.58984375 33.73828125 2.58984375 33.73828125 -1.125 33.625 C-2.35347656 33.60050781 -3.58195313 33.57601562 -4.84765625 33.55078125 C-8.0625 33.3125 -8.0625 33.3125 -11.0625 32.3125 C-11.0625 30.6625 -11.0625 29.0125 -11.0625 27.3125 C-7.75179162 26.31140485 -4.76165231 26.20893866 -1.3125 26.25 C-0.32765625 26.25902344 0.6571875 26.26804687 1.671875 26.27734375 C2.79335938 26.29474609 2.79335938 26.29474609 3.9375 26.3125 C4.2675 24.6625 4.5975 23.0125 4.9375 21.3125 C4.03386719 21.17714844 3.13023437 21.04179688 2.19921875 20.90234375 C-7.14636908 19.1966463 -7.14636908 19.1966463 -9.62890625 16.80078125 C-11.57631564 12.61432146 -11.28698468 8.63901252 -10.0625 4.3125 C-7.00447169 0.32995151 -4.93742053 -0.17742899 0 0 Z " fill="#D5B661" transform="translate(780.0625,874.6875)"/>
<path d="M0 0 C3.56196344 0.06167902 4.74950281 0.10024596 7.6875 2.25 C10.9380174 7.05511268 10.67251051 11.70377176 10.125 17.375 C8.75 20.5625 8.75 20.5625 6.125 22.375 C2.6227924 23.13095712 -0.37530441 23.15522293 -3.875 22.375 C-7.26696794 19.72926501 -8.55380592 18.34360889 -9.23828125 14.1484375 C-9.37460365 9.8578692 -8.96140585 6.2000774 -6.875 2.375 C-4.38459058 -0.11540942 -3.44345643 0.05108986 0 0 Z " fill="#FEFCF5" transform="translate(578.875,879.625)"/>
<path d="M0 0 C1.98 0 3.96 0 6 0 C7.17134222 3.62350621 8.33627802 7.24903999 9.5 10.875 C9.83386719 11.90753906 10.16773438 12.94007813 10.51171875 14.00390625 C10.98544922 15.48310547 10.98544922 15.48310547 11.46875 16.9921875 C11.76201172 17.90339355 12.05527344 18.81459961 12.35742188 19.75341797 C13 22 13 22 13 24 C13.66 24 14.32 24 15 24 C17.29561809 17.40620337 19.22089072 10.75052102 21 4 C21.66 4 22.32 4 23 4 C23 2.68 23 1.36 23 0 C24.98 0 26.96 0 29 0 C27.98174676 5.17512237 26.72952808 10.05603971 24.78515625 14.9609375 C23.93845098 17.15984374 23.21685156 19.38061658 22.5 21.625 C21.30639026 25.26898318 19.82177412 28.61670521 18 32 C15.69 32 13.38 32 11 32 C10.0461501 29.61537524 9.09317823 27.23045194 8.14453125 24.84375 C7.42913213 23.06623956 6.69961814 21.29427014 5.94921875 19.53125 C3.27113104 13.16174411 1.52714599 6.73332549 0 0 Z " fill="#D2B259" transform="translate(367,876)"/>
<path d="M0 0 C10 0 10 0 13.125 1.8125 C15.88505154 6.50458762 15.86363415 10.68592681 15 16 C13.68549012 19.14870972 12.12982409 21.43508795 9 23 C6.03 23 3.06 23 0 23 C0 15.41 0 7.82 0 0 Z " fill="#FEFEF9" transform="translate(725,880)"/>
<path d="M0 0 C12 0 12 0 17 1 C17 1.99 17 2.98 17 4 C11.555 4.495 11.555 4.495 6 5 C5.06113232 12.92821594 5.1591243 20.05839619 6 28 C9.63 28.66 13.26 29.32 17 30 C17 30.99 17 31.98 17 33 C11.39 33 5.78 33 0 33 C0 22.11 0 11.22 0 0 Z " fill="#CDA73F" transform="translate(516,875)"/>
<path d="M0 0 C1.17949219 0.10183594 2.35898437 0.20367188 3.57421875 0.30859375 C4.47785156 0.39238281 5.38148438 0.47617187 6.3125 0.5625 C6.3125 1.5525 6.3125 2.5425 6.3125 3.5625 C2.6825 3.5625 -0.9475 3.5625 -4.6875 3.5625 C-4.6875 11.4825 -4.6875 19.4025 -4.6875 27.5625 C-0.0675 27.2325 4.5525 26.9025 9.3125 26.5625 C8.9825 27.8825 8.6525 29.2025 8.3125 30.5625 C5.12703711 32.15523144 1.68050652 31.66391833 -1.8125 31.625 C-4.41125 31.604375 -7.01 31.58375 -9.6875 31.5625 C-9.6875 21.3325 -9.6875 11.1025 -9.6875 0.5625 C-6.14075997 -0.61974668 -3.71227005 -0.33079634 0 0 Z " fill="#CEAC48" transform="translate(729.6875,875.4375)"/>
<path d="M0 0 C1.65 0 3.3 0 5 0 C5 1.65 5 3.3 5 5 C4.01 5 3.02 5 2 5 C1.86722656 5.67546875 1.73445313 6.3509375 1.59765625 7.046875 C1.42105469 7.93890625 1.24445313 8.8309375 1.0625 9.75 C0.88847656 10.63171875 0.71445312 11.5134375 0.53515625 12.421875 C0.07631512 14.63235053 -0.43336074 16.81512068 -1 19 C0.093125 18.938125 1.18625 18.87625 2.3125 18.8125 C6 19 6 19 9 22 C4.71 22 0.42 22 -4 22 C-4.185625 23.670625 -4.185625 23.670625 -4.375 25.375 C-5 29 -5 29 -7 31 C-9.625 31.125 -9.625 31.125 -12 31 C-12.48639676 26.13603243 -11.39091502 23.35105125 -9.140625 19.20703125 C-7.91357594 16.83277536 -6.95432488 14.4331353 -6 11.9375 C-4.34450562 7.68708386 -2.37004626 3.89364743 0 0 Z " fill="#CEAD4E" transform="translate(474,877)"/>
<path d="M0 0 C7.26 0 14.52 0 22 0 C22 1.65 22 3.3 22 5 C21.67 3.68 21.34 2.36 21 1 C14.73 1 8.46 1 2 1 C2 10.9 2 20.8 2 31 C2.66 30.67 3.32 30.34 4 30 C4 26.04 4 22.08 4 18 C4.99 18 5.98 18 7 18 C7 20.97 7 23.94 7 27 C11.95 27 16.9 27 22 27 C22.33 28.65 22.66 30.3 23 32 C21.37799485 33.62200515 19.57976969 33.1299075 17.34375 33.1328125 C15.93416016 33.13474609 15.93416016 33.13474609 14.49609375 33.13671875 C13.50738281 33.13285156 12.51867187 33.12898437 11.5 33.125 C10.51128906 33.12886719 9.52257812 33.13273438 8.50390625 33.13671875 C7.56417969 33.13542969 6.62445313 33.13414062 5.65625 33.1328125 C4.78806641 33.13168457 3.91988281 33.13055664 3.02539062 33.12939453 C1 33 1 33 0 32 C-0.0883967 29.6243148 -0.11530305 27.27791326 -0.09765625 24.90234375 C-0.0962413 24.19348526 -0.09482635 23.48462677 -0.09336853 22.75428772 C-0.08775443 20.48198288 -0.07519963 18.20977525 -0.0625 15.9375 C-0.05748681 14.40039204 -0.05292359 12.86328255 -0.04882812 11.32617188 C-0.0386297 7.55071333 -0.01905732 3.77546596 0 0 Z " fill="#DFC57D" transform="translate(419,875)"/>
<path d="M0 0 C1.65 0 3.3 0 5 0 C5.33 8.58 5.66 17.16 6 26 C10.29 26.33 14.58 26.66 19 27 C19 28.32 19 29.64 19 31 C12.73 31 6.46 31 0 31 C0 20.77 0 10.54 0 0 Z " fill="#CFB057" transform="translate(294,876)"/>
<path d="M0 0 C0 0.66 0 1.32 0 2 C-0.67546875 2.03738281 -1.3509375 2.07476563 -2.046875 2.11328125 C-2.93890625 2.17902344 -3.8309375 2.24476563 -4.75 2.3125 C-5.63171875 2.37050781 -6.5134375 2.42851563 -7.421875 2.48828125 C-10.406457 3.08067556 -11.83784037 3.87192848 -14 6 C-15.99669461 11.20415085 -15.52556197 17.19338073 -14 22.4375 C-11.0966302 26.15744256 -8.58763276 26.24792906 -4 27 C-4.33 27.66 -4.66 28.32 -5 29 C-7.64 29 -10.28 29 -13 29 C-13.33 28.01 -13.66 27.02 -14 26 C-15.65 26 -17.3 26 -19 26 C-22.252269 19.49546201 -23.05561222 14.69464277 -21 7.5 C-20.67 6.675 -20.34 5.85 -20 5 C-19.34 5 -18.68 5 -18 5 C-18 4.34 -18 3.68 -18 3 C-12.54462288 -2.05127511 -6.83292154 -0.96762505 0 0 Z " fill="#CCA946" transform="translate(586,877)"/>
<path d="M0 0 C1.98 0 3.96 0 6 0 C6.02465392 4.53897705 6.04283789 9.07791543 6.05493164 13.61694336 C6.0599714 15.16219766 6.0668032 16.70744716 6.07543945 18.25268555 C6.08752076 20.46925029 6.09323173 22.68575218 6.09765625 24.90234375 C6.10281754 25.5971434 6.10797882 26.29194305 6.11329651 27.00779724 C6.11349277 28.6722933 6.06189129 30.33665499 6 32 C5.505 32.495 5.505 32.495 5 33 C3.35 33 1.7 33 0 33 C0 22.11 0 11.22 0 0 Z " fill="#D8B964" transform="translate(337,875)"/>
<path d="M0 0 C2.35171131 0.59861742 4.6859378 1.26924352 7 2 C8.42662219 4.85324437 8.31033868 6.83454549 8 10 C6.125 12.875 6.125 12.875 4 15 C3.34 15 2.68 15 2 15 C2.45375 15.886875 2.9075 16.77375 3.375 17.6875 C4.72004299 20.42931841 5.91038715 23.15024331 7 26 C7.66 26 8.32 26 9 26 C9 27.32 9 28.64 9 30 C7.02 30 5.04 30 3 30 C2.5978125 28.8553125 2.5978125 28.8553125 2.1875 27.6875 C1.0249027 25.05635874 0.02708537 23.94262348 -2 22 C-2.33 21.319375 -2.66 20.63875 -3 19.9375 C-3.97325058 17.66757845 -3.97325058 17.66757845 -7 16 C-7 15.01 -7 14.02 -7 13 C-4.36 12.34 -1.72 11.68 1 11 C1.0309375 9.1128125 1.0309375 9.1128125 1.0625 7.1875 C1.07410156 6.47980469 1.08570313 5.77210938 1.09765625 5.04296875 C1.08263217 2.79694539 1.08263217 2.79694539 0 0 Z " fill="#D2B257" transform="translate(686,878)"/>
<path d="M0 0 C1.98 0 3.96 0 6 0 C6.19110352 0.64549805 6.38220703 1.29099609 6.57910156 1.95605469 C7.45624799 4.89148697 8.35287573 7.82061463 9.25 10.75 C9.55035156 11.76578125 9.85070312 12.7815625 10.16015625 13.828125 C10.46308594 14.8078125 10.76601563 15.7875 11.078125 16.796875 C11.35043945 17.69760742 11.62275391 18.59833984 11.90332031 19.52636719 C13.15524713 22.35017005 14.80692868 23.86342202 17 26 C17.25 28.75 17.25 28.75 17 31 C15.02 31 13.04 31 11 31 C0 8.92439863 0 8.92439863 0 0 Z " fill="#D0B159" transform="translate(367,876)"/>
<path d="M0 0 C2.64 0 5.28 0 8 0 C8.02505615 0.72179443 8.0501123 1.44358887 8.07592773 2.18725586 C8.19151302 5.437535 8.31440774 8.68749688 8.4375 11.9375 C8.47681641 13.07380859 8.51613281 14.21011719 8.55664062 15.38085938 C8.61948242 17.00024414 8.61948242 17.00024414 8.68359375 18.65234375 C8.72025146 19.65257568 8.75690918 20.65280762 8.79467773 21.68334961 C8.74671841 23.96069188 8.74671841 23.96069188 10 25 C11.66204487 25.20775561 13.33029491 25.36718255 15 25.5 C19.88888889 25.88888889 19.88888889 25.88888889 21 27 C21.04080783 28.99958364 21.04254356 31.00045254 21 33 C17.68751813 33.02888146 14.37506833 33.04675799 11.0625 33.0625 C10.11697266 33.07087891 9.17144531 33.07925781 8.19726562 33.08789062 C6.84858398 33.09272461 6.84858398 33.09272461 5.47265625 33.09765625 C4.22367554 33.10551147 4.22367554 33.10551147 2.94946289 33.11352539 C1 33 1 33 0 32 C-0.0883967 29.6243148 -0.11530305 27.27791326 -0.09765625 24.90234375 C-0.0962413 24.19348526 -0.09482635 23.48462677 -0.09336853 22.75428772 C-0.08775443 20.48198288 -0.07519963 18.20977525 -0.0625 15.9375 C-0.05748681 14.40039204 -0.05292359 12.86328255 -0.04882812 11.32617188 C-0.03778042 7.55074358 -0.02050641 3.77538829 0 0 Z M1 1 C1 11.23 1 21.46 1 32 C7.27 32 13.54 32 20 32 C20 30.68 20 29.36 20 28 C15.71 27.67 11.42 27.34 7 27 C6.67 18.42 6.34 9.84 6 1 C4.35 1 2.7 1 1 1 Z " fill="#F1E1B4" transform="translate(293,875)"/>
<path d="M0 0 C0.66 0.33 1.32 0.66 2 1 C3.95106002 6.85318005 4.44764431 15.40584861 2.09375 21.25 C-0.6224937 24.73236372 -3.76248858 26.20046954 -8 27 C-12.98804386 27.52077456 -17.32326542 27.87461884 -21.625 25 C-22.40875 24.34 -23.1925 23.68 -24 23 C-22.68 22.67 -21.36 22.34 -20 22 C-19.67 22.66 -19.34 23.32 -19 24 C-16.36 24 -13.72 24 -11 24 C-13.64 23.01 -16.28 22.02 -19 21 C-19 20.01 -19 19.02 -19 18 C-18.34 18.66 -17.68 19.32 -17 20 C-13.63487539 20.50418243 -10.36830795 20.46721691 -7 20 C-4.36483958 18.20808542 -4.36483958 18.20808542 -3 16 C-3 16.99 -3 17.98 -3 19 C-1.68 18.34 -0.36 17.68 1 17 C1.10477512 11.21408489 0.99250545 5.70690634 0 0 Z " fill="#DEC47C" transform="translate(592,881)"/>
<path d="M0 0 C0.99 0.33 1.98 0.66 3 1 C3.66666667 3.33333333 4.33333333 5.66666667 5 8 C5.99 8.33 6.98 8.66 8 9 C8.66 8.01 9.32 7.02 10 6 C12.45417612 11.673142 14.46246904 16.81839396 15 23 C13.68 23 12.36 23 11 23 C10.34 22.01 9.68 21.02 9 20 C10 17 10 17 11 15 C8.22957891 12.22957891 6.23466195 12.60203894 2.375 12.375 C1.18648437 12.30023437 -0.00203125 12.22546875 -1.2265625 12.1484375 C-2.14179687 12.09945312 -3.05703125 12.05046875 -4 12 C-3.67 10.02 -3.34 8.04 -3 6 C-2.34 6 -1.68 6 -1 6 C-0.67 4.02 -0.34 2.04 0 0 Z " fill="#E3C574" transform="translate(631,884)"/>
<path d="M0 0 C1.98 0 3.96 0 6 0 C6.64834654 1.269553 7.29357815 2.54069706 7.9375 3.8125 C8.29714844 4.52019531 8.65679688 5.22789062 9.02734375 5.95703125 C11.20213355 10.52496323 11.08135681 14.03723471 11 19 C9.1875 18.4375 9.1875 18.4375 7 17 C5.94647157 14.69034152 4.94280904 12.3570226 4 10 C3.34 9.67 2.68 9.34 2 9 C1.67 10.98 1.34 12.96 1 15 C0.06576355 11.98968256 -0.04449911 11.13349732 1 8 C0.34 8 -0.32 8 -1 8 C-1.93065133 5.39417629 -2.14917407 4.35801776 -1.0625 1.75 C-0.711875 1.1725 -0.36125 0.595 0 0 Z " fill="#DBBC65" transform="translate(629,875)"/>
<path d="M0 0 C1.051875 0.04898438 2.10375 0.09796875 3.1875 0.1484375 C4.7653125 0.19871094 4.7653125 0.19871094 6.375 0.25 C9.1875 0.5234375 9.1875 0.5234375 12.1875 1.5234375 C12.1875 3.1734375 12.1875 4.8234375 12.1875 6.5234375 C11.33285156 6.51183594 10.47820313 6.50023437 9.59765625 6.48828125 C7.94056641 6.47474609 7.94056641 6.47474609 6.25 6.4609375 C4.59677734 6.44353516 4.59677734 6.44353516 2.91015625 6.42578125 C0.27302366 6.21081179 0.27302366 6.21081179 -0.8125 7.5234375 C-1.18010731 9.85161714 -1.51491581 12.185276 -1.8125 14.5234375 C-3.1325 14.5234375 -4.4525 14.5234375 -5.8125 14.5234375 C-5.89454828 13.12861671 -5.95216204 11.73235022 -6 10.3359375 C-6.03480469 9.55863281 -6.06960938 8.78132812 -6.10546875 7.98046875 C-5.58762491 3.63748509 -4.50171843 0.83781982 0 0 Z " fill="#D0B052" transform="translate(776.8125,874.4765625)"/>
<path d="M0 0 C12 0 12 0 17 1 C17 1.33 17 1.66 17 2 C12.05 2 7.1 2 2 2 C2 11.57 2 21.14 2 31 C6.95 31 11.9 31 17 31 C17 31.66 17 32.32 17 33 C11.39 33 5.78 33 0 33 C0 22.11 0 11.22 0 0 Z " fill="#D4B866" transform="translate(516,875)"/>
<path d="M0 0 C1.79093191 -0.08086147 3.58289628 -0.13912702 5.375 -0.1875 C6.87160156 -0.23970703 6.87160156 -0.23970703 8.3984375 -0.29296875 C9.25695312 -0.19628906 10.11546875 -0.09960938 11 0 C13 3 13 3 12.8125 5.5625 C12 8 12 8 9 10 C5.97670744 10.2610788 3.04123758 10.08815181 0 10 C0 6.7 0 3.4 0 0 Z " fill="#FDF8E5" transform="translate(522,893)"/>
<path d="M0 0 C0.33 0.99 0.66 1.98 1 3 C5.62 3 10.24 3 15 3 C15.66 4.65 16.32 6.3 17 8 C13.58224994 8 10.22118827 7.75017896 6.8125 7.5 C5.54019531 7.4071875 4.26789062 7.314375 2.95703125 7.21875 C1.98121094 7.1465625 1.00539063 7.074375 0 7 C-0.33 8.32 -0.66 9.64 -1 11 C-1.66 11 -2.32 11 -3 11 C-3 11.99 -3 12.98 -3 14 C-4.65 14 -6.3 14 -8 14 C-7.88590407 12.54077307 -7.75834456 11.08259402 -7.625 9.625 C-7.55539062 8.81289063 -7.48578125 8.00078125 -7.4140625 7.1640625 C-7 5 -7 5 -5 3 C-5.53725895 6.37705625 -6.11064623 9.696686 -7 13 C-6.01 13 -5.02 13 -4 13 C-4 11.68 -4 10.36 -4 9 C-3.34 9 -2.68 9 -2 9 C-1.34 6.03 -0.68 3.06 0 0 Z " fill="#D6B65B" transform="translate(626,893)"/>
<path d="M0 0 C0.99 0 1.98 0 3 0 C3.33 8.91 3.66 17.82 4 27 C5.65 27 7.3 27 9 27 C9 27.66 9 28.32 9 29 C6.03 29 3.06 29 0 29 C0 19.43 0 9.86 0 0 Z " fill="#CFA73A" transform="translate(295,877)"/>
<path d="M0 0 C2.46800047 1.15173355 4.04783565 2.04783565 6 4 C6.268125 4.78375 6.53625 5.5675 6.8125 6.375 C8.27084093 9.598701 10.22380836 10.88132743 13 13 C13 13.66 13 14.32 13 15 C13.99 15.33 14.98 15.66 16 16 C15.67 16.66 15.34 17.32 15 18 C14.01 17.67 13.02 17.34 12 17 C12 16.34 12 15.68 12 15 C11.34 15 10.68 15 10 15 C9.34 14.01 8.68 13.02 8 12 C7.01 11.67 6.02 11.34 5 11 C4.67 8.69 4.34 6.38 4 4 C-0.23269578 5.51167706 -1.66268097 8.30552799 -4 12 C-6.47543845 15.15055802 -9.19822909 15.90171063 -13 17 C-12.09066991 15.72390677 -11.17217147 14.45434447 -10.25 13.1875 C-9.73953125 12.47980469 -9.2290625 11.77210938 -8.703125 11.04296875 C-6.9750213 8.97003702 -5.15205996 7.60492607 -3 6 C-2.20376178 3.90584196 -2.20376178 3.90584196 -2 2 C-1.34 2 -0.68 2 0 2 C0 1.34 0 0.68 0 0 Z " fill="#D4B969" transform="translate(541,190)"/>
<path d="M0 0 C0.33 0 0.66 0 1 0 C1 1.65 1 3.3 1 5 C6.28 5 11.56 5 17 5 C17 5.99 17 6.98 17 8 C12.05 8.33 7.1 8.66 2 9 C2 12.96 2 16.92 2 21 C4.97 21 7.94 21 11 21 C11 21.33 11 21.66 11 22 C7.37 22 3.74 22 0 22 C0 14.74 0 7.48 0 0 Z " fill="#CDA740" transform="translate(421,884)"/>
<path d="M0 0 C6.0546875 -0.1953125 6.0546875 -0.1953125 8 0 C10 2 10 2 10.25 5 C10 8 10 8 8 10 C5.31160615 10.26991906 2.70858064 10.08737357 0 10 C0 6.7 0 3.4 0 0 Z " fill="#FDFAEA" transform="translate(677,880)"/>
<path d="M0 0 C6.8359375 -0.1953125 6.8359375 -0.1953125 9 0 C11 2 11 2 11.125 4.625 C11.08375 5.40875 11.0425 6.1925 11 7 C7.36576791 9.32590854 4.22911669 9.16265833 0 9 C0 6.03 0 3.06 0 0 Z " fill="#FCF0CD" transform="translate(522,880)"/>
<path d="M0 0 C-0.63563742 12.51548161 -0.63563742 12.51548161 -4 16 C-6.6875 16.3125 -6.6875 16.3125 -9 16 C-9.53819128 10.61808719 -8.16492175 6.33711499 -5 2 C-1.63291139 0 -1.63291139 0 0 0 Z " fill="#CFA83C" transform="translate(471,892)"/>
<path d="M0 0 C10 0 10 0 14 3 C13.67 3.66 13.34 4.32 13 5 C9.37 3.68 5.74 2.36 2 1 C2 7.6 2 14.2 2 21 C4.97 21 7.94 21 11 21 C10.34 21.66 9.68 22.32 9 23 C6.03 23 3.06 23 0 23 C0 15.41 0 7.82 0 0 Z " fill="#F5E9BF" transform="translate(725,880)"/>
<path d="M0 0 C1.28079536 3.56323836 0.72456269 5.44503896 -0.75 8.875 C-1.12125 9.74640625 -1.4925 10.6178125 -1.875 11.515625 C-3.17649528 14.38976041 -4.53059611 17.20813261 -6 20 C-8.31 20 -10.62 20 -13 20 C-13 19.67 -13 19.34 -13 19 C-11.02 19 -9.04 19 -7 19 C-7.33 17.35 -7.66 15.7 -8 14 C-8.66 14 -9.32 14 -10 14 C-9.54917531 12.53932801 -9.08906463 11.08151968 -8.625 9.625 C-8.36976563 8.81289063 -8.11453125 8.00078125 -7.8515625 7.1640625 C-7 5 -7 5 -5 3 C-3.68 3 -2.36 3 -1 3 C-0.67 2.01 -0.34 1.02 0 0 Z " fill="#DFC16B" transform="translate(391,888)"/>
<path d="M0 0 C3.375 0.3125 3.375 0.3125 7 1 C7.66 1.99 8.32 2.98 9 4 C5.17902761 3.46930939 2.93828597 2.50298434 0 0 Z M2 2 C5 5 5 5 5.29296875 7.04296875 C5.1953125 9.02864583 5.09765625 11.01432292 5 13 C4.01 13 3.02 13 2 13 C2.33 12.67 2.66 12.34 3 12 C3.16666667 9 3.16666667 9 3 6 C1.50256881 4.50256881 0.01175761 4.66797307 -2.0625 4.4375 C-3.361875 4.293125 -4.66125 4.14875 -6 4 C-6 7.3 -6 10.6 -6 14 C-3.69 14 -1.38 14 1 14 C1 14.33 1 14.66 1 15 C-0.65 15 -2.3 15 -4 15 C-3.67 16.32 -3.34 17.64 -3 19 C-3.99 19 -4.98 19 -6 19 C-6 22.96 -6 26.92 -6 31 C-6.33 31 -6.66 31 -7 31 C-7 21.76 -7 12.52 -7 3 C-2.545 2.505 -2.545 2.505 2 2 Z " fill="#DFC271" transform="translate(683,876)"/>
<path d="M0 0 C1.77777279 3.28204207 2.95444208 6.6620246 4.12109375 10.1953125 C4.9847476 12.35468338 4.9847476 12.35468338 8 14 C8.1875 16.625 8.1875 16.625 8 19 C6.02 19 4.04 19 2 19 C0.96966118 16.87959258 -0.04902854 14.75352092 -1.0625 12.625 C-1.63097656 11.44164062 -2.19945312 10.25828125 -2.78515625 9.0390625 C-3.18605469 8.03617188 -3.58695312 7.03328125 -4 6 C-3.67 5.34 -3.34 4.68 -3 4 C-2.34 4.66 -1.68 5.32 -1 6 C-0.67 4.02 -0.34 2.04 0 0 Z " fill="#D4B458" transform="translate(376,888)"/>
<path d="M0 0 C2.475 0.99 2.475 0.99 5 2 C4.8125 3.8125 4.8125 3.8125 4 6 C3.24589844 6.44601563 2.49179687 6.89203125 1.71484375 7.3515625 C-1.20240925 9.12290173 -3.02702702 10.98741489 -5.25 13.5625 C-6.27867187 14.74005859 -6.27867187 14.74005859 -7.328125 15.94140625 C-10.31080465 19.61400479 -10.26433133 22.43949234 -10.5625 27.125 C-10.64628906 28.40632813 -10.73007812 29.68765625 -10.81640625 31.0078125 C-10.87699219 31.99523437 -10.93757812 32.98265625 -11 34 C-11.33 34 -11.66 34 -12 34 C-12.93994778 16.78851175 -12.93994778 16.78851175 -7 10 C-6.34 10 -5.68 10 -5 10 C-4.731875 9.401875 -4.46375 8.80375 -4.1875 8.1875 C-3 6 -3 6 -1.375 4.4375 C0.34561132 2.97021721 0.34561132 2.97021721 0 0 Z " fill="#F2E3B5" transform="translate(565,214)"/>
<path d="M0 0 C1.859375 0.171875 1.859375 0.171875 4 1 C5.265625 3.328125 5.265625 3.328125 6.25 6.25 C6.58515625 7.20390625 6.9203125 8.1578125 7.265625 9.140625 C7.97436316 11.90017997 8.14472517 14.16752176 8 17 C8.66 17 9.32 17 10 17 C11.905247 22.10334017 13.42589023 26.46342706 13 32 C10.6875 32.625 10.6875 32.625 8 33 C7.01 32.34 6.02 31.68 5 31 C5.33 29.68 5.66 28.36 6 27 C6.33 27.66 6.66 28.32 7 29 C8.32 29.33 9.64 29.66 11 30 C10.34 26.37 9.68 22.74 9 19 C8.34 19 7.68 19 7 19 C6.74605469 18.10796875 6.49210937 17.2159375 6.23046875 16.296875 C5.71419922 14.54117188 5.71419922 14.54117188 5.1875 12.75 C4.85105469 11.58984375 4.51460938 10.4296875 4.16796875 9.234375 C3.092774 6.25691261 1.94919575 4.43509841 0 2 C0 1.34 0 0.68 0 0 Z " fill="#FBF2D4" transform="translate(480,877)"/>
<path d="M0 0 C0.99 0 1.98 0 3 0 C3 8.58 3 17.16 3 26 C2.01 26 1.02 26 0 26 C0 17.42 0 8.84 0 0 Z " fill="#D3AC40" transform="translate(673,880)"/>
<path d="M0 0 C0.66 0 1.32 0 2 0 C5.42857143 7.28571429 5.42857143 7.28571429 5 12 C2.03 12 -0.94 12 -4 12 C-3.67 9.69 -3.34 7.38 -3 5 C-2.34 5 -1.68 5 -1 5 C-0.67 3.35 -0.34 1.7 0 0 Z " fill="#F9ECC3" transform="translate(477,883)"/>
<path d="M0 0 C3 1 3 1 4 3 C4.43052797 7.9510716 4.16033363 8.78622182 1 13 C-3.62 12.34 -8.24 11.68 -13 11 C-13 10.67 -13 10.34 -13 10 C-12.38511719 9.95101562 -11.77023437 9.90203125 -11.13671875 9.8515625 C-10.32847656 9.77679687 -9.52023437 9.70203125 -8.6875 9.625 C-7.88699219 9.55539062 -7.08648438 9.48578125 -6.26171875 9.4140625 C-3.72775559 9.10435574 -3.72775559 9.10435574 -1 7 C-0.26393501 3.43230448 -0.26393501 3.43230448 0 0 Z " fill="#D7B55B" transform="translate(535,893)"/>
<path d="M0 0 C1.953125 0.875 1.953125 0.875 4 2 C5.67957488 6.47886634 5.49408047 12.26855146 5 17 C4.34 17.66 3.68 18.32 3 19 C2.34 19 1.68 19 1 19 C0.34 19.33 -0.32 19.66 -1 20 C-0.75443359 19.00419922 -0.75443359 19.00419922 -0.50390625 17.98828125 C0.10603857 14.37116663 0.10795513 10.84139292 0.0625 7.1875 C0.05798828 6.49462891 0.05347656 5.80175781 0.04882812 5.08789062 C0.03713156 3.39188932 0.01919924 1.69593297 0 0 Z " fill="#CDA942" transform="translate(589,881)"/>
<path d="M0 0 C1.26026798 2.52053595 0.91874445 3.8542098 0.5625 6.625 C0.40974609 7.85089844 0.40974609 7.85089844 0.25390625 9.1015625 C0.17011719 9.72804688 0.08632813 10.35453125 0 11 C1.32 11 2.64 11 4 11 C4 8.69 4 6.38 4 4 C4.33 4 4.66 4 5 4 C5.061875 4.78375 5.12375 5.5675 5.1875 6.375 C5.455625 7.24125 5.72375 8.1075 6 9 C8.47636012 10.37466625 8.47636012 10.37466625 11 11 C10.360625 11.12375 9.72125 11.2475 9.0625 11.375 C8.381875 11.58125 7.70125 11.7875 7 12 C6.67 12.66 6.34 13.32 6 14 C6.598125 14.144375 7.19625 14.28875 7.8125 14.4375 C9.56150404 14.8872439 11.28677023 15.42892341 13 16 C12.67 16.66 12.34 17.32 12 18 C8.18479323 17.31986976 4.58406591 16.49380067 1 15 C-1.74673085 11.03249988 -2.05889174 8.91282198 -1.75 4.125 C-1 1 -1 1 0 0 Z " fill="#E0CA8B" transform="translate(771,878)"/>
<path d="M0 0 C0.33 0 0.66 0 1 0 C2.09845718 4.32059823 3.17812739 8.61667943 4 13 C4.66 13 5.32 13 6 13 C6 11.35 6 9.7 6 8 C8 10 8 10 8.625 12 C10.89860269 15.30705846 14.16712476 15.25815318 18 16 C17.67 16.66 17.34 17.32 17 18 C14.36 18 11.72 18 9 18 C8.67 17.01 8.34 16.02 8 15 C6.35 15 4.7 15 3 15 C0.31780178 9.63560356 -0.3152595 5.98993047 0 0 Z " fill="#CFAA46" transform="translate(564,888)"/>
<path d="M0 0 C1.98 0.495 1.98 0.495 4 1 C4.05402274 3.10388569 4.09280256 5.20816714 4.125 7.3125 C4.14820313 8.48425781 4.17140625 9.65601563 4.1953125 10.86328125 C4 14 4 14 2 17 C1.01 17 0.02 17 -1 17 C-0.67 11.39 -0.34 5.78 0 0 Z " fill="#CEAC4B" transform="translate(741,885)"/>
<path d="M0 0 C4.95 0 9.9 0 15 0 C15 0.66 15 1.32 15 2 C10.71 2 6.42 2 2 2 C2 3.65 2 5.3 2 7 C3.39025391 6.98259766 3.39025391 6.98259766 4.80859375 6.96484375 C6.00613281 6.95582031 7.20367187 6.94679688 8.4375 6.9375 C9.63246094 6.92589844 10.82742188 6.91429687 12.05859375 6.90234375 C15 7 15 7 16 8 C16.04063832 9.66617115 16.042721 11.33388095 16 13 C15.34 13 14.68 13 14 13 C14 11.35 14 9.7 14 8 C9.38 8 4.76 8 0 8 C0 5.36 0 2.72 0 0 Z " fill="#F8EBC7" transform="translate(425,880)"/>
<path d="M0 0 C0.33 0 0.66 0 1 0 C1 6.27 1 12.54 1 19 C2.8975 18.690625 4.795 18.38125 6.75 18.0625 C7.81734375 17.88847656 8.8846875 17.71445312 9.984375 17.53515625 C12.36347593 17.11295829 14.66915211 16.62797116 17 16 C17 16.99 17 17.98 17 19 C11.03325384 20.32594359 5.07416385 20.0884587 -1 20 C-1.02888514 16.85418577 -1.04675923 13.70840531 -1.0625 10.5625 C-1.07087891 9.66466797 -1.07925781 8.76683594 -1.08789062 7.84179688 C-1.09111328 6.98779297 -1.09433594 6.13378906 -1.09765625 5.25390625 C-1.10551147 4.06776733 -1.10551147 4.06776733 -1.11352539 2.85766602 C-1 1 -1 1 0 0 Z " fill="#CFA736" transform="translate(722,886)"/>
<path d="M0 0 C3 3.75 3 3.75 3 6 C4.485 5.7834375 4.485 5.7834375 6 5.5625 C12.68866708 4.61290055 19.22670653 3.72353904 26 4 C26 3.34 26 2.68 26 2 C28.64 2 31.28 2 34 2 C26.2629008 5.98998389 19.15865802 7.29782836 10.5 7.375 C9.29706299 7.39554443 9.29706299 7.39554443 8.06982422 7.41650391 C5.78125 7.3984375 5.78125 7.3984375 2 7 C0 4 0 4 0 0 Z " fill="#F4E7BF" transform="translate(470,274)"/>
<path d="M0 0 C3.96 0 7.92 0 12 0 C12 0.99 12 1.98 12 3 C11.34 3 10.68 3 10 3 C9.17459193 7.36667497 8.80846198 11.55688941 8.75 16 C8.72421875 17.175625 8.6984375 18.35125 8.671875 19.5625 C9.03202188 23.33546735 10.24518402 25.68320496 12 29 C11.67 29.66 11.34 30.32 11 31 C9 30 9 30 7.8828125 27.6796875 C6.63341787 22.47203378 6.78961695 17.45815668 6.875 12.125 C6.88402344 11.05507812 6.89304687 9.98515625 6.90234375 8.8828125 C6.92580658 6.25497561 6.95863541 3.62760594 7 1 C4.69 1 2.38 1 0 1 C0 0.67 0 0.34 0 0 Z " fill="#DEC479" transform="translate(474,225)"/>
<path d="M0 0 C3 1 3 1 4.6875 4.375 C6 8 6 8 6 11 C3.36 11 0.72 11 -2 11 C-1.125 3.375 -1.125 3.375 0 0 Z " fill="#FDF5D7" transform="translate(631,884)"/>
<path d="M0 0 C0 0.33 0 0.66 0 1 C-4.76307437 1.95261487 -9.1666528 2.08333357 -14 2 C-14 2.66 -14 3.32 -14 4 C-16.52019972 4.33885038 -19.04098516 4.67120335 -21.5625 5 C-22.26697266 5.09539062 -22.97144531 5.19078125 -23.69726562 5.2890625 C-28.17367855 5.86666417 -32.48661238 6.09489383 -37 6 C-36.67 5.34 -36.34 4.68 -36 4 C-33.29400158 3.52402634 -30.66404596 3.15906371 -27.9375 2.875 C-26.79958008 2.74544922 -26.79958008 2.74544922 -25.63867188 2.61328125 C-23.76003014 2.40060483 -21.88011364 2.19924541 -20 2 C-20 1.67 -20 1.34 -20 1 C-13.31184516 0.37577221 -6.71884955 -0.12920865 0 0 Z " fill="#D0B25B" transform="translate(510,274)"/>
<path d="M0 0 C1.79398884 0.25499841 3.58520875 0.52953814 5.375 0.8125 C6.87160156 1.03873047 6.87160156 1.03873047 8.3984375 1.26953125 C11 2 11 2 13 5 C12.01 5 11.02 5 10 5 C10.66 5.33 11.32 5.66 12 6 C12 7.65 12 9.3 12 11 C11.01 11.33 10.02 11.66 9 12 C8.67 9.69 8.34 7.38 8 5 C7.401875 4.855625 6.80375 4.71125 6.1875 4.5625 C4.43849596 4.1127561 2.71322977 3.57107659 1 3 C0.67 2.01 0.34 1.02 0 0 Z " fill="#D4B457" transform="translate(776,889)"/>
<path d="M0 0 C0.33 0 0.66 0 1 0 C1.02578125 0.9178125 1.0515625 1.835625 1.078125 2.78125 C1.50341154 11.98290424 2.90249677 17.35374515 8 25 C5.1875 24.5625 5.1875 24.5625 2 23 C-2.04767906 16.62453481 -1.56034829 8.24142408 -1 1 C-0.67 0.67 -0.34 0.34 0 0 Z " fill="#CDB058" transform="translate(552,234)"/>
<path d="M0 0 C1.32 0 2.64 0 4 0 C4.33 0.66 4.66 1.32 5 2 C7.64 2 10.28 2 13 2 C11.68 1.34 10.36 0.68 9 0 C11.97 0 14.94 0 18 0 C18 0.99 18 1.98 18 3 C17.34 3 16.68 3 16 3 C16 3.66 16 4.32 16 5 C6.31912716 5.68875775 6.31912716 5.68875775 2.375 3.0625 C1.59125 2.381875 0.8075 1.70125 0 1 C0 0.67 0 0.34 0 0 Z " fill="#D9BA6A" transform="translate(568,903)"/>
<path d="M0 0 C2.66666667 1.33333333 5.33333333 2.66666667 8 4 C8 4.66 8 5.32 8 6 C13.28 6.33 18.56 6.66 24 7 C24 7.66 24 8.32 24 9 C9.00908063 9.8226724 9.00908063 9.8226724 3 5 C1 2.25 1 2.25 0 0 Z " fill="#D2B664" transform="translate(560,259)"/>
<path d="M0 0 C0.99 0.33 1.98 0.66 3 1 C2.46375 1.515625 1.9275 2.03125 1.375 2.5625 C-0.90794324 4.82273572 -0.90794324 4.82273572 -2.390625 6.75390625 C-5.58100066 10.77545872 -7.77332776 12.8799988 -13 14 C-5.50807899 3.18748397 -5.50807899 3.18748397 0 0 Z " fill="#CEA942" transform="translate(541,193)"/>
<path d="M0 0 C0.33 0 0.66 0 1 0 C1 7.59 1 15.18 1 23 C4.63 22.67 8.26 22.34 12 22 C11.67 22.66 11.34 23.32 11 24 C8 25 8 25 -1 25 C-0.67 16.75 -0.34 8.5 0 0 Z " fill="#D4B458" transform="translate(724,880)"/>
<path d="M0 0 C2.375 -0.1875 2.375 -0.1875 5 0 C7.1519437 3.22791555 7.20086443 4.28400809 7 8 C5.68 7.67 4.36 7.34 3 7 C3 5.68 3 4.36 3 3 C-1.95 3.33 -6.9 3.66 -12 4 C-12 3.34 -12 2.68 -12 2 C-6.06 1.505 -6.06 1.505 0 1 C0 0.67 0 0.34 0 0 Z " fill="#DFBE62" transform="translate(482,897)"/>
<path d="M0 0 C1.51171875 1.16015625 1.51171875 1.16015625 3 3 C3.14453125 5.55859375 3.14453125 5.55859375 2.8125 8.4375 C2.71582031 9.38496094 2.61914062 10.33242187 2.51953125 11.30859375 C2.02278245 13.88197661 1.29807541 15.74038725 0 18 C-0.99 18 -1.98 18 -3 18 C-2.690625 17.2575 -2.38125 16.515 -2.0625 15.75 C-0.59001036 10.55297775 -0.33050945 5.37512737 0 0 Z " fill="#D0B45E" transform="translate(531,236)"/>
<path d="M0 0 C-0.66 2.97 -1.32 5.94 -2 9 C-2.66 9 -3.32 9 -4 9 C-4 10.32 -4 11.64 -4 13 C-4.99 13 -5.98 13 -7 13 C-6.40164922 8.81154456 -5.5586679 4.94251293 -4 1 C-2 0 -2 0 0 0 Z " fill="#CEA83D" transform="translate(626,893)"/>
<path d="M0 0 C1.485 0.99 1.485 0.99 3 2 C3.1875 5.125 3.1875 5.125 3 8 C3.66 8 4.32 8 5 8 C5.33 8.66 5.66 9.32 6 10 C6.99 10 7.98 10 9 10 C8.125 14.75 8.125 14.75 7 17 C6.34 17 5.68 17 5 17 C2.75519358 11.38798394 1.16651426 5.92863717 0 0 Z " fill="#F9ECC7" transform="translate(375,883)"/>
<path d="M0 0 C2.8125 -0.3125 2.8125 -0.3125 6 0 C8.49088536 2.8230034 8.9746968 4.55297679 9.1875 8.3125 C9.125625 9.199375 9.06375 10.08625 9 11 C8.01 10.67 7.02 10.34 6 10 C6 9.34 6 8.68 6 8 C5.34 8 4.68 8 4 8 C3.67 9.65 3.34 11.3 3 13 C2 10 2 10 3 7 C3.99 7 4.98 7 6 7 C6 5.35 6 3.7 6 2 C4.02 2.33 2.04 2.66 0 3 C0 2.01 0 1.02 0 0 Z " fill="#D9BD6C" transform="translate(473,875)"/>
<path d="M0 0 C1.98 0.66 3.96 1.32 6 2 C7.125 7.625 7.125 7.625 6 11 C5.01 11.33 4.02 11.66 3 12 C2.86722656 11.38511719 2.73445312 10.77023437 2.59765625 10.13671875 C2.42105469 9.32847656 2.24445312 8.52023437 2.0625 7.6875 C1.88847656 6.88699219 1.71445312 6.08648438 1.53515625 5.26171875 C1.00113841 2.854599 1.00113841 2.854599 0 0 Z " fill="#CDA73C" transform="translate(686,878)"/>
<path d="M0 0 C1.31538327 4.15771494 0.34433068 6.8879297 -1 11 C-0.34 11.33 0.32 11.66 1 12 C1.66 10.35 2.32 8.7 3 7 C3.33 7.66 3.66 8.32 4 9 C2.875 11.625 2.875 11.625 1 14 C-1.6875 14.3125 -1.6875 14.3125 -4 14 C-4.56561146 8.34388537 -2.71391278 4.77357872 0 0 Z " fill="#DBC37C" transform="translate(466,894)"/>
<path d="M0 0 C5.94 0 11.88 0 18 0 C18 0.66 18 1.32 18 2 C9.585 2.495 9.585 2.495 1 3 C0.67 3.99 0.34 4.98 0 6 C0 4.02 0 2.04 0 0 Z " fill="#CBA73C" transform="translate(421,877)"/>
<path d="M0 0 C1.29522558 3.58677852 0.70762204 5.53550702 -0.75 9 C-1.09546875 9.845625 -1.4409375 10.69125 -1.796875 11.5625 C-2.97968777 13.95884794 -4.3271744 15.92338891 -6 18 C-5.855625 17.29875 -5.71125 16.5975 -5.5625 15.875 C-4.98521625 12.92443859 -4.48304859 9.96729849 -4 7 C-4.99 7.33 -5.98 7.66 -7 8 C-6.67 6.35 -6.34 4.7 -6 3 C-5.34 3.33 -4.68 3.66 -4 4 C-3.01 3.67 -2.02 3.34 -1 3 C-0.67 2.01 -0.34 1.02 0 0 Z " fill="#E7CE89" transform="translate(391,888)"/>
<path d="M0 0 C1.99954746 -0.04254356 4.00041636 -0.04080783 6 0 C7 1 7 1 7.0625 3.5625 C7.041875 4.366875 7.02125 5.17125 7 6 C4.69 6 2.38 6 0 6 C0 4.02 0 2.04 0 0 Z " fill="#FDFEFA" transform="translate(524,881)"/>
<path d="M0 0 C3.375 0.3125 3.375 0.3125 7 1 C7.66 1.99 8.32 2.98 9 4 C5.17902761 3.46930939 2.93828597 2.50298434 0 0 Z M3.78125 3.21875 C5.91597195 6.33872824 5.18128627 9.31384576 5 13 C4.01 13 3.02 13 2 13 C2.33 12.67 2.66 12.34 3 12 C3.16666667 9 3.16666667 9 3 6 C1.41727399 4.41727399 -0.38034003 4.65264253 -2.5625 4.4375 C-3.38878906 4.35371094 -4.21507812 4.26992188 -5.06640625 4.18359375 C-5.70449219 4.12300781 -6.34257813 4.06242188 -7 4 C-7 3.67 -7 3.34 -7 3 C-5.56589632 2.75045995 -4.12739928 2.52607358 -2.6875 2.3125 C-1.88699219 2.18488281 -1.08648438 2.05726563 -0.26171875 1.92578125 C2 2 2 2 3.78125 3.21875 Z " fill="#D8BB6D" transform="translate(683,876)"/>
<path d="M0 0 C-3.40610761 3.03143578 -6.57683472 3.83163094 -11 4.75 C-12.216875 5.01296875 -13.43375 5.2759375 -14.6875 5.546875 C-17.62886183 5.9492311 -19.26552399 6.01175612 -22 5 C-18.535 4.505 -18.535 4.505 -15 4 C-15 3.34 -15 2.68 -15 2 C-9.92523206 0.73694665 -5.27203646 -0.27036084 0 0 Z " fill="#F7ECC7" transform="translate(634,219)"/>
<path d="M0 0 C0.99 0 1.98 0 3 0 C3 4.29 3 8.58 3 13 C2.01 13 1.02 13 0 13 C0 8.71 0 4.42 0 0 Z " fill="#DCB64C" transform="translate(673,880)"/>
<path d="M0 0 C2.43757413 -0.02698422 4.87484915 -0.04683099 7.3125 -0.0625 C8.00279297 -0.07087891 8.69308594 -0.07925781 9.40429688 -0.08789062 C12.5483025 -0.10307906 14.99420019 -0.00193327 18 1 C18 1.66 18 2.32 18 3 C12.06 2.67 6.12 2.34 0 2 C0 1.34 0 0.68 0 0 Z " fill="#FAF2D3" transform="translate(516,873)"/>
<path d="M0 0 C1.32 0 2.64 0 4 0 C3.25 1.875 3.25 1.875 2 4 C1.3296875 4.268125 0.659375 4.53625 -0.03125 4.8125 C-2.25606643 5.84047364 -2.25606643 5.84047364 -2.609375 8.3828125 C-2.65578125 9.28773438 -2.7021875 10.19265625 -2.75 11.125 C-2.80671875 12.03507813 -2.8634375 12.94515625 -2.921875 13.8828125 C-2.96054687 14.93082031 -2.96054687 14.93082031 -3 16 C-3.33 16 -3.66 16 -4 16 C-4.37804878 6.3597561 -4.37804878 6.3597561 -2 2 C-1.34 1.34 -0.68 0.68 0 0 Z " fill="#F4E8C2" transform="translate(574,880)"/>
<path d="M0 0 C6.93580233 6.75328121 6.93580233 6.75328121 7.1953125 11.79296875 C7.18205484 13.25794 7.15825851 14.72284632 7.125 16.1875 C7.11597656 16.93708984 7.10695313 17.68667969 7.09765625 18.45898438 C7.07412578 20.30612654 7.03825561 22.15310412 7 24 C6.67 24 6.34 24 6 24 C5.86722656 22.97519531 5.73445312 21.95039063 5.59765625 20.89453125 C5.41935912 19.5338426 5.24096877 18.17316615 5.0625 16.8125 C4.97548828 16.13896484 4.88847656 15.46542969 4.79882812 14.77148438 C4.32174523 11.14918834 3.76987965 7.57196415 3 4 C2.01 3.67 1.02 3.34 0 3 C0 2.01 0 1.02 0 0 Z " fill="#F8ECC6" transform="translate(524,224)"/>
<path d="M0 0 C1.43088528 2.86177057 0.59991697 4.93375773 0 8 C0.66 8.33 1.32 8.66 2 9 C2 10.32 2 11.64 2 13 C2.66 13 3.32 13 4 13 C4 14.65 4 16.3 4 18 C3.67 16.68 3.34 15.36 3 14 C2.34 14 1.68 14 1 14 C-0.2890625 12.35546875 -0.2890625 12.35546875 -1.625 10.1875 C-2.07101562 9.47980469 -2.51703125 8.77210938 -2.9765625 8.04296875 C-4 6 -4 6 -4 3 C-2 1.3125 -2 1.3125 0 0 Z " fill="#F2E5BB" transform="translate(692,890)"/>
<path d="M0 0 C1.60407328 -0.02708567 3.2082785 -0.04643483 4.8125 -0.0625 C5.70582031 -0.07410156 6.59914063 -0.08570313 7.51953125 -0.09765625 C10 0 10 0 13 1 C14.39712274 2.95597184 15.73779907 4.95436401 17 7 C13 5 13 5 11.1875 3.9375 C8.55337368 2.80858872 6.60335563 2.79991169 3.75 2.875 C2.41195312 2.90207031 2.41195312 2.90207031 1.046875 2.9296875 C0.37140625 2.95289063 -0.3040625 2.97609375 -1 3 C-0.67 2.01 -0.34 1.02 0 0 Z " fill="#F5EAC4" transform="translate(575,873)"/>
<path d="M0 0 C3 1 3 1 4.1875 2.6875 C5.19313465 5.54969093 5.13689641 7.98827908 5 11 C1.125 9.25 1.125 9.25 0 7 C-0.04022391 4.6670134 -0.04320247 2.33293334 0 0 Z " fill="#D1AF4F" transform="translate(635,883)"/>
<path d="M0 0 C4.62 0 9.24 0 14 0 C14 0.33 14 0.66 14 1 C10.7 1.33 7.4 1.66 4 2 C4.33 3.32 4.66 4.64 5 6 C5.03888349 8.33300933 5.0448635 10.66709801 5 13 C4.67 13 4.34 13 4 13 C3.34 9.37 2.68 5.74 2 2 C1.34 2 0.68 2 0 2 C0 1.34 0 0.68 0 0 Z " fill="#D9BF77" transform="translate(598,225)"/>
<path d="M0 0 C5.61 0 11.22 0 17 0 C17 0.66 17 1.32 17 2 C5.47835991 4.66514806 5.47835991 4.66514806 0 2 C0 1.34 0 0.68 0 0 Z " fill="#FCF7DE" transform="translate(771,907)"/>
<path d="M0 0 C2.12046792 3.53411321 2.53199289 6.94393835 3 11 C1.68 11 0.36 11 -1 11 C-1.66 10.01 -2.32 9.02 -3 8 C-2.67 7.01 -2.34 6.02 -2 5 C-1.67 5 -1.34 5 -1 5 C-0.67 3.35 -0.34 1.7 0 0 Z " fill="#D9BB66" transform="translate(643,896)"/>
<path d="M0 0 C1.98 0 3.96 0 6 0 C10.40774487 8.261959 10.40774487 8.261959 11 13 C8.29391583 11.64695791 8.03816953 10.19033456 6.875 7.4375 C6.52179687 6.61121094 6.16859375 5.78492188 5.8046875 4.93359375 C5.53914062 4.29550781 5.27359375 3.65742187 5 3 C3.02 3 1.04 3 -1 3 C-0.67 2.01 -0.34 1.02 0 0 Z " fill="#E1CA8A" transform="translate(629,875)"/>
<path d="M0 0 C1.32 0 2.64 0 4 0 C4 1.32 4 2.64 4 4 C2.35 4 0.7 4 -1 4 C-0.67 2.68 -0.34 1.36 0 0 Z M-2 4 C-1.34 4.33 -0.68 4.66 0 5 C-0.66 7.64 -1.32 10.28 -2 13 C-2.66 13 -3.32 13 -4 13 C-3.34 10.03 -2.68 7.06 -2 4 Z " fill="#D1A837" transform="translate(475,877)"/>
<path d="M0 0 C1.134375 0.020625 2.26875 0.04125 3.4375 0.0625 C-0.03155388 3.53155388 -3.8183348 3.22034897 -8.5625 3.25 C-9.59375 3.26417969 -10.625 3.27835937 -11.6875 3.29296875 C-14.52795203 3.06526947 -16.15357948 2.52754061 -18.5625 1.0625 C-17.56347656 1.07410156 -16.56445312 1.08570313 -15.53515625 1.09765625 C-14.24480469 1.10667969 -12.95445312 1.11570312 -11.625 1.125 C-9.69333984 1.14240234 -9.69333984 1.14240234 -7.72265625 1.16015625 C-3.92265661 1.04272734 -3.94828601 0.06926818 0 0 Z " fill="#F8EBC4" transform="translate(514.5625,262.9375)"/>
<path d="M0 0 C0.33 0 0.66 0 1 0 C1.02715383 1.74991334 1.04646551 3.49994945 1.0625 5.25 C1.07410156 6.22453125 1.08570313 7.1990625 1.09765625 8.203125 C1.01195577 10.65758678 0.70706066 12.66168914 0 15 C0.66 15.33 1.32 15.66 2 16 C1.01 16.66 0.02 17.32 -1 18 C-1 17.01 -1 16.02 -1 15 C-1.99 15 -2.98 15 -4 15 C-3 13 -2 11 -1 9 C-0.77532169 7.46331135 -0.59203195 5.92031946 -0.4375 4.375 C-0.35371094 3.55773437 -0.26992188 2.74046875 -0.18359375 1.8984375 C-0.12300781 1.27195312 -0.06242188 0.64546875 0 0 Z " fill="#DCC075" transform="translate(740,887)"/>
<path d="M0 0 C0.33 0 0.66 0 1 0 C1 3.3 1 6.6 1 10 C2.32 10 3.64 10 5 10 C5 10.66 5 11.32 5 12 C3.68 12 2.36 12 1 12 C1 15.63 1 19.26 1 23 C0.67 23 0.34 23 0 23 C-0.79773542 15.16992004 -1.14500285 7.80363479 0 0 Z " fill="#D9BB66" transform="translate(521,880)"/>
<path d="M0 0 C1.18851563 0.00902344 2.37703125 0.01804687 3.6015625 0.02734375 C4.51679687 0.03894531 5.43203125 0.05054688 6.375 0.0625 C6.705 1.0525 7.035 2.0425 7.375 3.0625 C2.095 3.0625 -3.185 3.0625 -8.625 3.0625 C-8.625 2.4025 -8.625 1.7425 -8.625 1.0625 C-5.74084117 -0.37957941 -3.20778472 -0.03144887 0 0 Z " fill="#FAF3D4" transform="translate(781.625,872.9375)"/>
<path d="M0 0 C12.66970387 -0.3690205 12.66970387 -0.3690205 18 2 C18 2.33 18 2.66 18 3 C15.37405216 2.8863485 12.74988453 2.75960946 10.125 2.625 C9.37863281 2.5940625 8.63226562 2.563125 7.86328125 2.53125 C2.2265625 2.2265625 2.2265625 2.2265625 0 0 Z " fill="#D3B863" transform="translate(558,271)"/>
<path d="M0 0 C0.99 0 1.98 0 3 0 C3.66 1.98 4.32 3.96 5 6 C3.35 5.01 1.7 4.02 0 3 C0 3.66 0 4.32 0 5 C-0.66 5 -1.32 5 -2 5 C-2.12375 5.804375 -2.2475 6.60875 -2.375 7.4375 C-2.58125 8.283125 -2.7875 9.12875 -3 10 C-3.99 10.495 -3.99 10.495 -5 11 C-4.34 8.03 -3.68 5.06 -3 2 C-2.01 2 -1.02 2 0 2 C0 1.34 0 0.68 0 0 Z " fill="#F4E8C4" transform="translate(541,187)"/>
<path d="M0 0 C0.33 0.99 0.66 1.98 1 3 C-2.15314785 5.10209857 -2.86103081 5.2434761 -6.44921875 5.1953125 C-7.72055664 5.18564453 -7.72055664 5.18564453 -9.01757812 5.17578125 C-9.89865234 5.15902344 -10.77972656 5.14226563 -11.6875 5.125 C-12.58017578 5.11597656 -13.47285156 5.10695313 -14.39257812 5.09765625 C-16.59532314 5.07409748 -18.79752588 5.04120329 -21 5 C-21 4.67 -21 4.34 -21 4 C-15.39 4 -9.78 4 -4 4 C-4 3.34 -4 2.68 -4 2 C-2.68 1.34 -1.36 0.68 0 0 Z " fill="#FAF1D1" transform="translate(537,904)"/>
<path d="M0 0 C0.33 0 0.66 0 1 0 C1 3.63 1 7.26 1 11 C1.66 11 2.32 11 3 11 C3 12.65 3 14.3 3 16 C2.34 16 1.68 16 1 16 C-1.25929298 11.48141403 -1.23967948 7.95337583 -1 3 C-0.67 2.01 -0.34 1.02 0 0 Z " fill="#D0A737" transform="translate(567,885)"/>
<path d="M0 0 C1.32 0.33 2.64 0.66 4 1 C4.125 8.625 4.125 8.625 3 12 C2.34 12 1.68 12 1 12 C1.33 9.03 1.66 6.06 2 3 C1.34 3 0.68 3 0 3 C0 2.01 0 1.02 0 0 Z " fill="#CDA73C" transform="translate(741,885)"/>
<path d="M0 0 C1.98 0 3.96 0 6 0 C6.53190541 1.43344 7.05015258 2.87195367 7.5625 4.3125 C7.85253906 5.11300781 8.14257812 5.91351562 8.44140625 6.73828125 C9 9 9 9 8 12 C8 11.34 8 10.68 8 10 C6.68 9.67 5.36 9.34 4 9 C4.33 6.36 4.66 3.72 5 1 C3.35 1.33 1.7 1.66 0 2 C0 1.34 0 0.68 0 0 Z " fill="#D2B560" transform="translate(367,876)"/>
<path d="M0 0 C1.93607846 2.8471742 1.98954766 4.15417196 1.75 7.6875 C1.5025 8.780625 1.255 9.87375 1 11 C0.01 11.495 0.01 11.495 -1 12 C-2.06775224 10.03533587 -3.06553465 8.03144641 -4 6 C-3.67 5.34 -3.34 4.68 -3 4 C-2.34 4.66 -1.68 5.32 -1 6 C-0.67 4.02 -0.34 2.04 0 0 Z " fill="#D7B964" transform="translate(376,888)"/>
<path d="M0 0 C-4.1373656 2.41346327 -9.45467653 4.5081809 -14.25 3.55078125 C-14.8275 3.36902344 -15.405 3.18726563 -16 3 C-15.67 2.34 -15.34 1.68 -15 1 C-9.95057555 0.12940958 -5.1135805 -0.10653293 0 0 Z " fill="#D7BB6B" transform="translate(532,270)"/>
<path d="M0 0 C3.76672999 2.39700999 6.8555298 4.8555298 10 8 C12.13309192 9.23512079 12.13309192 9.23512079 14 10 C6.54062751 9.38857603 6.54062751 9.38857603 4 7.5625 C3 6 3 6 3 4 C2.34 4 1.68 4 1 4 C0.67 2.68 0.34 1.36 0 0 Z " fill="#D5BC6D" transform="translate(486,256)"/>
<path d="M0 0 C1 2 1 2 0.1875 5 C-1 8 -1 8 -3 10 C-3.39764263 11.98821313 -3.73775349 13.98944339 -4 16 C-4.66 16 -5.32 16 -6 16 C-5.59683075 9.68368172 -3.28767869 5.35006016 0 0 Z " fill="#F2E4B7" transform="translate(627,244)"/>
<path d="M0 0 C3.63 0 7.26 0 11 0 C11 0.66 11 1.32 11 2 C11.66 2 12.32 2 13 2 C12.67 2.66 12.34 3.32 12 4 C9.36 3.67 6.72 3.34 4 3 C4 2.34 4 1.68 4 1 C2.68 0.67 1.36 0.34 0 0 Z " fill="#CFAB47" transform="translate(522,889)"/>
<path d="M0 0 C4.29 0 8.58 0 13 0 C12.67 0.66 12.34 1.32 12 2 C9.27734375 2.4140625 9.27734375 2.4140625 5.9375 2.625 C4.83277344 2.69976563 3.72804688 2.77453125 2.58984375 2.8515625 C1.73519531 2.90054688 0.88054688 2.94953125 0 3 C0 2.01 0 1.02 0 0 Z " fill="#CEA93B" transform="translate(673,877)"/>
<path d="M0 0 C2.64 0 5.28 0 8 0 C8 1.98 8 3.96 8 6 C7.34 6 6.68 6 6 6 C5.67 6.66 5.34 7.32 5 8 C5.33 6.02 5.66 4.04 6 2 C4.02 2 2.04 2 0 2 C0 1.34 0 0.68 0 0 Z " fill="#F6EBCA" transform="translate(390,874)"/>
<path d="M0 0 C0.33 0.66 0.66 1.32 1 2 C1.66 2 2.32 2 3 2 C3.33 3.32 3.66 4.64 4 6 C1.69 6 -0.62 6 -3 6 C-1.125 1.125 -1.125 1.125 0 0 Z " fill="#FEFDF4" transform="translate(477,888)"/>
<path d="M0 0 C2.64 0 5.28 0 8 0 C8.33 2.31 8.66 4.62 9 7 C8.34 6.34 7.68 5.68 7 5 C7 3.68 7 2.36 7 1 C5.02 1 3.04 1 1 1 C1.33 2.98 1.66 4.96 2 7 C1.67 6.34 1.34 5.68 1 5 C0.34 5 -0.32 5 -1 5 C-0.67 3.35 -0.34 1.7 0 0 Z " fill="#F1E6BE" transform="translate(366,875)"/>
<path d="M0 0 C1 2 1 2 0.3125 4.4375 C-1.14195524 7.27715071 -2.1879596 8.51127273 -5 10 C-7.25 9.6875 -7.25 9.6875 -9 9 C-8.34 9 -7.68 9 -7 9 C-7 8.34 -7 7.68 -7 7 C-5.35 6.67 -3.7 6.34 -2 6 C-1.855625 5.195625 -1.71125 4.39125 -1.5625 3.5625 C-1 1 -1 1 0 0 Z " fill="#D2B665" transform="translate(527,254)"/>
<path d="M0 0 C0.66 0 1.32 0 2 0 C1.690625 0.5775 1.38125 1.155 1.0625 1.75 C0.07416636 3.84294184 -0.5168613 5.74535275 -1 8 C-2.65 8.33 -4.3 8.66 -6 9 C-6 9.66 -6 10.32 -6 11 C-6.66 10.67 -7.32 10.34 -8 10 C-7 8 -7 8 -4 7 C-2.9349985 5.03384339 -1.93166826 3.03273074 -1 1 C-0.67 0.67 -0.34 0.34 0 0 Z " fill="#F6EECB" transform="translate(526,252)"/>
<path d="M0 0 C1.46015291 0.28241641 2.91809793 0.57626614 4.375 0.875 C5.18710937 1.03742188 5.99921875 1.19984375 6.8359375 1.3671875 C9 2 9 2 11 4 C8.36 4 5.72 4 3 4 C2.67 4.66 2.34 5.32 2 6 C1.34 4.02 0.68 2.04 0 0 Z " fill="#DDC37D" transform="translate(445,218)"/>
<path d="M0 0 C0.33 0 0.66 0 1 0 C2.31727753 5.0056546 3.35812082 9.86496656 4 15 C1.45585961 12.78770401 0.45253153 11.34873329 0 8 C-0.07182357 5.32713725 -0.04458486 2.67509154 0 0 Z " fill="#D9BE78" transform="translate(564,888)"/>
<path d="M0 0 C0.33 1.32 0.66 2.64 1 4 C-3.625 7 -3.625 7 -7 7 C-7 7.66 -7 8.32 -7 9 C-8.32 8.67 -9.64 8.34 -11 8 C-9.71186658 7.16121545 -8.41936744 6.32913217 -7.125 5.5 C-6.40570312 5.0359375 -5.68640625 4.571875 -4.9453125 4.09375 C-3 3 -3 3 -1 3 C-0.67 2.01 -0.34 1.02 0 0 Z " fill="#D8BF76" transform="translate(597,256)"/>
<path d="M0 0 C1.65 0 3.3 0 5 0 C5 0.99 5 1.98 5 3 C5.66 3 6.32 3 7 3 C7 3.99 7 4.98 7 6 C7.66 6 8.32 6 9 6 C9.33 7.32 9.66 8.64 10 10 C9.34 9.67 8.68 9.34 8 9 C8 8.34 8 7.68 8 7 C7.01 6.67 6.02 6.34 5 6 C3.15500602 4.12382302 1.6316401 2.07262391 0 0 Z " fill="#D8BE71" transform="translate(520,220)"/>
<path d="M0 0 C-0.49831724 3.68754757 -1.10067643 5.60490662 -4 8 C-4 6.35 -4 4.7 -4 3 C-4.99 2.67 -5.98 2.34 -7 2 C-4.35261084 0.5393715 -3.10551666 0 0 0 Z " fill="#DCC277" transform="translate(639,218)"/>
<path d="M0 0 C2.31 0 4.62 0 7 0 C6.67 1.32 6.34 2.64 6 4 C4.35 4 2.7 4 1 4 C0.67 2.68 0.34 1.36 0 0 Z " fill="#CFAA45" transform="translate(679,891)"/>
<path d="M0 0 C3.42025316 3.42025316 3.95344801 7.71982025 4.125 12.4375 C4.08375 13.283125 4.0425 14.12875 4 15 C2.38274466 11.99049877 1.32417377 9.02896392 0.375 5.75 C-0.01558594 4.41195312 -0.01558594 4.41195312 -0.4140625 3.046875 C-0.60742188 2.37140625 -0.80078125 1.6959375 -1 1 C-0.67 0.67 -0.34 0.34 0 0 Z " fill="#FAF1D1" transform="translate(642,889)"/>
<path d="M0 0 C0.66 0 1.32 0 2 0 C1.34 3.3 0.68 6.6 0 10 C-0.66 10 -1.32 10 -2 10 C-2.25 3.375 -2.25 3.375 0 0 Z " fill="#F8EECB" transform="translate(622,886)"/>
<path d="M0 0 C1.32 0.33 2.64 0.66 4 1 C4 4.3 4 7.6 4 11 C3.34 11 2.68 11 2 11 C2 10.34 2 9.68 2 9 C0.68 8.67 -0.64 8.34 -2 8 C-0.68 7.67 0.64 7.34 2 7 C1.34 4.69 0.68 2.38 0 0 Z " fill="#DAB964" transform="translate(531,880)"/>
<path d="M0 0 C8.19256018 -0.4726477 8.19256018 -0.4726477 11.5625 1.5 C12.036875 1.995 12.51125 2.49 13 3 C12.67 3.66 12.34 4.32 12 5 C10.948125 4.525625 9.89625 4.05125 8.8125 3.5625 C5.89824149 2.30676259 3.15253086 1.47765619 0 1 C0 0.67 0 0.34 0 0 Z " fill="#F9F2D0" transform="translate(726,880)"/>
<path d="M0 0 C3.63 0.66 7.26 1.32 11 2 C9.68 2.99 8.36 3.98 7 5 C3.8125 4.375 3.8125 4.375 1 3 C0.67 2.01 0.34 1.02 0 0 Z " fill="#CDAE51" transform="translate(776,889)"/>
<path d="M0 0 C2.475 0.495 2.475 0.495 5 1 C5 2.32 5 3.64 5 5 C3.35 5 1.7 5 0 5 C0 3.35 0 1.7 0 0 Z " fill="#D3AE41" transform="translate(379,901)"/>
<path d="M0 0 C3 1 3 1 4 3 C4.039992 4.99960012 4.04346799 7.00047242 4 9 C3.67 8.34 3.34 7.68 3 7 C2.34 7 1.68 7 1 7 C0.67 4.69 0.34 2.38 0 0 Z " fill="#DAB549" transform="translate(535,893)"/>
<path d="M0 0 C2.41824533 2.41824533 3.50075874 4.9390491 5 8 C5.99 9.485 5.99 9.485 7 11 C5.02 10.34 3.04 9.68 1 9 C0.67 6.03 0.34 3.06 0 0 Z " fill="#D1B662" transform="translate(553,248)"/>
<path d="M0 0 C0.99 0 1.98 0 3 0 C4.4783226 2.95664519 4.06032783 5.74229737 4 9 C3.34 8.67 2.68 8.34 2 8 C2 6.35 2 4.7 2 3 C1.34 3 0.68 3 0 3 C0 2.01 0 1.02 0 0 Z " fill="#CFA93E" transform="translate(372,886)"/>
<path d="M0 0 C1.65 0 3.3 0 5 0 C5 1.32 5 2.64 5 4 C3.35 4 1.7 4 0 4 C0 2.68 0 1.36 0 0 Z " fill="#CEA738" transform="translate(629,877)"/>
<path d="M0 0 C0.33 0.66 0.66 1.32 1 2 C-0.4726862 5.27263601 -1.42695432 6.72014048 -4.6875 8.3125 C-5.450625 8.539375 -6.21375 8.76625 -7 9 C-6.02180976 7.68677212 -5.0424189 6.37443848 -4.0625 5.0625 C-3.51722656 4.33160156 -2.97195313 3.60070312 -2.41015625 2.84765625 C-1 1 -1 1 0 0 Z " fill="#DCC37D" transform="translate(535,198)"/>
<path d="M0 0 C1.32 0 2.64 0 4 0 C4 2.31 4 4.62 4 7 C3.34 6.67 2.68 6.34 2 6 C2 5.01 2 4.02 2 3 C1.34 3 0.68 3 0 3 C0 2.01 0 1.02 0 0 Z " fill="#CDA83C" transform="translate(368,877)"/>
<path d="M0 0 C0.66 0.33 1.32 0.66 2 1 C-0.75 7.75 -0.75 7.75 -3 10 C-2.69201674 8.51988629 -2.378482 7.04092675 -2.0625 5.5625 C-1.88847656 4.73878906 -1.71445312 3.91507812 -1.53515625 3.06640625 C-1 1 -1 1 0 0 Z " fill="#CFB25C" transform="translate(615,266)"/>
<path d="M0 0 C2.62187494 1.04874998 3.79371361 1.64931313 5.25 4.125 C5.4975 4.74375 5.745 5.3625 6 6 C5.01 5.34 4.02 4.68 3 4 C0.37468476 3.83286431 0.37468476 3.83286431 -2 4 C-2 3.34 -2 2.68 -2 2 C-1.34 2 -0.68 2 0 2 C0 1.34 0 0.68 0 0 Z " fill="#DBC175" transform="translate(541,190)"/>
<path d="M0 0 C0.99 0.33 1.98 0.66 3 1 C3 2.65 3 4.3 3 6 C2.01 6 1.02 6 0 6 C0 4.02 0 2.04 0 0 Z " fill="#DFB748" transform="translate(673,900)"/>
<path d="M0 0 C1.98 0.99 1.98 0.99 4 2 C4 2.99 4 3.98 4 5 C2.68 5 1.36 5 0 5 C0 3.35 0 1.7 0 0 Z " fill="#FEFEFB" transform="translate(631,888)"/>
<path d="M0 0 C2 1 2 1 3.1875 3.3125 C4.03624754 6.11989571 3.99928333 7.301935 3 10 C3 9.34 3 8.68 3 8 C2.34 8 1.68 8 1 8 C0.67 5.36 0.34 2.72 0 0 Z " fill="#E8D087" transform="translate(482,882)"/>
<path d="M0 0 C0.99 0 1.98 0 3 0 C3 0.99 3 1.98 3 3 C2.34 3 1.68 3 1 3 C0.67 4.32 0.34 5.64 0 7 C-1.125 2.25 -1.125 2.25 0 0 Z " fill="#CFA838" transform="translate(391,877)"/>
</svg>
