<svg width="120" height="120" viewBox="0 0 120 120" fill="none" xmlns="http://www.w3.org/2000/svg">
<g clip-path="url(#clip0_64_3740)">
<path d="M60 0C26.8629 0 0 26.8629 0 60C0 93.1371 26.8629 120 60 120C93.1371 120 120 93.1371 120 60C119.964 26.8777 93.1223 0.0358594 60 0ZM60 105C35.1471 105 15 84.8529 15 60C15 35.1471 35.1471 15 60 15C84.8529 15 105 35.1471 105 60C104.972 84.8414 84.8414 104.972 60 105Z" fill="#001526"/>
<path d="M60 75.4552C64.1421 75.4552 67.5 72.0974 67.5 67.9552V32.9553C67.5 28.8132 64.1421 25.4553 60 25.4553C55.8579 25.4553 52.5 28.8132 52.5 32.9553V67.9552C52.5 72.0974 55.8579 75.4552 60 75.4552Z" fill="#001526"/>
<path d="M60.0254 95C64.1675 95 67.5254 91.6421 67.5254 87.5C67.5254 83.3579 64.1675 80 60.0254 80C55.8833 80 52.5254 83.3579 52.5254 87.5C52.5254 91.6421 55.8833 95 60.0254 95Z" fill="#001526"/>
</g>
<defs>
<clipPath id="clip0_64_3740">
<rect width="120" height="120" fill="white"/>
</clipPath>
</defs>
</svg>
