<svg width="110" height="110" viewBox="0 0 110 110" fill="none" xmlns="http://www.w3.org/2000/svg">
<g clip-path="url(#clip0_64_5498)">
<path d="M102.755 45.8329C97.729 39.0086 90.5608 34.0657 82.3956 31.7942C79.849 22.4566 73.7921 14.4645 65.4907 9.48822C57.1893 4.51199 47.2859 2.93673 37.8502 5.09168C32.4689 6.32224 27.4261 8.72676 23.0824 12.1333C18.7387 15.5398 15.2015 19.864 12.7237 24.7968C10.2459 29.7296 8.88881 35.149 8.74947 40.6674C8.61012 46.1858 9.69198 51.6668 11.9176 56.7184C7.26729 59.7737 3.69682 64.2155 1.71255 69.4139C-0.271719 74.6124 -0.569075 80.3035 0.862649 85.6804C2.4366 91.4369 5.886 96.5037 10.6646 100.078C15.4431 103.653 21.2777 105.532 27.2443 105.416H38.9593C40.7827 105.416 42.5314 104.692 43.8207 103.403C45.11 102.113 45.8343 100.365 45.8343 98.5413C45.8343 96.7179 45.11 94.9692 43.8207 93.6799C42.5314 92.3906 40.7827 91.6663 38.9593 91.6663H27.2443C24.3474 91.7451 21.5044 90.8726 19.1503 89.1824C16.7962 87.4921 15.0607 85.0772 14.2093 82.3071C13.7632 80.668 13.6469 78.9567 13.8672 77.2723C14.0875 75.5879 14.6401 73.964 15.4928 72.4948C16.3455 71.0256 17.4814 69.7403 18.8346 68.7135C20.1878 67.6866 21.7315 66.9387 23.376 66.5129C24.4667 66.2315 25.4716 65.6863 26.3022 64.9254C27.1329 64.1644 27.7638 63.211 28.1395 62.149C28.5152 61.0871 28.6243 59.949 28.457 58.835C28.2897 57.721 27.8512 56.6652 27.1801 55.7604C24.9835 52.7976 23.5045 49.3654 22.8595 45.734C22.2145 42.1026 22.4211 38.371 23.4631 34.8329C24.609 30.8743 26.7811 27.289 29.7593 24.4404C32.7374 21.5919 36.4157 19.5813 40.4214 18.6125C42.3206 18.1681 44.2643 17.9421 46.2147 17.9388C51.3727 17.9233 56.3932 19.6011 60.5056 22.7146C65.5507 26.5429 68.8705 32.2167 69.7364 38.4904C69.931 39.9934 70.6143 41.3908 71.6809 42.4674C72.7476 43.544 74.1386 44.2402 75.6397 44.4488C78.8116 44.8834 81.8641 45.9493 84.617 47.5836C87.3699 49.2178 89.7673 51.3873 91.6676 53.9638C93.5629 56.5441 94.914 59.4827 95.6389 62.6012C96.3637 65.7196 96.4472 68.9529 95.8843 72.1046C95.3022 75.2102 94.0881 78.163 92.3173 80.7799C90.5464 83.3967 88.2567 85.6217 85.5901 87.3167C84.6382 87.9447 83.8574 88.7997 83.3181 89.8046C82.7788 90.8096 82.498 91.9329 82.501 93.0733C82.491 94.3153 82.8142 95.5372 83.4371 96.6118C84.06 97.6863 84.9596 98.5741 86.0424 99.1826C87.1251 99.7911 88.3512 100.098 89.5929 100.072C90.8346 100.045 92.0465 99.6859 93.1022 99.0317C97.3772 96.2869 101.037 92.6853 103.849 88.4545C106.661 84.2236 108.566 79.4555 109.442 74.4513C110.326 69.4769 110.19 64.3746 109.04 59.4547C107.89 54.5348 105.752 49.9003 102.755 45.8329Z" fill="#001526"/>
<path d="M71.0425 103.125V77.9162H78.6646C79.5709 77.916 80.4569 77.6471 81.2104 77.1434C81.9639 76.6398 82.5512 75.9241 82.8981 75.0867C83.2449 74.2493 83.3357 73.3279 83.1589 72.439C82.9821 71.55 82.5458 70.7334 81.905 70.0924L67.4079 55.5954C66.5484 54.7361 65.3828 54.2534 64.1675 54.2534C62.9522 54.2534 61.7866 54.7361 60.9271 55.5954L46.43 70.0924C45.7892 70.7334 45.3529 71.55 45.1761 72.439C44.9993 73.3279 45.0901 74.2493 45.4369 75.0867C45.7837 75.9241 46.371 76.6398 47.1246 77.1434C47.8781 77.6471 48.7641 77.916 49.6704 77.9162H57.2925V103.125C57.2925 104.948 58.0168 106.697 59.3061 107.986C60.5955 109.275 62.3441 110 64.1675 110C65.9909 110 67.7395 109.275 69.0288 107.986C70.3182 106.697 71.0425 104.948 71.0425 103.125Z" fill="#001526"/>
</g>
<defs>
<clipPath id="clip0_64_5498">
<rect width="110" height="110" fill="white"/>
</clipPath>
</defs>
</svg>
