<svg width="134" height="134" viewBox="0 0 134 134" fill="none" xmlns="http://www.w3.org/2000/svg">
<g clip-path="url(#clip0_77_1027)">
<path d="M125.174 55.8327C119.052 47.5194 110.32 41.4981 100.373 38.7309C97.2707 27.356 89.8923 17.6202 79.7796 11.5582C69.667 5.49626 57.6028 3.57732 46.1084 6.20244C39.5531 7.70147 33.41 10.6306 28.1186 14.7803C22.8272 18.9301 18.5182 24.1979 15.4998 30.2069C12.4814 36.2159 10.8282 42.8178 10.6585 49.5401C10.4887 56.2625 11.8066 62.9394 14.5179 69.0931C8.85292 72.8151 4.50344 78.226 2.08624 84.5586C-0.330961 90.8912 -0.693195 97.8241 1.0509 104.374C2.96827 111.387 7.17026 117.559 12.9914 121.914C18.8126 126.268 25.9202 128.557 33.1886 128.416H47.4596C49.6808 128.416 51.811 127.534 53.3816 125.963C54.9522 124.392 55.8346 122.262 55.8346 120.041C55.8346 117.82 54.9522 115.69 53.3816 114.119C51.811 112.548 49.6808 111.666 47.4596 111.666H33.1886C29.6596 111.762 26.1963 110.699 23.3286 108.64C20.4609 106.581 18.3467 103.639 17.3096 100.265C16.7661 98.2681 16.6245 96.1834 16.8928 94.1315C17.1612 92.0796 17.8343 90.1015 18.8731 88.3117C19.9118 86.522 21.2955 84.9562 22.944 83.7053C24.5925 82.4545 26.4729 81.5433 28.4762 81.0247C29.805 80.6818 31.0291 80.0177 32.041 79.0907C33.0528 78.1638 33.8214 77.0024 34.2791 75.7087C34.7368 74.415 34.8696 73.0287 34.6658 71.6716C34.462 70.3146 33.9279 69.0284 33.1104 67.9262C30.4345 64.3169 28.6328 60.1359 27.8471 55.7122C27.0613 51.2884 27.313 46.7427 28.5823 42.4327C29.9782 37.6104 32.6243 33.2428 36.2522 29.7727C39.8802 26.3027 44.361 23.8534 49.2407 22.6733C51.5542 22.1319 53.922 21.8565 56.298 21.8525C62.5814 21.8337 68.6973 23.8776 73.7068 27.6704C79.8527 32.334 83.8969 39.2457 84.9517 46.8882C85.1888 48.7191 86.0211 50.4214 87.3205 51.7329C88.6199 53.0444 90.3143 53.8925 92.143 54.1465C96.0069 54.6759 99.7254 55.9744 103.079 57.9653C106.432 59.9561 109.353 62.5989 111.668 65.7375C113.977 68.8808 115.623 72.4606 116.506 76.2595C117.389 80.0583 117.49 83.997 116.805 87.8363C116.096 91.6195 114.616 95.2166 112.459 98.4044C110.302 101.592 107.513 104.303 104.264 106.367C103.105 107.132 102.154 108.174 101.497 109.398C100.84 110.622 100.498 111.991 100.501 113.38C100.489 114.893 100.883 116.382 101.642 117.691C102.4 118.999 103.496 120.081 104.815 120.822C106.134 121.564 107.628 121.938 109.141 121.905C110.653 121.873 112.129 121.435 113.415 120.638C118.623 117.295 123.081 112.907 126.507 107.753C129.933 102.6 132.253 96.791 133.32 90.695C134.398 84.6353 134.231 78.4198 132.831 72.4265C131.43 66.4332 128.825 60.7874 125.174 55.8327Z" fill="white"/>
<path d="M86.5427 125.624V94.9161H95.8278C96.9319 94.9159 98.0111 94.5883 98.9291 93.9748C99.847 93.3613 100.562 92.4894 100.985 91.4693C101.407 90.4492 101.518 89.3268 101.303 88.2439C101.087 87.161 100.556 86.1662 99.7752 85.3854L82.1151 67.7253C81.0681 66.6786 79.6482 66.0906 78.1677 66.0906C76.6872 66.0906 75.2673 66.6786 74.2203 67.7253L56.5603 85.3854C55.7797 86.1662 55.2481 87.161 55.0328 88.2439C54.8174 89.3268 54.928 90.4492 55.3505 91.4693C55.773 92.4894 56.4884 93.3613 57.4064 93.9748C58.3243 94.5883 59.4036 94.9159 60.5077 94.9161H69.7927V125.624C69.7927 127.846 70.6751 129.976 72.2457 131.546C73.8163 133.117 75.9465 133.999 78.1677 133.999C80.3889 133.999 82.5191 133.117 84.0897 131.546C85.6603 129.976 86.5427 127.846 86.5427 125.624Z" fill="white"/>
</g>
<defs>
<clipPath id="clip0_77_1027">
<rect width="134" height="134" fill="white"/>
</clipPath>
</defs>
</svg>
