<svg width="24" height="24" viewBox="0 0 24 24" fill="none" xmlns="http://www.w3.org/2000/svg">
<path d="M10.9569 12.354C10.9104 12.3076 10.8734 12.2524 10.8482 12.1916C10.823 12.1309 10.81 12.0658 10.81 12C10.81 11.9342 10.823 11.8691 10.8482 11.8084C10.8734 11.7476 10.9104 11.6925 10.9569 11.646L15.5429 7.061C15.8243 6.77974 15.9824 6.39822 15.9825 6.00036C15.9826 5.6025 15.8247 5.2209 15.5434 4.9395C15.2622 4.65811 14.8806 4.49997 14.4828 4.49988C14.0849 4.49978 13.7033 4.65774 13.4219 4.939L8.83593 9.525C8.1807 10.182 7.81274 11.0721 7.81274 12C7.81274 12.9279 8.1807 13.818 8.83593 14.475L13.4219 19.061C13.7033 19.3423 14.0849 19.5002 14.4828 19.5001C14.8806 19.5 15.2622 19.3419 15.5434 19.0605C15.8247 18.7791 15.9826 18.3975 15.9825 17.9997C15.9824 17.6018 15.8243 17.2203 15.5429 16.939L10.9569 12.354Z" fill="#001526"/>
</svg>
