<svg width="15" height="15" viewBox="0 0 15 15" fill="none" xmlns="http://www.w3.org/2000/svg">
<g clip-path="url(#clip0_64_4819)">
<path d="M8.75006 4.37508C8.75006 4.62231 8.67675 4.86398 8.5394 5.06954C8.40205 5.27511 8.20682 5.43532 7.97842 5.52993C7.75001 5.62454 7.49868 5.64929 7.2562 5.60106C7.01372 5.55283 6.791 5.43378 6.61618 5.25896C6.44136 5.08415 6.32231 4.86142 6.27408 4.61894C6.22585 4.37647 6.2506 4.12513 6.34521 3.89673C6.43982 3.66832 6.60004 3.4731 6.8056 3.33574C7.01116 3.19839 7.25284 3.12508 7.50006 3.12508C7.83158 3.12508 8.14953 3.25678 8.38395 3.4912C8.61837 3.72562 8.75006 4.04356 8.75006 4.37508ZM10.5938 7.47321L7.50006 10.5001L4.41131 7.47758C3.7983 6.86649 3.38034 6.08729 3.2103 5.23857C3.04027 4.38986 3.12581 3.50979 3.4561 2.70971C3.78639 1.90963 4.34659 1.2255 5.06581 0.743898C5.78503 0.262292 6.63095 0.00485184 7.49652 0.00415182C8.3621 0.0034518 9.20843 0.259524 9.92842 0.739965C10.6484 1.22041 11.2097 1.90363 11.5413 2.70317C11.8729 3.50272 11.9599 4.38265 11.7912 5.23164C11.6225 6.08062 11.2058 6.8605 10.5938 7.47258V7.47321ZM10.0001 4.37508C10.0001 3.88063 9.85344 3.39728 9.57874 2.98616C9.30403 2.57503 8.91359 2.2546 8.45677 2.06538C7.99996 1.87616 7.49729 1.82665 7.01234 1.92312C6.52738 2.01958 6.08193 2.25768 5.7323 2.60731C5.38266 2.95695 5.14456 3.4024 5.0481 3.88736C4.95164 4.37231 5.00114 4.87497 5.19036 5.33179C5.37958 5.78861 5.70001 6.17905 6.11114 6.45376C6.52226 6.72846 7.00561 6.87508 7.50006 6.87508C8.1631 6.87508 8.79899 6.61169 9.26783 6.14285C9.73667 5.67401 10.0001 5.03812 10.0001 4.37508V4.37508ZM13.6669 6.63321L12.7701 6.33321C12.4909 7.09364 12.0499 7.78436 11.4776 8.35758L7.50006 12.2501L3.53756 8.37508C2.78537 7.62568 2.26095 6.67846 2.02506 5.64321C1.7674 5.61949 1.50762 5.64994 1.26243 5.7326C1.01724 5.81526 0.79205 5.94831 0.601339 6.12319C0.410628 6.29806 0.258612 6.51091 0.155061 6.74803C0.0515091 6.98516 -0.00128774 7.24133 6.30077e-05 7.50008V13.5951L4.98944 15.0207L10.0019 13.7707L15.0019 14.9882V8.42696C15.0017 8.02414 14.8717 7.63211 14.6313 7.30893C14.3908 6.98575 14.0527 6.74859 13.6669 6.63258V6.63321Z" fill="white"/>
</g>
<defs>
<clipPath id="clip0_64_4819">
<rect width="15" height="15" fill="white"/>
</clipPath>
</defs>
</svg>
