<svg width="28" height="28" viewBox="0 0 28 28" fill="none" xmlns="http://www.w3.org/2000/svg">
<path d="M18.3751 11.1125L13.0247 5.76219C12.6965 5.43405 12.2513 5.24977 11.7871 5.24988C11.3229 5.24999 10.8778 5.43448 10.5497 5.76278C10.2215 6.09107 10.0372 6.53627 10.0374 7.00044C10.0375 7.46461 10.222 7.90972 10.5503 8.23786L15.9006 13.587C15.9549 13.6412 15.998 13.7056 16.0274 13.7765C16.0568 13.8473 16.072 13.9233 16.072 14C16.072 14.0768 16.0568 14.1527 16.0274 14.2236C15.998 14.2945 15.9549 14.3588 15.9006 14.413L10.5503 19.7622C10.222 20.0903 10.0375 20.5354 10.0374 20.9996C10.0372 21.4638 10.2215 21.909 10.5497 22.2373C10.8778 22.5656 11.3229 22.7501 11.7871 22.7502C12.2513 22.7503 12.6965 22.566 13.0247 22.2379L18.3751 16.8875C19.1395 16.121 19.5688 15.0826 19.5688 14C19.5688 12.9175 19.1395 11.8791 18.3751 11.1125Z" fill="#001526"/>
</svg>
