<svg width="15" height="15" viewBox="0 0 15 15" fill="none" xmlns="http://www.w3.org/2000/svg">
<g clip-path="url(#clip0_146_4963)">
<path d="M14.7257 13.4034L11.8225 10.4989C13.9949 7.59596 13.4025 3.48158 10.4996 1.30926C7.59657 -0.863068 3.48219 -0.270745 1.30987 2.63224C-0.862457 5.53522 -0.270135 9.6496 2.63285 11.8219C4.96477 13.5669 8.1676 13.5669 10.4996 11.8219L13.404 14.7264C13.769 15.0914 14.3608 15.0914 14.7257 14.7264C15.0907 14.3614 15.0907 13.7696 14.7257 13.4046L14.7257 13.4034ZM6.5904 11.2613C4.01037 11.2613 1.91886 9.16983 1.91886 6.58979C1.91886 4.00976 4.01037 1.91825 6.5904 1.91825C9.17044 1.91825 11.2619 4.00976 11.2619 6.58979C11.2592 9.16866 9.1693 11.2586 6.5904 11.2613Z" fill="#001526"/>
</g>
<defs>
<clipPath id="clip0_146_4963">
<rect width="15" height="15" fill="white"/>
</clipPath>
</defs>
</svg>
