<svg width="15" height="15" viewBox="0 0 15 15" fill="none" xmlns="http://www.w3.org/2000/svg">
<g clip-path="url(#clip0_146_4968)">
<path d="M3.56691 0C1.66842 0 0.129395 1.53902 0.129395 3.43749C0.129395 5.33596 1.66842 6.87501 3.56691 6.87501C5.46541 6.87501 7.0044 5.33599 7.0044 3.43752C7.00232 1.53987 5.46453 0.00208008 3.56691 0ZM3.56691 5.00001C2.70397 5.00001 2.00442 4.30046 2.00442 3.43752C2.00442 2.57458 2.70395 1.875 3.56691 1.875C4.42988 1.875 5.1294 2.57455 5.1294 3.43749C5.1294 4.30043 4.42985 5.00001 3.56691 5.00001Z" fill="white"/>
<path d="M3.56688 8.125C1.66842 8.125 0.129395 9.66402 0.129395 11.5625C0.129395 13.461 1.66839 15 3.56688 15C5.46538 15 7.00437 13.461 7.00437 11.5625C7.00229 9.6649 5.4645 8.12708 3.56688 8.125ZM3.56688 13.125C2.70394 13.125 2.00439 12.4255 2.00439 11.5625C2.00439 10.6996 2.70394 10 3.56688 10C4.42982 10 5.12937 10.6996 5.12937 11.5625C5.12937 12.4255 4.42982 13.125 3.56688 13.125Z" fill="white"/>
<path d="M14.2458 11.5087H12.9421V3.49122H14.2458C14.591 3.49114 14.8707 3.21126 14.8707 2.86609C14.8707 2.70041 14.8048 2.54151 14.6877 2.42435L12.4464 0.18311C12.2024 -0.060874 11.8067 -0.060874 11.5627 0.18311L9.32145 2.42435C9.0774 2.66845 9.07746 3.06419 9.32159 3.30824C9.43875 3.42537 9.59766 3.4912 9.76333 3.49122H11.0671V11.5087H9.7633C9.41813 11.5088 9.13837 11.7887 9.13843 12.1339C9.13846 12.2995 9.20429 12.4584 9.32142 12.5756L11.5627 14.8168C11.8067 15.0608 12.2024 15.0608 12.4464 14.8168L14.6876 12.5756C14.9317 12.3315 14.9316 11.9358 14.6875 11.6917C14.5704 11.5746 14.4115 11.5088 14.2458 11.5087Z" fill="white"/>
</g>
<defs>
<clipPath id="clip0_146_4968">
<rect width="15" height="15" fill="white"/>
</clipPath>
</defs>
</svg>
