<svg width="20" height="20" viewBox="0 0 20 20" fill="none" xmlns="http://www.w3.org/2000/svg">
<path d="M2.08319 7.91662C0.9326 7.91662 -0.000134468 8.84936 -0.000134468 9.99994C-0.000134468 11.1505 0.9326 12.0833 2.08319 12.0833C3.23377 12.0833 4.1665 11.1505 4.1665 9.99994C4.1665 8.84936 3.23377 7.91662 2.08319 7.91662Z" fill="white"/>
<path d="M9.99994 7.91662C8.84936 7.91662 7.91662 8.84936 7.91662 9.99994C7.91662 11.1505 8.84936 12.0833 9.99994 12.0833C11.1505 12.0833 12.0833 11.1505 12.0833 9.99994C12.0833 8.84936 11.1505 7.91662 9.99994 7.91662Z" fill="white"/>
<path d="M17.9167 7.91662C16.7661 7.91662 15.8334 8.84936 15.8334 9.99994C15.8334 11.1505 16.7661 12.0833 17.9167 12.0833C19.0673 12.0833 20 11.1505 20 9.99994C20 8.84936 19.0673 7.91662 17.9167 7.91662Z" fill="white"/>
</svg>
