<svg width="120" height="120" viewBox="0 0 120 120" fill="none" xmlns="http://www.w3.org/2000/svg">
<path d="M115 22.5C115 18.3579 111.642 15 107.5 15H88.6201C85.4607 6.0368 77.0037 0.0304687 67.5001 0H52.5001C42.9964 0.0304687 34.5395 6.0368 31.3801 15H12.5C8.35789 15 5 18.3579 5 22.5C5 26.6421 8.35789 30 12.5 30H15.0001V92.5001C15.0001 107.688 27.3123 120 42.5 120H77.4999C92.6879 120 105 107.688 105 92.5001V30H107.5C111.642 30 115 26.6421 115 22.5ZM90.0001 92.5001C90.0001 99.4036 84.4037 105 77.5002 105H42.5C35.5965 105 30.0001 99.4036 30.0001 92.5001V30H90.0001V92.5001Z" fill="#001526"/>
<path d="M47.5002 90C51.6424 90 55.0002 86.6421 55.0002 82.5V52.5C55.0002 48.3579 51.6424 45 47.5002 45C43.3581 45 40.0002 48.3579 40.0002 52.5V82.5C40.0002 86.6421 43.3581 90 47.5002 90Z" fill="#001526"/>
<path d="M72.5 90C76.6421 90 80 86.6421 80 82.5V52.5C80 48.3579 76.6421 45 72.5 45C68.3579 45 65 48.3579 65 52.5V82.5C65 86.6421 68.3579 90 72.5 90Z" fill="#001526"/>
</svg>
