<svg width="20" height="20" viewBox="0 0 20 20" fill="none" xmlns="http://www.w3.org/2000/svg">
<path d="M12.0833 2.08319C12.0833 0.9326 11.1506 -0.000134468 10 -0.000134468C8.84942 -0.000134468 7.91669 0.9326 7.91669 2.08319C7.91669 3.23377 8.84942 4.1665 10 4.1665C11.1506 4.1665 12.0833 3.23377 12.0833 2.08319Z" fill="white"/>
<path d="M12.0833 9.99994C12.0833 8.84936 11.1506 7.91662 10 7.91662C8.84942 7.91662 7.91669 8.84936 7.91669 9.99994C7.91669 11.1505 8.84942 12.0833 10 12.0833C11.1506 12.0833 12.0833 11.1505 12.0833 9.99994Z" fill="white"/>
<path d="M12.0833 17.9167C12.0833 16.7661 11.1506 15.8334 10 15.8334C8.84942 15.8334 7.91669 16.7661 7.91669 17.9167C7.91669 19.0673 8.84942 20 10 20C11.1506 20 12.0833 19.0673 12.0833 17.9167Z" fill="white"/>
</svg>
